<svg width="707" height="534" viewBox="0 0 707 534" fill="none" xmlns="http://www.w3.org/2000/svg">
<g clip-path="url(#clip0)">
<path d="M181.892 470.555C181.892 470.555 185.292 456.274 209.093 461.034C232.893 465.794 236.293 470.555 236.293 470.555H181.892Z" fill="#3F3D56"/>
<path d="M64.59 451.854C64.59 451.854 67.99 437.574 91.7905 442.334C115.591 447.094 118.991 451.854 118.991 451.854H64.59Z" fill="#3F3D56"/>
<path d="M263.494 470.555C263.494 470.555 244.453 458.994 236.293 470.555H263.494Z" fill="#3F3D56"/>
<path d="M174.752 437.914C174.752 437.914 155.712 426.354 147.552 437.914H174.752Z" fill="#3F3D56"/>
<path d="M67.9393 427.293C73.608 437.805 85.6389 442.318 85.6389 442.318C85.6389 442.318 88.4791 429.787 82.8105 419.274C77.1418 408.761 65.1108 404.248 65.1108 404.248C65.1108 404.248 62.2706 416.78 67.9393 427.293Z" fill="#3F3D56"/>
<path d="M71.8355 423.834C82.0698 429.991 86.0114 442.221 86.0114 442.221C86.0114 442.221 73.3599 444.469 63.1255 438.311C52.8912 432.154 48.9497 419.924 48.9497 419.924C48.9497 419.924 61.6012 417.677 71.8355 423.834Z" fill="#88CDFF"/>
<path d="M633.761 462.054C633.761 462.054 637.161 447.774 660.961 452.534C684.762 457.294 688.162 462.054 688.162 462.054H633.761Z" fill="#3F3D56"/>
<path d="M579.36 470.555C562.824 467.966 546.924 465.764 531.662 463.949L537.539 452.194C535.499 451.514 526.659 458.314 526.659 458.314L534.139 424.314C523.939 425.674 519.179 460.354 519.179 460.354L507.618 448.794L513.309 461.882C466.605 456.975 426.304 455.444 392.426 455.795L397.456 445.734C395.416 445.054 386.576 451.854 386.576 451.854L394.056 417.854C383.856 419.214 379.096 453.894 379.096 453.894L367.536 442.334L373.563 456.197C350.357 456.871 327.201 458.736 304.186 461.784C309.206 446.146 326.735 431.114 326.735 431.114C313.257 435.307 306.245 442.138 302.615 448.471C301.881 416.344 306.824 384.341 317.215 353.932C317.215 353.932 290.014 415.134 294.094 455.934L294.612 463.182C270.948 466.874 259.074 470.555 259.074 470.555H579.36Z" fill="#3F3D56"/>
<path d="M401.876 501.495C401.876 501.495 526.999 483.135 604.52 501.495Z" fill="#3F3D56"/>
<path d="M217.593 526.656C217.593 526.656 342.715 508.295 420.237 526.656Z" fill="#3F3D56"/>
<path d="M449.477 533.406C449.477 533.406 523.585 514.612 569.5 533.406Z" fill="#3F3D56"/>
<path d="M656.465 457.946L655.257 457.322C670.953 426.977 662.56 387.57 652.755 359.855C646.098 341.226 637.606 323.305 627.406 306.355L628.555 305.628C638.809 322.664 647.344 340.677 654.037 359.4C663.931 387.369 672.384 427.17 656.465 457.946Z" fill="#3F3D56"/>
<path d="M668.106 305.872L659.284 354.156L660.621 354.4L669.444 306.116L668.106 305.872Z" fill="#3F3D56"/>
<path d="M609.438 347.009L608.442 347.936L654.003 396.897L654.999 395.97L609.438 347.009Z" fill="#3F3D56"/>
<path d="M691.345 400.791L668.236 432.759L669.338 433.556L692.448 401.588L691.345 400.791Z" fill="#3F3D56"/>
<path d="M672.181 293.071C675.937 293.071 678.982 290.027 678.982 286.271C678.982 282.515 675.937 279.471 672.181 279.471C668.426 279.471 665.381 282.515 665.381 286.271C665.381 290.027 668.426 293.071 672.181 293.071Z" fill="#88CDFF"/>
<path d="M598.06 345.432C601.816 345.432 604.86 342.388 604.86 338.632C604.86 334.876 601.816 331.832 598.06 331.832C594.304 331.832 591.26 334.876 591.26 338.632C591.26 342.388 594.304 345.432 598.06 345.432Z" fill="#3F3D56"/>
<path d="M627.981 352.232C631.736 352.232 634.781 349.188 634.781 345.432C634.781 341.677 631.736 338.632 627.981 338.632C624.225 338.632 621.18 341.677 621.18 345.432C621.18 349.188 624.225 352.232 627.981 352.232Z" fill="#3F3D56"/>
<path d="M614.38 378.753C618.136 378.753 621.18 375.708 621.18 371.953C621.18 368.197 618.136 365.153 614.38 365.153C610.625 365.153 607.58 368.197 607.58 371.953C607.58 375.708 610.625 378.753 614.38 378.753Z" fill="#88CDFF"/>
<path d="M699.382 395.753C703.138 395.753 706.182 392.709 706.182 388.953C706.182 385.197 703.138 382.153 699.382 382.153C695.626 382.153 692.582 385.197 692.582 388.953C692.582 392.709 695.626 395.753 699.382 395.753Z" fill="#3F3D56"/>
<path d="M676.941 403.233C680.697 403.233 683.742 400.189 683.742 396.433C683.742 392.678 680.697 389.633 676.941 389.633C673.186 389.633 670.141 392.678 670.141 396.433C670.141 400.189 673.186 403.233 676.941 403.233Z" fill="#3F3D56"/>
<path d="M692.582 424.994C696.337 424.994 699.382 421.949 699.382 418.194C699.382 414.438 696.337 411.393 692.582 411.393C688.826 411.393 685.782 414.438 685.782 418.194C685.782 421.949 688.826 424.994 692.582 424.994Z" fill="#3F3D56"/>
<path d="M621.181 301.231C624.936 301.231 627.981 298.187 627.981 294.431C627.981 290.676 624.936 287.631 621.181 287.631C617.425 287.631 614.38 290.676 614.38 294.431C614.38 298.187 617.425 301.231 621.181 301.231Z" fill="#3F3D56"/>
<path d="M223.223 258.386C223.223 342.442 173.253 371.791 111.612 371.791C49.9702 371.791 0 342.442 0 258.386C0 174.329 111.612 67.3961 111.612 67.3961C111.612 67.3961 223.223 174.329 223.223 258.386Z" fill="#F2F2F2"/>
<path d="M107.546 358.933L108.689 288.586L156.26 201.556L108.868 277.55L109.381 245.919L142.168 182.953L109.517 237.548L110.442 180.658L145.55 130.53L110.587 171.713L111.164 67.3961L107.536 205.492L107.834 199.795L72.1392 145.158L107.262 210.731L103.936 274.267L103.837 272.581L62.687 215.084L103.712 278.539L103.296 286.485L103.222 286.604L103.256 287.256L94.8176 448.453H106.092L107.444 365.192L148.369 301.893L107.546 358.933Z" fill="#3F3D56"/>
<path d="M591.371 233.327C591.371 336.017 530.324 371.872 455.018 371.872C379.712 371.872 318.665 336.017 318.665 233.327C318.665 130.637 455.018 0 455.018 0C455.018 0 591.371 130.637 591.371 233.327Z" fill="#F2F2F2"/>
<path d="M450.051 356.164L451.447 270.222L509.564 163.899L451.666 256.74L452.294 218.097L492.348 141.174L452.46 207.871L453.589 138.37L496.48 77.1291L453.766 127.441L454.472 0L450.039 168.708L450.403 161.749L406.796 95.0005L449.704 175.109L445.64 252.729L445.52 250.67L395.248 180.427L445.368 257.948L444.859 267.655L444.768 267.801L444.81 268.598L434.501 465.529H448.274L449.927 363.81L499.923 286.479L450.051 356.164Z" fill="#3F3D56"/>
<path d="M344.88 381.227L351.094 400.459C351.094 400.459 345.472 418.507 348.135 438.626C350.798 458.746 349.318 459.338 349.318 459.338C349.318 459.338 322.712 457.806 325.375 465.795C328.038 473.783 354.052 469.101 354.052 469.101C354.052 469.101 359.049 467.756 361.416 453.554C363.783 439.352 369.734 411.998 369.734 411.998L364.138 386.174L344.88 381.227Z" fill="#FFB8B8"/>
<path d="M346.951 341.875C346.951 341.875 335.708 346.018 335.708 357.261C335.708 368.504 339.85 383.89 342.513 384.777C345.176 385.665 362.929 397.796 366.183 389.215C369.438 380.635 346.951 341.875 346.951 341.875Z" fill="#88CDFF"/>
<path d="M441.039 475.019L464.709 474.131L482.758 471.469L477.432 489.221L433.643 490.404L441.039 475.019Z" fill="#FFB8B8"/>
<path d="M475.087 477.431L475.116 477.417L475.115 477.384L475.065 477.386L475.115 477.384L475.115 477.383L475.115 477.382L475.115 477.379L475.114 477.365L475.111 477.31C475.108 477.262 475.104 477.192 475.097 477.103C475.084 476.925 475.062 476.671 475.027 476.368C474.957 475.761 474.837 474.954 474.633 474.156C474.429 473.359 474.14 472.566 473.733 471.99C473.325 471.413 472.791 471.046 472.101 471.123C471.771 471.159 471.514 471.15 471.319 471.106C471.125 471.062 470.997 470.984 470.92 470.887C470.77 470.696 470.802 470.398 471.003 470.051C471.402 469.362 472.426 468.555 473.598 468.262C474.785 467.965 477.082 467.076 479.078 466.263C480.077 465.856 481.002 465.468 481.677 465.181C482.015 465.038 482.29 464.92 482.48 464.838L482.701 464.743L482.758 464.718L482.766 464.714L509.662 466.487L509.699 466.52C509.731 466.55 509.78 466.593 509.843 466.65C509.969 466.765 510.153 466.934 510.384 467.152C510.847 467.589 511.501 468.222 512.263 469.007C513.788 470.578 515.746 472.758 517.482 475.196C519.219 477.635 520.731 480.329 521.367 482.927C522.002 485.524 521.762 488.021 520 490.076C518.234 492.136 515.769 493.223 513.058 493.693C510.347 494.163 507.394 494.016 504.66 493.61C501.926 493.203 499.414 492.538 497.585 491.975C496.67 491.693 495.927 491.437 495.412 491.251C495.154 491.158 494.954 491.083 494.818 491.031C494.75 491.005 494.699 490.984 494.664 490.971L494.625 490.955L494.615 490.951L494.612 490.95L494.612 490.95C494.611 490.95 494.611 490.95 494.593 490.996L494.611 490.95L494.602 490.946L494.592 490.946L474.797 491.242L474.794 491.236C474.782 491.216 474.764 491.186 474.741 491.146C474.695 491.068 474.629 490.952 474.546 490.804C474.382 490.507 474.155 490.079 473.903 489.555C473.4 488.508 472.801 487.078 472.414 485.547C472.026 484.016 471.852 482.389 472.196 480.943C472.54 479.501 473.4 478.238 475.087 477.431Z" fill="white" stroke="black" stroke-width="0.1"/>
<path d="M485.717 454.603L494.297 494.843L512.05 491.292L501.989 440.993L491.338 435.371L485.717 454.603Z" fill="#FFB8B8"/>
<path d="M383.64 449.574C383.64 449.574 333.933 472.06 354.94 494.842C354.94 494.842 354.94 505.494 377.131 503.423C399.321 501.352 442.223 497.505 444.294 498.689C446.365 499.872 452.874 475.315 447.253 474.131C441.631 472.948 434.826 471.468 434.826 471.468C434.826 471.468 440.744 470.581 440.744 465.551C440.744 465.551 457.608 464.367 462.638 453.716C467.668 443.065 472.402 435.076 472.402 435.076L483.941 464.663C483.941 464.663 497.256 440.106 507.315 451.053C507.315 451.053 496.072 380.339 487.492 373.83C478.911 367.321 472.994 365.25 465.005 371.167C457.017 377.085 449.62 392.174 449.62 392.174L383.64 449.574Z" fill="#2F2E41"/>
<path d="M522.685 527.933L522.685 527.933C514.831 530.571 506.259 530.046 498.786 526.47C498.786 526.456 498.786 526.437 498.786 526.414C498.786 526.356 498.784 526.272 498.779 526.163C498.769 525.946 498.743 525.633 498.683 525.25C498.562 524.483 498.302 523.433 497.744 522.3C496.629 520.031 494.324 517.433 489.576 516.097C487.216 515.434 485.673 514.458 484.692 513.239C483.711 512.019 483.288 510.551 483.177 508.893C483.067 507.235 483.27 505.39 483.538 503.42C483.591 503.03 483.647 502.634 483.703 502.234C483.931 500.619 484.168 498.934 484.287 497.213C484.582 492.933 486.057 490.282 487.49 488.849C488.207 488.133 488.912 487.722 489.452 487.563C489.723 487.483 489.948 487.468 490.112 487.505C490.274 487.542 490.371 487.629 490.402 487.754C490.48 488.067 490.752 488.372 491.14 488.616C491.531 488.861 492.046 489.048 492.626 489.123C493.786 489.272 495.207 488.972 496.403 487.777C498.272 485.991 500.244 484.314 502.309 482.757C505.533 481.735 508.322 483.419 510.313 485.373C511.309 486.35 512.102 487.392 512.646 488.19C512.918 488.589 513.128 488.927 513.27 489.165C513.34 489.284 513.394 489.378 513.43 489.442C513.448 489.474 513.462 489.499 513.471 489.515L513.481 489.534L513.484 489.539L513.484 489.54L513.484 489.54L513.529 489.517L513.484 489.54L513.486 489.543L531.238 518.834L531.237 518.835L531.246 518.844L531.246 518.844L531.246 518.844L531.249 518.847L531.258 518.856C531.266 518.865 531.278 518.878 531.293 518.896C531.324 518.93 531.368 518.983 531.418 519.05C531.52 519.186 531.651 519.386 531.767 519.638C531.999 520.144 532.172 520.862 531.936 521.717C531.462 523.429 529.34 525.715 522.685 527.933Z" fill="white" stroke="black" stroke-width="0.1"/>
<path d="M453.17 335.958C453.17 335.958 481.574 345.722 484.533 347.793C487.492 349.864 500.806 359.628 494.297 364.658C487.788 369.688 482.462 372.942 469.739 369.096C457.017 365.249 442.815 353.414 442.815 353.414L453.17 335.958Z" fill="#FFB8B8"/>
<path d="M424.766 322.939C424.766 322.939 436.01 320.868 443.998 325.306C451.987 329.744 458.792 338.621 458.792 338.621C458.792 338.621 451.395 354.302 446.069 356.669C440.744 359.036 430.98 347.201 430.98 347.201L424.766 322.939Z" fill="#88CDFF"/>
<path d="M372.988 314.359C372.988 314.359 373.284 325.898 372.101 327.082C370.917 328.265 386.303 363.178 403.168 347.793C420.032 332.407 407.014 326.194 407.014 326.194C407.014 326.194 400.801 314.655 401.096 313.471C401.392 312.288 373.58 313.471 373.58 313.471L372.988 314.359Z" fill="#FFB8B8"/>
<path opacity="0.1" d="M372.988 314.359C372.988 314.359 373.284 325.898 372.101 327.082C370.917 328.265 386.303 363.178 403.168 347.793C420.032 332.407 407.014 326.194 407.014 326.194C407.014 326.194 400.801 314.655 401.096 313.471C401.392 312.288 373.58 313.471 373.58 313.471L372.988 314.359Z" fill="black"/>
<path d="M377.722 336.55C377.722 336.55 388.966 344.242 393.7 342.467C398.434 340.692 404.351 332.999 404.943 332.407C405.535 331.816 435.714 392.47 435.714 392.47C435.714 392.47 431.276 414.66 419.441 421.17C407.606 427.679 407.754 432.857 406.274 437.295C404.795 441.733 385.711 423.241 385.711 423.241L373.58 371.759V340.396L377.722 336.55Z" fill="#88CDFF"/>
<path d="M372.84 322.791C372.84 322.791 369.142 322.052 365.296 325.306C361.449 328.561 343.401 340.692 344.288 341.875C345.176 343.059 353.165 359.924 354.94 366.729C356.715 373.534 359.378 374.422 359.378 374.422C359.378 374.422 365.591 378.86 364.704 382.114C363.816 385.369 359.97 429.75 365.296 439.514C370.621 449.278 369.734 457.858 368.254 460.225C366.775 462.592 382.456 453.42 382.456 453.42C382.456 453.42 405.83 434.484 407.606 428.862C408.754 424.998 409.546 421.036 409.973 417.028C409.973 417.028 394.883 357.261 390.149 354.006C385.415 350.752 372.84 322.791 372.84 322.791Z" fill="#3F3D56"/>
<path d="M405.345 323.025C405.345 323.025 412.635 318.501 414.115 319.685C415.594 320.868 429.5 320.868 429.796 322.052C430.092 323.235 430.684 351.639 440.744 359.036C450.803 366.433 444.294 381.227 444.294 381.227L451.691 393.062C451.691 393.062 411.453 431.818 414.115 418.507C414.263 417.767 414.115 417.619 414.115 417.619C414.115 417.619 398.434 350.456 400.505 346.905C402.576 343.355 406.339 327.254 405.345 323.025Z" fill="#3F3D56"/>
<path d="M467.372 350.16L427.133 364.066C427.133 364.066 387.19 373.534 393.404 384.481C399.617 395.429 425.95 376.789 425.95 376.789L479.535 370.785C479.535 370.785 500.806 352.823 467.372 350.16Z" fill="#FFB8B8"/>
<path d="M388.965 325.306C401.058 325.306 410.86 315.504 410.86 303.412C410.86 291.32 401.058 281.517 388.965 281.517C376.873 281.517 367.071 291.32 367.071 303.412C367.071 315.504 376.873 325.306 388.965 325.306Z" fill="#FFB8B8"/>
<path d="M371.529 281.652L367.479 280.179C367.479 280.179 375.948 271.711 387.73 272.448L384.416 269.134C384.416 269.134 392.516 266.188 399.88 273.92C403.751 277.985 408.229 282.762 411.021 288.144H415.359L413.549 291.765L419.884 295.385L413.381 294.735C413.997 297.861 413.785 301.093 412.766 304.112L411.294 308.162C411.294 308.162 405.402 296.38 405.402 294.907V298.589C405.402 298.589 401.352 295.275 401.352 293.066L399.143 295.643L398.039 291.593L384.416 295.643L386.625 292.33L378.157 293.434L381.47 289.384C381.47 289.384 371.898 294.17 371.529 298.221C371.161 302.271 366.375 307.425 366.375 307.425L364.166 303.743C364.166 303.743 360.852 287.175 371.529 281.652Z" fill="#8F6E00"/>
</g>
<defs>
<clipPath id="clip0">
<rect width="706.182" height="533.406" fill="white"/>
</clipPath>
</defs>
</svg>
