<svg width="910" height="133" viewBox="0 0 910 133" fill="none" xmlns="http://www.w3.org/2000/svg">
<path d="M38.75 66.55V71.2H97.25V66.55C97.25 63.85 97 61.35 96.5 59.05C96.1 56.75 95.55 54.6 94.85 52.6L84.5 28.15C83.4 25.55 82.25 23.4 81.05 21.7C79.85 19.9 77.85 19 75.05 19H60.35C57.35 19 55.25 19.9 54.05 21.7C52.85 23.4 51.75 25.5 50.75 28L41.15 52.6C40.45 54.6 39.85 56.75 39.35 59.05C38.95 61.35 38.75 63.85 38.75 66.55ZM62.75 35.5C63.15 34.6 63.55 33.95 63.95 33.55C64.45 33.15 65 32.95 65.6 32.95H69.35C69.95 32.95 70.45 33.15 70.85 33.55C71.35 33.95 71.8 34.6 72.2 35.5L79.25 58.3H55.7L62.75 35.5ZM97.25 98.5V72.7H38.75V98.5H37.25V66.55C37.25 63.75 37.45 61.2 37.85 58.9C38.35 56.5 39 54.2 39.8 52L49.4 27.4C50.5 24.6 51.75 22.25 53.15 20.35C54.55 18.45 56.95 17.5 60.35 17.5H75.05C78.35 17.5 80.65 18.45 81.95 20.35C83.35 22.25 84.65 24.65 85.85 27.55L96.2 52C97 54.2 97.6 56.5 98 58.9C98.5 61.2 98.75 63.75 98.75 66.55V98.5H97.25ZM54.2 106.6V85.6H80.75V106.6C80.75 108.5 81.2 109.9 82.1 110.8C83.1 111.6 84.6 112 86.6 112H109.25C111.15 112 112.5 111.6 113.3 110.8C114.2 109.9 114.65 108.5 114.65 106.6V67C114.65 64 114.15 60.55 113.15 56.65C112.25 52.75 110.8 48.2 108.8 43L95.75 8.94999C95.15 7.24999 94.2 5.99999 92.9 5.2C91.7 4.4 90.15 4 88.25 4H47.9C45.9 4 44.25 4.4 42.95 5.2C41.75 5.99999 40.85 7.24999 40.25 8.94999L27.2 43C25.2 48.2 23.7 52.75 22.7 56.65C21.8 60.55 21.35 64 21.35 67V106.6C21.35 108.5 21.75 109.9 22.55 110.8C23.45 111.6 24.85 112 26.75 112H48.8C50.7 112 52.05 111.6 52.85 110.8C53.75 109.9 54.2 108.5 54.2 106.6ZM34.1 128.35C33.7 128.75 33.05 129.1 32.15 129.4C31.35 129.7 30.45 129.85 29.45 129.85H7.4C5 129.85 3.25 129.3 2.15 128.2C1.05 127.1 0.5 125.35 0.5 122.95V83.35C0.5 80.25 0.95 76.75 1.85 72.85C2.85 68.85 4.4 64.15 6.5 58.75L19.4 24.85C19.7 23.95 20.05 23.2 20.45 22.6C20.95 21.9 21.45 21.3 21.95 20.8L22.1 20.65L41.3 4.6C42.1 3.89999 43.05 3.39999 44.15 3.1C45.25 2.7 46.5 2.5 47.9 2.5H88.25C90.55 2.5 92.4 3 93.8 4C95.3 4.9 96.4 6.35 97.1 8.34999L110.15 42.4C112.25 47.8 113.75 52.5 114.65 56.5C115.65 60.4 116.15 63.9 116.15 67V106.6C116.15 107.9 115.95 109 115.55 109.9C115.25 110.8 114.75 111.55 114.05 112.15L94.55 128.35C94.15 128.75 93.5 129.1 92.6 129.4C91.8 129.7 90.9 129.85 89.9 129.85H67.25C64.75 129.85 62.9 129.25 61.7 128.05C60.5 126.95 59.9 125.25 59.9 122.95V103.45H55.7V106.6C55.7 107.9 55.5 109 55.1 109.9C54.8 110.8 54.3 111.55 53.6 112.15L34.1 128.35ZM134.162 129.85C131.762 129.85 130.012 129.3 128.912 128.2C127.812 127.1 127.262 125.35 127.262 122.95V25.75C127.262 24.45 127.412 23.35 127.712 22.45C128.112 21.55 128.662 20.8 129.362 20.2L148.712 3.85C149.212 3.45 149.862 3.14999 150.662 2.94999C151.562 2.65 152.512 2.5 153.512 2.5H201.362C211.762 2.5 219.412 4.55 224.312 8.65C229.212 12.65 231.662 18.75 231.662 26.95V34.15C231.662 37.65 231.162 40.65 230.162 43.15C229.262 45.65 227.862 47.65 225.962 49.15L225.512 49.45C230.912 50.65 234.962 53.25 237.662 57.25C240.362 61.15 241.712 66.6 241.712 73.6V87.4C241.712 91.9 241.062 95.8 239.762 99.1C238.462 102.3 236.512 105 233.912 107.2L214.562 123.55C212.062 125.65 208.912 127.2 205.112 128.2C201.312 129.3 196.862 129.85 191.762 129.85H134.162ZM211.112 112C221.012 112 228.312 110 233.012 106C237.812 102 240.212 95.8 240.212 87.4V73.6C240.212 66.3 238.662 60.75 235.562 56.95C232.462 53.15 227.712 50.95 221.312 50.35C224.312 49.05 226.512 47.1 227.912 44.5C229.412 41.8 230.162 38.35 230.162 34.15V26.95C230.162 19.15 227.812 13.4 223.112 9.69999C218.412 5.9 211.162 4 201.362 4H153.512C151.612 4 150.212 4.45 149.312 5.35C148.512 6.15 148.112 7.5 148.112 9.4V106.6C148.112 108.5 148.512 109.9 149.312 110.8C150.212 111.6 151.612 112 153.512 112H211.112ZM205.112 98.5H164.762V17.5H195.212C199.312 17.5 202.662 17.95 205.262 18.85C207.862 19.65 209.862 20.8 211.262 22.3C212.662 23.7 213.612 25.35 214.112 27.25C214.612 29.15 214.862 31.2 214.862 33.4V43C214.862 46 214.312 48.75 213.212 51.25C212.212 53.75 209.562 55.55 205.262 56.65C209.362 56.65 212.712 57.1 215.312 58C217.912 58.8 219.912 60 221.312 61.6C222.712 63.1 223.612 64.9 224.012 67C224.512 69.1 224.762 71.4 224.762 73.9V83.5C224.762 85.7 224.512 87.75 224.012 89.65C223.512 91.45 222.562 93 221.162 94.3C219.862 95.6 217.912 96.65 215.312 97.45C212.712 98.15 209.312 98.5 205.112 98.5ZM195.212 19H166.262V56.65H195.212C199.312 56.65 202.562 56.3 204.962 55.6C207.362 54.8 209.162 53.8 210.362 52.6C211.662 51.3 212.462 49.85 212.762 48.25C213.162 46.55 213.362 44.8 213.362 43V33.4C213.362 29.4 212.212 26 209.912 23.2C207.612 20.4 202.712 19 195.212 19ZM181.862 29.5H194.612C196.512 29.5 197.912 30 198.812 31C199.812 32 200.312 33.5 200.312 35.5V39.7C200.312 41.7 199.812 43.2 198.812 44.2C197.912 45.2 196.512 45.7 194.612 45.7H181.862V29.5ZM205.262 58.15H166.262V97H205.112C212.612 97 217.512 95.8 219.812 93.4C222.112 90.9 223.262 87.6 223.262 83.5V73.9C223.262 69.4 222.112 65.65 219.812 62.65C217.612 59.65 212.762 58.15 205.262 58.15ZM181.862 68.8H201.362C203.262 68.8 204.662 69.3 205.562 70.3C206.562 71.2 207.062 72.65 207.062 74.65V80.5C207.062 82.5 206.562 84 205.562 85C204.662 86 203.262 86.5 201.362 86.5H181.862V68.8ZM336.541 122.65C333.041 125.65 328.141 127.95 321.841 129.55C315.541 131.25 307.441 132.1 297.541 132.1C287.741 132.1 279.691 131.05 273.391 128.95C267.191 126.95 262.291 124.25 258.691 120.85C255.191 117.45 252.741 113.55 251.341 109.15C250.041 104.75 249.391 100.2 249.391 95.5V48.85C249.391 44.25 250.041 40 251.341 36.1C252.641 32.1 254.991 28.7 258.391 25.9L277.891 9.69999C281.391 6.7 286.241 4.4 292.441 2.79999C298.741 1.09999 306.891 0.24999 316.891 0.24999C326.691 0.24999 334.691 1.04999 340.891 2.65C347.191 4.24999 352.091 6.49999 355.591 9.4C359.191 12.2 361.641 15.6 362.941 19.6C364.241 23.5 364.891 27.8 364.891 32.5V83.65C364.891 88.25 364.241 92.5 362.941 96.4C361.641 100.3 359.291 103.65 355.891 106.45L336.541 122.65ZM363.391 83.65V32.5C363.391 27.9 362.691 23.75 361.291 20.05C359.991 16.25 357.591 13 354.091 10.3C350.691 7.59999 345.941 5.49999 339.841 4C333.841 2.5 326.191 1.75 316.891 1.75C307.591 1.75 299.891 2.5 293.791 4C287.691 5.49999 282.891 7.59999 279.391 10.3C275.991 13 273.591 16.25 272.191 20.05C270.891 23.75 270.241 27.9 270.241 32.5V83.65C270.241 88.25 270.891 92.45 272.191 96.25C273.591 99.95 275.991 103.15 279.391 105.85C282.891 108.45 287.691 110.5 293.791 112C299.891 113.5 307.591 114.25 316.891 114.25C326.191 114.25 333.841 113.5 339.841 112C345.941 110.5 350.691 108.45 354.091 105.85C357.591 103.15 359.991 99.95 361.291 96.25C362.691 92.45 363.391 88.25 363.391 83.65ZM347.041 80.2C347.041 86.2 344.891 91.1 340.591 94.9C336.291 98.6 328.291 100.45 316.591 100.45C304.891 100.45 296.941 98.6 292.741 94.9C288.541 91.1 286.441 86.2 286.441 80.2V35.95C286.441 29.95 288.541 25.1 292.741 21.4C296.941 17.6 304.891 15.7 316.591 15.7C328.291 15.7 336.291 17.6 340.591 21.4C344.891 25.1 347.041 29.95 347.041 35.95V80.2ZM287.941 80.2C287.941 85.8 289.941 90.35 293.941 93.85C297.941 97.25 305.491 98.95 316.591 98.95C327.691 98.95 335.291 97.25 339.391 93.85C343.491 90.35 345.541 85.8 345.541 80.2V35.95C345.541 30.35 343.491 25.85 339.391 22.45C335.291 18.95 327.691 17.2 316.591 17.2C305.491 17.2 297.941 18.95 293.941 22.45C289.941 25.85 287.941 30.35 287.941 35.95V80.2ZM304.291 78.25V37.9C304.291 36 305.041 34.4 306.541 33.1C308.041 31.7 311.491 31 316.891 31C322.291 31 325.741 31.7 327.241 33.1C328.741 34.4 329.491 36 329.491 37.9V78.25C329.491 80.25 328.741 81.95 327.241 83.35C325.741 84.65 322.291 85.3 316.891 85.3C311.491 85.3 308.041 84.65 306.541 83.35C305.041 81.95 304.291 80.25 304.291 78.25ZM305.791 78.25C305.791 79.25 305.991 80.15 306.391 80.95C306.791 81.65 307.541 82.25 308.641 82.75V54.25C308.641 53.25 308.441 52.4 308.041 51.7C307.641 50.9 306.891 50.3 305.791 49.9V78.25ZM423.678 132.1C413.978 132.1 405.978 131.05 399.678 128.95C393.478 126.95 388.628 124.25 385.128 120.85C381.628 117.45 379.178 113.55 377.778 109.15C376.478 104.75 375.828 100.2 375.828 95.5V25.75C375.828 24.45 375.978 23.35 376.278 22.45C376.678 21.55 377.228 20.8 377.928 20.2L397.278 3.85C397.778 3.45 398.428 3.14999 399.228 2.94999C400.128 2.65 401.078 2.5 402.078 2.5H425.628C428.028 2.5 429.778 3.05 430.878 4.14999C431.978 5.25 432.528 7 432.528 9.4V77.8C432.528 78.7 432.678 79.55 432.978 80.35C433.278 81.05 433.928 81.6 434.928 82V25.75C434.928 24.45 435.078 23.35 435.378 22.45C435.678 21.55 436.128 20.85 436.728 20.35L436.878 20.2L456.378 3.85C456.878 3.45 457.528 3.14999 458.328 2.94999C459.128 2.65 460.078 2.5 461.178 2.5H483.978C486.378 2.5 488.128 3.05 489.228 4.14999C490.328 5.25 490.878 7 490.878 9.4V83.65C490.878 88.25 490.228 92.5 488.928 96.4C487.628 100.3 485.278 103.65 481.878 106.45L462.378 122.65C458.878 125.65 454.028 127.95 447.828 129.55C441.628 131.25 433.578 132.1 423.678 132.1ZM489.378 83.65V9.4C489.378 7.5 488.928 6.15 488.028 5.35C487.228 4.45 485.878 4 483.978 4H461.178C459.278 4 457.878 4.45 456.978 5.35C456.178 6.15 455.778 7.5 455.778 9.4V77.8C455.778 79.8 455.028 81.5 453.528 82.9C452.028 84.2 448.628 84.85 443.328 84.85C438.128 84.85 434.778 84.2 433.278 82.9C431.778 81.5 431.028 79.8 431.028 77.8V9.4C431.028 7.5 430.578 6.15 429.678 5.35C428.878 4.45 427.528 4 425.628 4H402.078C400.178 4 398.778 4.45 397.878 5.35C397.078 6.15 396.678 7.5 396.678 9.4V83.65C396.678 88.25 397.328 92.45 398.628 96.25C400.028 99.95 402.428 103.15 405.828 105.85C409.328 108.45 414.078 110.5 420.078 112C426.078 113.5 433.728 114.25 443.028 114.25C452.328 114.25 459.978 113.5 465.978 112C471.978 110.5 476.678 108.45 480.078 105.85C483.578 103.15 485.978 99.95 487.278 96.25C488.678 92.45 489.378 88.25 489.378 83.65ZM413.178 17.5H414.678V80.05C414.678 85.65 416.628 90.2 420.528 93.7C424.528 97.1 432.078 98.8 443.178 98.8C454.278 98.8 461.828 97.1 465.828 93.7C469.828 90.2 471.828 85.65 471.828 80.05V17.5H473.328V80.05C473.328 86.05 471.228 90.95 467.028 94.75C462.828 98.45 454.878 100.3 443.178 100.3C431.478 100.3 423.528 98.45 419.328 94.75C415.228 90.95 413.178 86.05 413.178 80.05V17.5ZM555.934 129.85H531.634C529.234 129.85 527.484 129.3 526.384 128.2C525.284 127.1 524.734 125.35 524.734 122.95V50.8H504.184C501.784 50.8 500.034 50.25 498.934 49.15C497.834 48.05 497.284 46.3 497.284 43.9V25.75C497.284 24.45 497.434 23.35 497.734 22.45C498.134 21.55 498.684 20.8 499.384 20.2L518.734 3.85C519.234 3.45 519.884 3.14999 520.684 2.94999C521.584 2.65 522.534 2.5 523.534 2.5H602.734C605.134 2.5 606.884 3.05 607.984 4.14999C609.084 5.25 609.634 7 609.634 9.4V27.55C609.634 28.85 609.434 29.95 609.034 30.85C608.734 31.75 608.234 32.5 607.534 33.1L588.034 49.3C587.634 49.7 586.984 50.05 586.084 50.35C585.284 50.65 584.384 50.8 583.384 50.8H582.184V106.6C582.184 107.9 581.984 109 581.584 109.9C581.284 110.8 580.784 111.55 580.084 112.15L560.584 128.35C560.184 128.75 559.534 129.1 558.634 129.4C557.834 129.7 556.934 129.85 555.934 129.85ZM575.284 112C577.184 112 578.534 111.6 579.334 110.8C580.234 109.9 580.684 108.5 580.684 106.6V32.95H602.734C604.634 32.95 605.984 32.55 606.784 31.75C607.684 30.85 608.134 29.45 608.134 27.55V9.4C608.134 7.5 607.684 6.15 606.784 5.35C605.984 4.45 604.634 4 602.734 4H523.534C521.634 4 520.234 4.45 519.334 5.35C518.534 6.15 518.134 7.5 518.134 9.4V27.55C518.134 29.45 518.534 30.85 519.334 31.75C520.234 32.55 521.634 32.95 523.534 32.95H545.584V106.6C545.584 108.5 545.984 109.9 546.784 110.8C547.684 111.6 549.084 112 550.984 112H575.284ZM562.384 98.5V19H531.634V17.5H594.634V19H563.884V98.5H562.384ZM737.777 54.25C739.577 54.25 740.877 53.85 741.677 53.05C742.477 52.25 743.727 50.55 745.427 47.95L763.727 20.05C764.327 19.05 764.977 18.4 765.677 18.1C766.477 17.7 767.277 17.5 768.077 17.5H770.627C772.027 17.5 773.027 17.9 773.627 18.7C774.327 19.4 774.677 20.55 774.677 22.15V98.5H773.177V22.15C773.177 21.35 772.977 20.65 772.577 20.05C772.277 19.35 771.627 19 770.627 19H768.377C767.677 19 767.077 19.1 766.577 19.3C766.077 19.5 765.527 20.1 764.927 21.1L746.627 48.7C744.827 51.4 743.427 53.25 742.427 54.25C741.527 55.25 739.977 55.75 737.777 55.75C735.577 55.75 733.977 55.25 732.977 54.25C732.077 53.25 730.727 51.4 728.927 48.7L710.627 21.1C710.027 20.1 709.427 19.5 708.827 19.3C708.327 19.1 707.727 19 707.027 19H704.777C703.777 19 703.127 19.35 702.827 20.05C702.527 20.65 702.377 21.35 702.377 22.15V98.5H700.877V22.15C700.877 20.55 701.177 19.4 701.777 18.7C702.477 17.9 703.477 17.5 704.777 17.5H707.327C708.127 17.5 708.927 17.7 709.727 18.1C710.527 18.4 711.227 19.05 711.827 20.05L730.127 47.95C731.827 50.55 733.077 52.25 733.877 53.05C734.677 53.85 735.977 54.25 737.777 54.25ZM712.727 112C714.627 112 715.977 111.6 716.777 110.8C717.677 109.9 718.127 108.5 718.127 106.6V53.8L726.977 70.15C727.877 71.85 728.927 73.1 730.127 73.9C731.427 74.6 733.027 74.95 734.927 74.95H740.927C742.827 74.95 744.377 74.6 745.577 73.9C746.877 73.1 747.977 71.85 748.877 70.15L757.727 53.8V106.6C757.727 108.5 758.127 109.9 758.927 110.8C759.827 111.6 761.227 112 763.127 112H786.227C788.127 112 789.477 111.6 790.277 110.8C791.177 109.9 791.627 108.5 791.627 106.6V9.4C791.627 7.5 791.177 6.15 790.277 5.35C789.477 4.45 788.127 4 786.227 4H761.927C760.327 4 758.977 4.34999 757.877 5.04999C756.877 5.74999 755.927 6.89999 755.027 8.49999L741.677 32.95C741.177 33.85 740.727 34.5 740.327 34.9C740.027 35.3 739.577 35.5 738.977 35.5H737.627C737.027 35.5 736.527 35.3 736.127 34.9C735.827 34.5 735.427 33.85 734.927 32.95L721.427 8.49999C720.527 6.89999 719.527 5.74999 718.427 5.04999C717.427 4.34999 716.127 4 714.527 4H690.377C688.477 4 687.077 4.45 686.177 5.35C685.377 6.15 684.977 7.5 684.977 9.4V106.6C684.977 108.5 685.377 109.9 686.177 110.8C687.077 111.6 688.477 112 690.377 112H712.727ZM717.527 112.15L698.027 128.35C697.627 128.75 696.977 129.1 696.077 129.4C695.277 129.7 694.377 129.85 693.377 129.85H671.027C668.627 129.85 666.877 129.3 665.777 128.2C664.677 127.1 664.127 125.35 664.127 122.95V25.75C664.127 24.45 664.277 23.35 664.577 22.45C664.977 21.55 665.527 20.8 666.227 20.2L685.577 3.85C686.077 3.45 686.727 3.14999 687.527 2.94999C688.427 2.65 689.377 2.5 690.377 2.5H714.527C716.427 2.5 717.977 2.89999 719.177 3.69999C720.477 4.49999 721.677 5.84999 722.777 7.74999L732.977 26.5L734.327 24.1C734.727 23.4 735.127 22.75 735.527 22.15C736.027 21.45 736.527 20.9 737.027 20.5L756.377 4.29999C757.177 3.69999 757.977 3.24999 758.777 2.94999C759.677 2.65 760.727 2.5 761.927 2.5H786.227C788.627 2.5 790.377 3.05 791.477 4.14999C792.577 5.25 793.127 7 793.127 9.4V106.6C793.127 107.9 792.927 109 792.527 109.9C792.227 110.8 791.727 111.55 791.027 112.15L771.527 128.35C771.127 128.75 770.477 129.1 769.577 129.4C768.777 129.7 767.877 129.85 766.877 129.85H743.777C741.277 129.85 739.477 129.3 738.377 128.2C737.377 127.1 736.877 125.35 736.877 122.95V83.35L728.027 90.7C727.227 91.4 726.277 91.95 725.177 92.35C724.177 92.65 722.977 92.8 721.577 92.8H719.627V106.6C719.627 107.9 719.427 109 719.027 109.9C718.727 110.8 718.227 111.55 717.527 112.15ZM883.01 129.85H813.41C811.01 129.85 809.26 129.3 808.16 128.2C807.06 127.1 806.51 125.35 806.51 122.95V25.75C806.51 24.45 806.66 23.35 806.96 22.45C807.36 21.55 807.91 20.8 808.61 20.2L827.96 3.85C828.46 3.45 829.11 3.14999 829.91 2.94999C830.81 2.65 831.76 2.5 832.76 2.5H902.36C904.76 2.5 906.51 3.05 907.61 4.14999C908.71 5.25 909.26 7 909.26 9.4V26.95C909.26 28.25 909.06 29.35 908.66 30.25C908.36 31.15 907.86 31.9 907.16 32.5L894.26 43.15C895.26 43.65 895.96 44.4 896.36 45.4C896.86 46.4 897.11 47.7 897.11 49.3V65.35C897.11 66.65 896.91 67.75 896.51 68.65C896.21 69.55 895.71 70.3 895.01 70.9L881.66 82.15H902.36C904.76 82.15 906.51 82.7 907.61 83.8C908.71 84.9 909.26 86.65 909.26 89.05V106.6C909.26 107.9 909.06 109 908.66 109.9C908.36 110.8 907.86 111.55 907.16 112.15L887.66 128.35C887.26 128.75 886.61 129.1 885.71 129.4C884.91 129.7 884.01 129.85 883.01 129.85ZM902.36 112C904.26 112 905.61 111.6 906.41 110.8C907.31 109.9 907.76 108.5 907.76 106.6V89.05C907.76 87.15 907.31 85.8 906.41 85C905.61 84.1 904.26 83.65 902.36 83.65H860.96V70.75H890.21C892.11 70.75 893.46 70.35 894.26 69.55C895.16 68.65 895.61 67.25 895.61 65.35V49.3C895.61 47.4 895.16 46.05 894.26 45.25C893.46 44.35 892.11 43.9 890.21 43.9H860.96V32.35H902.36C904.26 32.35 905.61 31.95 906.41 31.15C907.31 30.25 907.76 28.85 907.76 26.95V9.4C907.76 7.5 907.31 6.15 906.41 5.35C905.61 4.45 904.26 4 902.36 4H832.76C830.86 4 829.46 4.45 828.56 5.35C827.76 6.15 827.36 7.5 827.36 9.4V106.6C827.36 108.5 827.76 109.9 828.56 110.8C829.46 111.6 830.86 112 832.76 112H902.36ZM894.26 97V98.5H843.71V17.5H894.26V19H845.21V56.65H882.11V58.15H845.21V97H894.26Z" fill="#88CDFF"/>
</svg>
