<svg width="1051" height="133" viewBox="0 0 1051 133" fill="none" xmlns="http://www.w3.org/2000/svg">
<path d="M30.9 129.85H7.65C5.25 129.85 3.5 129.3 2.4 128.2C1.3 127.1 0.75 125.35 0.75 122.95V25.75C0.75 24.45 0.9 23.35 1.2 22.45C1.6 21.55 2.15 20.8 2.85 20.2L22.2 3.85C22.7 3.45 23.35 3.14999 24.15 2.94999C25.05 2.65 26 2.5 27 2.5H72.9C80 2.5 85.95 3.25 90.75 4.74999C95.55 6.24999 99.35 8.34999 102.15 11.05C104.95 13.75 106.9 17 108 20.8C109.2 24.6 109.8 28.75 109.8 33.25V52.45C109.8 57.25 109.1 61.65 107.7 65.65C106.4 69.55 104.1 72.9 100.8 75.7L81.3 91.9C78.8 94 75.55 95.75 71.55 97.15C67.65 98.45 62.85 99.2 57.15 99.4V106.6C57.15 107.9 56.95 109 56.55 109.9C56.25 110.8 55.75 111.55 55.05 112.15L35.55 128.35C35.15 128.75 34.5 129.1 33.6 129.4C32.8 129.7 31.9 129.85 30.9 129.85ZM50.25 112C52.15 112 53.5 111.6 54.3 110.8C55.2 109.9 55.65 108.5 55.65 106.6V81.7H72.9C86.5 81.7 95.8 79 100.8 73.6C105.8 68.2 108.3 61.15 108.3 52.45V33.25C108.3 24.55 105.8 17.5 100.8 12.1C95.8 6.7 86.5 4 72.9 4H27C25.1 4 23.7 4.45 22.8 5.35C22 6.15 21.6 7.5 21.6 9.4V106.6C21.6 108.5 22 109.9 22.8 110.8C23.7 111.6 25.1 112 27 112H50.25ZM70.8 68.95H39.9V98.5H38.4V17.5H70.8C75.5 17.5 79.3 18.05 82.2 19.15C85.2 20.15 87.5 21.55 89.1 23.35C90.7 25.15 91.8 27.3 92.4 29.8C93 32.3 93.3 35 93.3 37.9V49C93.3 51.9 93 54.6 92.4 57.1C91.8 59.5 90.7 61.6 89.1 63.4C87.5 65.1 85.2 66.45 82.2 67.45C79.3 68.45 75.5 68.95 70.8 68.95ZM39.9 67.45H70.8C75.2 67.45 78.75 67 81.45 66.1C84.25 65.2 86.4 63.95 87.9 62.35C89.4 60.65 90.4 58.7 90.9 56.5C91.5 54.2 91.8 51.7 91.8 49V37.9C91.8 35.2 91.5 32.7 90.9 30.4C90.4 28.1 89.4 26.1 87.9 24.4C86.4 22.7 84.25 21.4 81.45 20.5C78.75 19.5 75.2 19 70.8 19H39.9V67.45ZM55.35 32.05H68.85C71.75 32.05 73.65 32.8 74.55 34.3C75.45 35.8 75.9 37.5 75.9 39.4V47.35C75.9 49.25 75.45 50.95 74.55 52.45C73.65 53.95 71.75 54.7 68.85 54.7H55.35V32.05ZM203.584 122.65C200.084 125.65 195.184 127.95 188.884 129.55C182.584 131.25 174.484 132.1 164.584 132.1C154.784 132.1 146.734 131.05 140.434 128.95C134.234 126.95 129.334 124.25 125.734 120.85C122.234 117.45 119.784 113.55 118.384 109.15C117.084 104.75 116.434 100.2 116.434 95.5V48.85C116.434 44.25 117.084 40 118.384 36.1C119.684 32.1 122.034 28.7 125.434 25.9L144.934 9.69999C148.434 6.7 153.284 4.4 159.484 2.79999C165.784 1.09999 173.934 0.24999 183.934 0.24999C193.734 0.24999 201.734 1.04999 207.934 2.65C214.234 4.24999 219.134 6.49999 222.634 9.4C226.234 12.2 228.684 15.6 229.984 19.6C231.284 23.5 231.934 27.8 231.934 32.5V83.65C231.934 88.25 231.284 92.5 229.984 96.4C228.684 100.3 226.334 103.65 222.934 106.45L203.584 122.65ZM230.434 83.65V32.5C230.434 27.9 229.734 23.75 228.334 20.05C227.034 16.25 224.634 13 221.134 10.3C217.734 7.59999 212.984 5.49999 206.884 4C200.884 2.5 193.234 1.75 183.934 1.75C174.634 1.75 166.934 2.5 160.834 4C154.734 5.49999 149.934 7.59999 146.434 10.3C143.034 13 140.634 16.25 139.234 20.05C137.934 23.75 137.284 27.9 137.284 32.5V83.65C137.284 88.25 137.934 92.45 139.234 96.25C140.634 99.95 143.034 103.15 146.434 105.85C149.934 108.45 154.734 110.5 160.834 112C166.934 113.5 174.634 114.25 183.934 114.25C193.234 114.25 200.884 113.5 206.884 112C212.984 110.5 217.734 108.45 221.134 105.85C224.634 103.15 227.034 99.95 228.334 96.25C229.734 92.45 230.434 88.25 230.434 83.65ZM214.084 80.2C214.084 86.2 211.934 91.1 207.634 94.9C203.334 98.6 195.334 100.45 183.634 100.45C171.934 100.45 163.984 98.6 159.784 94.9C155.584 91.1 153.484 86.2 153.484 80.2V35.95C153.484 29.95 155.584 25.1 159.784 21.4C163.984 17.6 171.934 15.7 183.634 15.7C195.334 15.7 203.334 17.6 207.634 21.4C211.934 25.1 214.084 29.95 214.084 35.95V80.2ZM154.984 80.2C154.984 85.8 156.984 90.35 160.984 93.85C164.984 97.25 172.534 98.95 183.634 98.95C194.734 98.95 202.334 97.25 206.434 93.85C210.534 90.35 212.584 85.8 212.584 80.2V35.95C212.584 30.35 210.534 25.85 206.434 22.45C202.334 18.95 194.734 17.2 183.634 17.2C172.534 17.2 164.984 18.95 160.984 22.45C156.984 25.85 154.984 30.35 154.984 35.95V80.2ZM171.334 78.25V37.9C171.334 36 172.084 34.4 173.584 33.1C175.084 31.7 178.534 31 183.934 31C189.334 31 192.784 31.7 194.284 33.1C195.784 34.4 196.534 36 196.534 37.9V78.25C196.534 80.25 195.784 81.95 194.284 83.35C192.784 84.65 189.334 85.3 183.934 85.3C178.534 85.3 175.084 84.65 173.584 83.35C172.084 81.95 171.334 80.25 171.334 78.25ZM172.834 78.25C172.834 79.25 173.034 80.15 173.434 80.95C173.834 81.65 174.584 82.25 175.684 82.75V54.25C175.684 53.25 175.484 52.4 175.084 51.7C174.684 50.9 173.934 50.3 172.834 49.9V78.25ZM314.871 19H282.171V62.35H314.871C321.071 62.35 325.221 60.85 327.321 57.85C329.421 54.85 330.471 50.6 330.471 45.1V34.6C330.471 30 329.171 26.25 326.571 23.35C324.071 20.45 320.171 19 314.871 19ZM298.371 31H309.621C312.221 31 313.971 31.7 314.871 33.1C315.771 34.4 316.221 36.05 316.221 38.05V43.15C316.221 45.15 315.771 46.85 314.871 48.25C313.971 49.55 312.221 50.2 309.621 50.2H298.371V31ZM282.171 98.5H280.671V17.5H314.871C320.671 17.5 324.971 19.15 327.771 22.45C330.571 25.65 331.971 29.7 331.971 34.6V44.95C331.971 49.55 331.371 53.35 330.171 56.35C328.971 59.25 326.571 61.25 322.971 62.35H324.621C330.721 62.35 335.271 63.75 338.271 66.55C341.271 69.25 342.771 73.2 342.771 78.4V98.5H341.271V78.4C341.271 73.5 339.921 69.85 337.221 67.45C334.521 64.95 330.321 63.7 324.621 63.7H282.171V98.5ZM292.971 112C294.871 112 296.221 111.6 297.021 110.8C297.921 109.9 298.371 108.5 298.371 106.6V77.2H319.371C321.471 77.2 322.921 77.75 323.721 78.85C324.621 79.85 325.071 81.45 325.071 83.65V106.6C325.071 108.5 325.471 109.9 326.271 110.8C327.171 111.6 328.571 112 330.471 112H353.721C355.621 112 356.971 111.6 357.771 110.8C358.671 109.9 359.121 108.5 359.121 106.6V74.8C359.121 68.5 357.421 63.45 354.021 59.65C350.721 55.85 346.371 53.65 340.971 53.05C344.071 51.75 346.221 49.65 347.421 46.75C348.721 43.75 349.371 40.15 349.371 35.95V29.05C349.371 21.65 347.221 15.65 342.921 11.05C338.721 6.35 331.021 4 319.821 4H269.871C267.971 4 266.571 4.45 265.671 5.35C264.871 6.15 264.471 7.5 264.471 9.4V106.6C264.471 108.5 264.871 109.9 265.671 110.8C266.571 111.6 267.971 112 269.871 112H292.971ZM297.771 112.15L278.271 128.35C277.871 128.75 277.221 129.1 276.321 129.4C275.521 129.7 274.621 129.85 273.621 129.85H250.521C248.121 129.85 246.371 129.3 245.271 128.2C244.171 127.1 243.621 125.35 243.621 122.95V25.75C243.621 24.45 243.771 23.35 244.071 22.45C244.471 21.55 245.021 20.8 245.721 20.2L265.071 3.85C265.571 3.45 266.221 3.14999 267.021 2.94999C267.921 2.65 268.871 2.5 269.871 2.5H319.821C331.721 2.5 339.871 5 344.271 10C348.671 14.9 350.871 21.25 350.871 29.05V35.95C350.871 39.65 350.421 42.9 349.521 45.7C348.621 48.4 347.171 50.6 345.171 52.3H345.021C349.721 53.6 353.471 56.2 356.271 60.1C359.171 64 360.621 68.9 360.621 74.8V106.6C360.621 107.9 360.421 109 360.021 109.9C359.721 110.8 359.221 111.55 358.521 112.15L339.021 128.35C338.621 128.75 337.971 129.1 337.071 129.4C336.271 129.7 335.371 129.85 334.371 129.85H311.121C308.721 129.85 306.971 129.3 305.871 128.2C304.771 127.1 304.221 125.35 304.221 122.95V100C304.221 98.4 303.921 97.2 303.321 96.4C302.721 95.5 301.621 95.05 300.021 95.05H299.871V106.6C299.871 107.9 299.671 109 299.271 109.9C298.971 110.8 298.471 111.55 297.771 112.15ZM417.996 129.85H393.696C391.296 129.85 389.546 129.3 388.446 128.2C387.346 127.1 386.796 125.35 386.796 122.95V50.8H366.246C363.846 50.8 362.096 50.25 360.996 49.15C359.896 48.05 359.346 46.3 359.346 43.9V25.75C359.346 24.45 359.496 23.35 359.796 22.45C360.196 21.55 360.746 20.8 361.446 20.2L380.796 3.85C381.296 3.45 381.946 3.14999 382.746 2.94999C383.646 2.65 384.596 2.5 385.596 2.5H464.796C467.196 2.5 468.946 3.05 470.046 4.14999C471.146 5.25 471.696 7 471.696 9.4V27.55C471.696 28.85 471.496 29.95 471.096 30.85C470.796 31.75 470.296 32.5 469.596 33.1L450.096 49.3C449.696 49.7 449.046 50.05 448.146 50.35C447.346 50.65 446.446 50.8 445.446 50.8H444.246V106.6C444.246 107.9 444.046 109 443.646 109.9C443.346 110.8 442.846 111.55 442.146 112.15L422.646 128.35C422.246 128.75 421.596 129.1 420.696 129.4C419.896 129.7 418.996 129.85 417.996 129.85ZM437.346 112C439.246 112 440.596 111.6 441.396 110.8C442.296 109.9 442.746 108.5 442.746 106.6V32.95H464.796C466.696 32.95 468.046 32.55 468.846 31.75C469.746 30.85 470.196 29.45 470.196 27.55V9.4C470.196 7.5 469.746 6.15 468.846 5.35C468.046 4.45 466.696 4 464.796 4H385.596C383.696 4 382.296 4.45 381.396 5.35C380.596 6.15 380.196 7.5 380.196 9.4V27.55C380.196 29.45 380.596 30.85 381.396 31.75C382.296 32.55 383.696 32.95 385.596 32.95H407.646V106.6C407.646 108.5 408.046 109.9 408.846 110.8C409.746 111.6 411.146 112 413.046 112H437.346ZM424.446 98.5V19H393.696V17.5H456.696V19H425.946V98.5H424.446ZM509.025 129.85H485.775C483.375 129.85 481.625 129.3 480.525 128.2C479.425 127.1 478.875 125.35 478.875 122.95V25.75C478.875 24.45 479.025 23.35 479.325 22.45C479.725 21.55 480.275 20.8 480.975 20.2L500.325 3.85C500.825 3.45 501.475 3.14999 502.275 2.94999C503.175 2.65 504.125 2.5 505.125 2.5H572.025C574.425 2.5 576.175 3.05 577.275 4.14999C578.375 5.25 578.925 7 578.925 9.4V27.25C578.925 28.55 578.725 29.65 578.325 30.55C578.025 31.45 577.525 32.2 576.825 32.8L560.025 46.75C562.325 46.75 564.025 47.3 565.125 48.4C566.225 49.5 566.775 51.25 566.775 53.65V71.65C566.775 72.95 566.575 74.05 566.175 74.95C565.875 75.85 565.375 76.6 564.675 77.2L545.175 93.4C544.775 93.8 544.125 94.15 543.225 94.45C542.425 94.75 541.525 94.9 540.525 94.9H535.275V106.6C535.275 107.9 535.075 109 534.675 109.9C534.375 110.8 533.875 111.55 533.175 112.15L513.675 128.35C513.275 128.75 512.625 129.1 511.725 129.4C510.925 129.7 510.025 129.85 509.025 129.85ZM528.375 112C530.275 112 531.625 111.6 532.425 110.8C533.325 109.9 533.775 108.5 533.775 106.6V77.05H559.875C561.775 77.05 563.125 76.65 563.925 75.85C564.825 74.95 565.275 73.55 565.275 71.65V53.65C565.275 51.75 564.825 50.4 563.925 49.6C563.125 48.7 561.775 48.25 559.875 48.25H533.775V32.65H572.025C573.925 32.65 575.275 32.25 576.075 31.45C576.975 30.55 577.425 29.15 577.425 27.25V9.4C577.425 7.5 576.975 6.15 576.075 5.35C575.275 4.45 573.925 4 572.025 4H505.125C503.225 4 501.825 4.45 500.925 5.35C500.125 6.15 499.725 7.5 499.725 9.4V106.6C499.725 108.5 500.125 109.9 500.925 110.8C501.825 111.6 503.225 112 505.125 112H528.375ZM516.075 98.5V17.5H563.925V19H517.575V61.9H551.775V63.4H517.575V98.5H516.075ZM671.309 122.65C667.809 125.65 662.909 127.95 656.609 129.55C650.309 131.25 642.209 132.1 632.309 132.1C622.509 132.1 614.459 131.05 608.159 128.95C601.959 126.95 597.059 124.25 593.459 120.85C589.959 117.45 587.509 113.55 586.109 109.15C584.809 104.75 584.159 100.2 584.159 95.5V48.85C584.159 44.25 584.809 40 586.109 36.1C587.409 32.1 589.759 28.7 593.159 25.9L612.659 9.69999C616.159 6.7 621.009 4.4 627.209 2.79999C633.509 1.09999 641.659 0.24999 651.659 0.24999C661.459 0.24999 669.459 1.04999 675.659 2.65C681.959 4.24999 686.859 6.49999 690.359 9.4C693.959 12.2 696.409 15.6 697.709 19.6C699.009 23.5 699.659 27.8 699.659 32.5V83.65C699.659 88.25 699.009 92.5 697.709 96.4C696.409 100.3 694.059 103.65 690.659 106.45L671.309 122.65ZM698.159 83.65V32.5C698.159 27.9 697.459 23.75 696.059 20.05C694.759 16.25 692.359 13 688.859 10.3C685.459 7.59999 680.709 5.49999 674.609 4C668.609 2.5 660.959 1.75 651.659 1.75C642.359 1.75 634.659 2.5 628.559 4C622.459 5.49999 617.659 7.59999 614.159 10.3C610.759 13 608.359 16.25 606.959 20.05C605.659 23.75 605.009 27.9 605.009 32.5V83.65C605.009 88.25 605.659 92.45 606.959 96.25C608.359 99.95 610.759 103.15 614.159 105.85C617.659 108.45 622.459 110.5 628.559 112C634.659 113.5 642.359 114.25 651.659 114.25C660.959 114.25 668.609 113.5 674.609 112C680.709 110.5 685.459 108.45 688.859 105.85C692.359 103.15 694.759 99.95 696.059 96.25C697.459 92.45 698.159 88.25 698.159 83.65ZM681.809 80.2C681.809 86.2 679.659 91.1 675.359 94.9C671.059 98.6 663.059 100.45 651.359 100.45C639.659 100.45 631.709 98.6 627.509 94.9C623.309 91.1 621.209 86.2 621.209 80.2V35.95C621.209 29.95 623.309 25.1 627.509 21.4C631.709 17.6 639.659 15.7 651.359 15.7C663.059 15.7 671.059 17.6 675.359 21.4C679.659 25.1 681.809 29.95 681.809 35.95V80.2ZM622.709 80.2C622.709 85.8 624.709 90.35 628.709 93.85C632.709 97.25 640.259 98.95 651.359 98.95C662.459 98.95 670.059 97.25 674.159 93.85C678.259 90.35 680.309 85.8 680.309 80.2V35.95C680.309 30.35 678.259 25.85 674.159 22.45C670.059 18.95 662.459 17.2 651.359 17.2C640.259 17.2 632.709 18.95 628.709 22.45C624.709 25.85 622.709 30.35 622.709 35.95V80.2ZM639.059 78.25V37.9C639.059 36 639.809 34.4 641.309 33.1C642.809 31.7 646.259 31 651.659 31C657.059 31 660.509 31.7 662.009 33.1C663.509 34.4 664.259 36 664.259 37.9V78.25C664.259 80.25 663.509 81.95 662.009 83.35C660.509 84.65 657.059 85.3 651.659 85.3C646.259 85.3 642.809 84.65 641.309 83.35C639.809 81.95 639.059 80.25 639.059 78.25ZM640.559 78.25C640.559 79.25 640.759 80.15 641.159 80.95C641.559 81.65 642.309 82.25 643.409 82.75V54.25C643.409 53.25 643.209 52.4 642.809 51.7C642.409 50.9 641.659 50.3 640.559 49.9V78.25ZM794.596 129.85H718.246C715.846 129.85 714.096 129.3 712.996 128.2C711.896 127.1 711.346 125.35 711.346 122.95V25.75C711.346 24.45 711.496 23.35 711.796 22.45C712.196 21.55 712.746 20.8 713.446 20.2L732.796 3.85C733.296 3.45 733.946 3.14999 734.746 2.94999C735.646 2.65 736.596 2.5 737.596 2.5H760.846C763.246 2.5 764.996 3.05 766.096 4.14999C767.196 5.25 767.746 7 767.746 9.4V70.45L768.046 70.15L787.396 53.8C787.896 53.4 788.546 53.1 789.346 52.9C790.246 52.6 791.196 52.45 792.196 52.45H813.946C816.346 52.45 818.096 53 819.196 54.1C820.296 55.2 820.846 56.95 820.846 59.35V106.6C820.846 107.9 820.646 109 820.246 109.9C819.946 110.8 819.446 111.55 818.746 112.15L799.246 128.35C798.846 128.75 798.196 129.1 797.296 129.4C796.496 129.7 795.596 129.85 794.596 129.85ZM813.946 112C815.846 112 817.196 111.6 817.996 110.8C818.896 109.9 819.346 108.5 819.346 106.6V59.35C819.346 57.45 818.896 56.1 817.996 55.3C817.196 54.4 815.846 53.95 813.946 53.95H792.196C790.296 53.95 788.896 54.4 787.996 55.3C787.196 56.1 786.796 57.45 786.796 59.35V83.65H766.246V9.4C766.246 7.5 765.796 6.15 764.896 5.35C764.096 4.45 762.746 4 760.846 4H737.596C735.696 4 734.296 4.45 733.396 5.35C732.596 6.15 732.196 7.5 732.196 9.4V106.6C732.196 108.5 732.596 109.9 733.396 110.8C734.296 111.6 735.696 112 737.596 112H813.946ZM748.546 98.5V17.5H750.046V97H802.246V67.45H803.746V98.5H748.546ZM898.984 129.85H835.084C832.684 129.85 830.934 129.3 829.834 128.2C828.734 127.1 828.184 125.35 828.184 122.95V105.1C828.184 103.8 828.334 102.7 828.634 101.8C829.034 100.9 829.584 100.15 830.284 99.55L848.434 84.25V50.8H835.084C832.684 50.8 830.934 50.25 829.834 49.15C828.734 48.05 828.184 46.3 828.184 43.9V25.75C828.184 24.45 828.334 23.35 828.634 22.45C829.034 21.55 829.584 20.8 830.284 20.2L849.634 3.85C850.134 3.45 850.784 3.14999 851.584 2.94999C852.484 2.65 853.434 2.5 854.434 2.5H918.334C920.734 2.5 922.484 3.05 923.584 4.14999C924.684 5.25 925.234 7 925.234 9.4V27.55C925.234 28.85 925.034 29.95 924.634 30.85C924.334 31.75 923.834 32.5 923.134 33.1L905.284 48.1V81.85H918.334C920.734 81.85 922.484 82.4 923.584 83.5C924.684 84.6 925.234 86.35 925.234 88.75V106.6C925.234 107.9 925.034 109 924.634 109.9C924.334 110.8 923.834 111.55 923.134 112.15L903.634 128.35C903.234 128.75 902.584 129.1 901.684 129.4C900.884 129.7 899.984 129.85 898.984 129.85ZM854.434 112H918.334C920.234 112 921.584 111.6 922.384 110.8C923.284 109.9 923.734 108.5 923.734 106.6V88.75C923.734 86.85 923.284 85.5 922.384 84.7C921.584 83.8 920.234 83.35 918.334 83.35H903.784V32.95H918.334C920.234 32.95 921.584 32.55 922.384 31.75C923.284 30.85 923.734 29.45 923.734 27.55V9.4C923.734 7.5 923.284 6.15 922.384 5.35C921.584 4.45 920.234 4 918.334 4H854.434C852.534 4 851.134 4.45 850.234 5.35C849.434 6.15 849.034 7.5 849.034 9.4V27.55C849.034 29.45 849.434 30.85 850.234 31.75C851.134 32.55 852.534 32.95 854.434 32.95H869.284V83.35H854.434C852.534 83.35 851.134 83.8 850.234 84.7C849.434 85.5 849.034 86.85 849.034 88.75V106.6C849.034 108.5 849.434 109.9 850.234 110.8C851.134 111.6 852.534 112 854.434 112ZM910.234 98.5H862.534V97H885.784V19H862.534V17.5H910.234V19H887.284V97H910.234V98.5ZM1021.85 122.65C1018.35 125.65 1013.45 127.95 1007.15 129.55C1000.85 131.25 992.746 132.1 982.846 132.1C973.046 132.1 964.996 131.05 958.696 128.95C952.496 126.95 947.596 124.25 943.996 120.85C940.496 117.45 938.046 113.55 936.646 109.15C935.346 104.75 934.696 100.2 934.696 95.5V48.85C934.696 44.25 935.346 40 936.646 36.1C937.946 32.1 940.296 28.7 943.696 25.9L963.196 9.69999C966.696 6.7 971.546 4.4 977.746 2.79999C984.046 1.09999 992.196 0.24999 1002.2 0.24999C1012 0.24999 1020 1.04999 1026.2 2.65C1032.5 4.24999 1037.4 6.49999 1040.9 9.4C1044.5 12.2 1046.95 15.6 1048.25 19.6C1049.55 23.5 1050.2 27.8 1050.2 32.5V83.65C1050.2 88.25 1049.55 92.5 1048.25 96.4C1046.95 100.3 1044.6 103.65 1041.2 106.45L1021.85 122.65ZM1048.7 83.65V32.5C1048.7 27.9 1048 23.75 1046.6 20.05C1045.3 16.25 1042.9 13 1039.4 10.3C1036 7.59999 1031.25 5.49999 1025.15 4C1019.15 2.5 1011.5 1.75 1002.2 1.75C992.896 1.75 985.196 2.5 979.096 4C972.996 5.49999 968.196 7.59999 964.696 10.3C961.296 13 958.896 16.25 957.496 20.05C956.196 23.75 955.546 27.9 955.546 32.5V83.65C955.546 88.25 956.196 92.45 957.496 96.25C958.896 99.95 961.296 103.15 964.696 105.85C968.196 108.45 972.996 110.5 979.096 112C985.196 113.5 992.896 114.25 1002.2 114.25C1011.5 114.25 1019.15 113.5 1025.15 112C1031.25 110.5 1036 108.45 1039.4 105.85C1042.9 103.15 1045.3 99.95 1046.6 96.25C1048 92.45 1048.7 88.25 1048.7 83.65ZM1032.35 80.2C1032.35 86.2 1030.2 91.1 1025.9 94.9C1021.6 98.6 1013.6 100.45 1001.9 100.45C990.196 100.45 982.246 98.6 978.046 94.9C973.846 91.1 971.746 86.2 971.746 80.2V35.95C971.746 29.95 973.846 25.1 978.046 21.4C982.246 17.6 990.196 15.7 1001.9 15.7C1013.6 15.7 1021.6 17.6 1025.9 21.4C1030.2 25.1 1032.35 29.95 1032.35 35.95V80.2ZM973.246 80.2C973.246 85.8 975.246 90.35 979.246 93.85C983.246 97.25 990.796 98.95 1001.9 98.95C1013 98.95 1020.6 97.25 1024.7 93.85C1028.8 90.35 1030.85 85.8 1030.85 80.2V35.95C1030.85 30.35 1028.8 25.85 1024.7 22.45C1020.6 18.95 1013 17.2 1001.9 17.2C990.796 17.2 983.246 18.95 979.246 22.45C975.246 25.85 973.246 30.35 973.246 35.95V80.2ZM989.596 78.25V37.9C989.596 36 990.346 34.4 991.846 33.1C993.346 31.7 996.796 31 1002.2 31C1007.6 31 1011.05 31.7 1012.55 33.1C1014.05 34.4 1014.8 36 1014.8 37.9V78.25C1014.8 80.25 1014.05 81.95 1012.55 83.35C1011.05 84.65 1007.6 85.3 1002.2 85.3C996.796 85.3 993.346 84.65 991.846 83.35C990.346 81.95 989.596 80.25 989.596 78.25ZM991.096 78.25C991.096 79.25 991.296 80.15 991.696 80.95C992.096 81.65 992.846 82.25 993.946 82.75V54.25C993.946 53.25 993.746 52.4 993.346 51.7C992.946 50.9 992.196 50.3 991.096 49.9V78.25Z" fill="#88CDFF"/>
</svg>
