<svg width="480" height="133" viewBox="0 0 480 133" fill="none" xmlns="http://www.w3.org/2000/svg">
<path d="M7.65 129.85C5.25 129.85 3.5 129.3 2.4 128.2C1.3 127.1 0.75 125.35 0.75 122.95V25.75C0.75 24.45 0.9 23.35 1.2 22.45C1.6 21.55 2.15 20.8 2.85 20.2L22.2 3.85C22.7 3.45 23.35 3.14999 24.15 2.94999C25.05 2.65 26 2.5 27 2.5H74.85C85.25 2.5 92.9 4.55 97.8 8.65C102.7 12.65 105.15 18.75 105.15 26.95V34.15C105.15 37.65 104.65 40.65 103.65 43.15C102.75 45.65 101.35 47.65 99.45 49.15L99 49.45C104.4 50.65 108.45 53.25 111.15 57.25C113.85 61.15 115.2 66.6 115.2 73.6V87.4C115.2 91.9 114.55 95.8 113.25 99.1C111.95 102.3 110 105 107.4 107.2L88.05 123.55C85.55 125.65 82.4 127.2 78.6 128.2C74.8 129.3 70.35 129.85 65.25 129.85H7.65ZM84.6 112C94.5 112 101.8 110 106.5 106C111.3 102 113.7 95.8 113.7 87.4V73.6C113.7 66.3 112.15 60.75 109.05 56.95C105.95 53.15 101.2 50.95 94.8 50.35C97.8 49.05 100 47.1 101.4 44.5C102.9 41.8 103.65 38.35 103.65 34.15V26.95C103.65 19.15 101.3 13.4 96.6 9.69999C91.9 5.9 84.65 4 74.85 4H27C25.1 4 23.7 4.45 22.8 5.35C22 6.15 21.6 7.5 21.6 9.4V106.6C21.6 108.5 22 109.9 22.8 110.8C23.7 111.6 25.1 112 27 112H84.6ZM78.6 98.5H38.25V17.5H68.7C72.8 17.5 76.15 17.95 78.75 18.85C81.35 19.65 83.35 20.8 84.75 22.3C86.15 23.7 87.1 25.35 87.6 27.25C88.1 29.15 88.35 31.2 88.35 33.4V43C88.35 46 87.8 48.75 86.7 51.25C85.7 53.75 83.05 55.55 78.75 56.65C82.85 56.65 86.2 57.1 88.8 58C91.4 58.8 93.4 60 94.8 61.6C96.2 63.1 97.1 64.9 97.5 67C98 69.1 98.25 71.4 98.25 73.9V83.5C98.25 85.7 98 87.75 97.5 89.65C97 91.45 96.05 93 94.65 94.3C93.35 95.6 91.4 96.65 88.8 97.45C86.2 98.15 82.8 98.5 78.6 98.5ZM68.7 19H39.75V56.65H68.7C72.8 56.65 76.05 56.3 78.45 55.6C80.85 54.8 82.65 53.8 83.85 52.6C85.15 51.3 85.95 49.85 86.25 48.25C86.65 46.55 86.85 44.8 86.85 43V33.4C86.85 29.4 85.7 26 83.4 23.2C81.1 20.4 76.2 19 68.7 19ZM55.35 29.5H68.1C70 29.5 71.4 30 72.3 31C73.3 32 73.8 33.5 73.8 35.5V39.7C73.8 41.7 73.3 43.2 72.3 44.2C71.4 45.2 70 45.7 68.1 45.7H55.35V29.5ZM78.75 58.15H39.75V97H78.6C86.1 97 91 95.8 93.3 93.4C95.6 90.9 96.75 87.6 96.75 83.5V73.9C96.75 69.4 95.6 65.65 93.3 62.65C91.1 59.65 86.25 58.15 78.75 58.15ZM55.35 68.8H74.85C76.75 68.8 78.15 69.3 79.05 70.3C80.05 71.2 80.55 72.65 80.55 74.65V80.5C80.55 82.5 80.05 84 79.05 85C78.15 86 76.75 86.5 74.85 86.5H55.35V68.8ZM207.779 129.85H131.429C129.029 129.85 127.279 129.3 126.179 128.2C125.079 127.1 124.529 125.35 124.529 122.95V25.75C124.529 24.45 124.679 23.35 124.979 22.45C125.379 21.55 125.929 20.8 126.629 20.2L145.979 3.85C146.479 3.45 147.129 3.14999 147.929 2.94999C148.829 2.65 149.779 2.5 150.779 2.5H174.029C176.429 2.5 178.179 3.05 179.279 4.14999C180.379 5.25 180.929 7 180.929 9.4V70.45L181.229 70.15L200.579 53.8C201.079 53.4 201.729 53.1 202.529 52.9C203.429 52.6 204.379 52.45 205.379 52.45H227.129C229.529 52.45 231.279 53 232.379 54.1C233.479 55.2 234.029 56.95 234.029 59.35V106.6C234.029 107.9 233.829 109 233.429 109.9C233.129 110.8 232.629 111.55 231.929 112.15L212.429 128.35C212.029 128.75 211.379 129.1 210.479 129.4C209.679 129.7 208.779 129.85 207.779 129.85ZM227.129 112C229.029 112 230.379 111.6 231.179 110.8C232.079 109.9 232.529 108.5 232.529 106.6V59.35C232.529 57.45 232.079 56.1 231.179 55.3C230.379 54.4 229.029 53.95 227.129 53.95H205.379C203.479 53.95 202.079 54.4 201.179 55.3C200.379 56.1 199.979 57.45 199.979 59.35V83.65H179.429V9.4C179.429 7.5 178.979 6.15 178.079 5.35C177.279 4.45 175.929 4 174.029 4H150.779C148.879 4 147.479 4.45 146.579 5.35C145.779 6.15 145.379 7.5 145.379 9.4V106.6C145.379 108.5 145.779 109.9 146.579 110.8C147.479 111.6 148.879 112 150.779 112H227.129ZM161.729 98.5V17.5H163.229V97H215.429V67.45H216.929V98.5H161.729ZM329.268 122.65C325.768 125.65 320.868 127.95 314.568 129.55C308.268 131.25 300.168 132.1 290.268 132.1C280.468 132.1 272.418 131.05 266.118 128.95C259.918 126.95 255.018 124.25 251.418 120.85C247.918 117.45 245.468 113.55 244.068 109.15C242.768 104.75 242.118 100.2 242.118 95.5V48.85C242.118 44.25 242.768 40 244.068 36.1C245.368 32.1 247.718 28.7 251.118 25.9L270.618 9.69999C274.118 6.7 278.968 4.4 285.168 2.79999C291.468 1.09999 299.618 0.24999 309.618 0.24999C319.418 0.24999 327.418 1.04999 333.618 2.65C339.918 4.24999 344.818 6.49999 348.318 9.4C351.918 12.2 354.368 15.6 355.668 19.6C356.968 23.5 357.618 27.8 357.618 32.5V83.65C357.618 88.25 356.968 92.5 355.668 96.4C354.368 100.3 352.018 103.65 348.618 106.45L329.268 122.65ZM356.118 83.65V32.5C356.118 27.9 355.418 23.75 354.018 20.05C352.718 16.25 350.318 13 346.818 10.3C343.418 7.59999 338.668 5.49999 332.568 4C326.568 2.5 318.918 1.75 309.618 1.75C300.318 1.75 292.618 2.5 286.518 4C280.418 5.49999 275.618 7.59999 272.118 10.3C268.718 13 266.318 16.25 264.918 20.05C263.618 23.75 262.968 27.9 262.968 32.5V83.65C262.968 88.25 263.618 92.45 264.918 96.25C266.318 99.95 268.718 103.15 272.118 105.85C275.618 108.45 280.418 110.5 286.518 112C292.618 113.5 300.318 114.25 309.618 114.25C318.918 114.25 326.568 113.5 332.568 112C338.668 110.5 343.418 108.45 346.818 105.85C350.318 103.15 352.718 99.95 354.018 96.25C355.418 92.45 356.118 88.25 356.118 83.65ZM339.768 80.2C339.768 86.2 337.618 91.1 333.318 94.9C329.018 98.6 321.018 100.45 309.318 100.45C297.618 100.45 289.668 98.6 285.468 94.9C281.268 91.1 279.168 86.2 279.168 80.2V35.95C279.168 29.95 281.268 25.1 285.468 21.4C289.668 17.6 297.618 15.7 309.318 15.7C321.018 15.7 329.018 17.6 333.318 21.4C337.618 25.1 339.768 29.95 339.768 35.95V80.2ZM280.668 80.2C280.668 85.8 282.668 90.35 286.668 93.85C290.668 97.25 298.218 98.95 309.318 98.95C320.418 98.95 328.018 97.25 332.118 93.85C336.218 90.35 338.268 85.8 338.268 80.2V35.95C338.268 30.35 336.218 25.85 332.118 22.45C328.018 18.95 320.418 17.2 309.318 17.2C298.218 17.2 290.668 18.95 286.668 22.45C282.668 25.85 280.668 30.35 280.668 35.95V80.2ZM297.018 78.25V37.9C297.018 36 297.768 34.4 299.268 33.1C300.768 31.7 304.218 31 309.618 31C315.018 31 318.468 31.7 319.968 33.1C321.468 34.4 322.218 36 322.218 37.9V78.25C322.218 80.25 321.468 81.95 319.968 83.35C318.468 84.65 315.018 85.3 309.618 85.3C304.218 85.3 300.768 84.65 299.268 83.35C297.768 81.95 297.018 80.25 297.018 78.25ZM298.518 78.25C298.518 79.25 298.718 80.15 299.118 80.95C299.518 81.65 300.268 82.25 301.368 82.75V54.25C301.368 53.25 301.168 52.4 300.768 51.7C300.368 50.9 299.618 50.3 298.518 49.9V78.25ZM453.305 129.85H406.055C392.955 129.85 383.255 126.45 376.955 119.65C370.755 112.85 367.655 104.05 367.655 93.25V50.95C367.655 45.45 368.455 40.7 370.055 36.7C371.655 32.7 374.005 29.35 377.105 26.65L396.455 10.3C399.555 7.69999 403.505 5.74999 408.305 4.45C413.205 3.15 418.905 2.5 425.405 2.5H462.905C465.305 2.5 467.055 3.05 468.155 4.14999C469.255 5.25 469.805 7 469.805 9.4V27.55C469.805 28.85 469.605 29.95 469.205 30.85C468.905 31.75 468.405 32.5 467.705 33.1L448.205 49.3C447.805 49.7 447.155 50.05 446.255 50.35C445.455 50.65 444.555 50.8 443.555 50.8H424.055V72.4C424.155 72.2 424.305 72 424.505 71.8C424.805 71.5 425.055 71.25 425.255 71.05L444.605 54.7C445.105 54.3 445.755 54 446.555 53.8C447.455 53.5 448.405 53.35 449.405 53.35H472.655C475.055 53.35 476.805 53.9 477.905 55C479.005 56.1 479.555 57.85 479.555 60.25V106.6C479.555 107.9 479.355 109 478.955 109.9C478.655 110.8 478.155 111.55 477.455 112.15L457.955 128.35C457.555 128.75 456.905 129.1 456.005 129.4C455.205 129.7 454.305 129.85 453.305 129.85ZM472.655 112C474.555 112 475.905 111.6 476.705 110.8C477.605 109.9 478.055 108.5 478.055 106.6V60.25C478.055 58.35 477.605 57 476.705 56.2C475.905 55.3 474.555 54.85 472.655 54.85H449.405C447.505 54.85 446.105 55.3 445.205 56.2C444.405 57 444.005 58.35 444.005 60.25V83.65H429.455C427.155 83.65 425.405 83.05 424.205 81.85C423.105 80.65 422.555 78.8 422.555 76.3V40.45C422.555 37.95 423.305 36.1 424.805 34.9C426.305 33.6 428.605 32.95 431.705 32.95H462.905C464.805 32.95 466.155 32.55 466.955 31.75C467.855 30.85 468.305 29.45 468.305 27.55V9.4C468.305 7.5 467.855 6.15 466.955 5.35C466.155 4.45 464.805 4 462.905 4H425.405C412.905 4 403.605 6.5 397.505 11.5C391.505 16.5 388.505 24.2 388.505 34.6V81.4C388.505 91.8 391.505 99.5 397.505 104.5C403.605 109.5 412.905 112 425.405 112H472.655ZM431.855 98.5C426.355 98.5 421.855 98.15 418.355 97.45C414.855 96.75 412.105 95.65 410.105 94.15C408.105 92.55 406.705 90.55 405.905 88.15C405.205 85.65 404.855 82.65 404.855 79.15V37.15C404.855 30.05 406.455 25 409.655 22C412.855 19 419.255 17.5 428.855 17.5H454.805V19H428.855C420.055 19 414.105 20.4 411.005 23.2C407.905 25.9 406.355 30.55 406.355 37.15V79.15C406.355 85.65 408.055 90.25 411.455 92.95C414.955 95.65 421.755 97 431.855 97H460.205V68.35H461.705V98.5H431.855Z" fill="#88CDFF"/>
</svg>
