<svg width="1321" height="107" viewBox="0 0 1321 107" fill="none" xmlns="http://www.w3.org/2000/svg">
<path d="M47.5766 104.28H28.1366C26.2166 104.28 24.8166 103.84 23.9366 102.96C23.0566 102.08 22.6166 100.68 22.6166 98.76V41.04H6.17657C4.25657 41.04 2.85657 40.6 1.97657 39.72C1.09657 38.84 0.656575 37.44 0.656575 35.52V21C0.656575 19.96 0.776575 19.08 1.01657 18.36C1.33657 17.64 1.77657 17.04 2.33657 16.56L17.8166 3.48C18.2166 3.16 18.7366 2.92 19.3766 2.75999C20.0966 2.52 20.8566 2.4 21.6566 2.4H85.0166C86.9366 2.4 88.3366 2.84 89.2166 3.72C90.0966 4.6 90.5366 6 90.5366 7.92V22.44C90.5366 23.48 90.3766 24.36 90.0566 25.08C89.8166 25.8 89.4166 26.4 88.8566 26.88L73.2566 39.84C72.9366 40.16 72.4166 40.44 71.6966 40.68C71.0566 40.92 70.3366 41.04 69.5366 41.04H68.5766V85.68C68.5766 86.72 68.4166 87.6 68.0966 88.32C67.8566 89.04 67.4566 89.64 66.8966 90.12L51.2966 103.08C50.9766 103.4 50.4566 103.68 49.7366 103.92C49.0966 104.16 48.3766 104.28 47.5766 104.28ZM63.0566 90C64.5766 90 65.6566 89.68 66.2966 89.04C67.0166 88.32 67.3766 87.2 67.3766 85.68V26.76H85.0166C86.5366 26.76 87.6166 26.44 88.2566 25.8C88.9766 25.08 89.3366 23.96 89.3366 22.44V7.92C89.3366 6.4 88.9766 5.32 88.2566 4.68C87.6166 3.96 86.5366 3.6 85.0166 3.6H21.6566C20.1366 3.6 19.0166 3.96 18.2966 4.68C17.6566 5.32 17.3366 6.4 17.3366 7.92V22.44C17.3366 23.96 17.6566 25.08 18.2966 25.8C19.0166 26.44 20.1366 26.76 21.6566 26.76H39.2966V85.68C39.2966 87.2 39.6166 88.32 40.2566 89.04C40.9766 89.68 42.0966 90 43.6166 90H63.0566ZM52.7366 79.2V15.6H28.1366V14.4H78.5366V15.6H53.9366V79.2H52.7366ZM177.894 98.52C175.094 100.92 171.174 102.76 166.134 104.04C161.094 105.4 154.614 106.08 146.694 106.08C138.854 106.08 132.414 105.24 127.374 103.56C122.414 101.96 118.494 99.8 115.614 97.08C112.814 94.36 110.854 91.24 109.734 87.72C108.694 84.2 108.174 80.56 108.174 76.8V39.48C108.174 35.8 108.694 32.4 109.734 29.28C110.774 26.08 112.654 23.36 115.374 21.12L130.974 8.16C133.774 5.76 137.654 3.92 142.614 2.63999C147.654 1.27999 154.174 0.599992 162.174 0.599992C170.014 0.599992 176.414 1.23999 181.374 2.52C186.414 3.79999 190.334 5.59999 193.134 7.92C196.014 10.16 197.974 12.88 199.014 16.08C200.054 19.2 200.574 22.64 200.574 26.4V67.32C200.574 71 200.054 74.4 199.014 77.52C197.974 80.64 196.094 83.32 193.374 85.56L177.894 98.52ZM199.374 67.32V26.4C199.374 22.72 198.814 19.4 197.694 16.44C196.654 13.4 194.734 10.8 191.934 8.64C189.214 6.48 185.414 4.8 180.534 3.6C175.734 2.4 169.614 1.8 162.174 1.8C154.734 1.8 148.574 2.4 143.694 3.6C138.814 4.8 134.974 6.48 132.174 8.64C129.454 10.8 127.534 13.4 126.414 16.44C125.374 19.4 124.854 22.72 124.854 26.4V67.32C124.854 71 125.374 74.36 126.414 77.4C127.534 80.36 129.454 82.92 132.174 85.08C134.974 87.16 138.814 88.8 143.694 90C148.574 91.2 154.734 91.8 162.174 91.8C169.614 91.8 175.734 91.2 180.534 90C185.414 88.8 189.214 87.16 191.934 85.08C194.734 82.92 196.654 80.36 197.694 77.4C198.814 74.36 199.374 71 199.374 67.32ZM186.294 64.56C186.294 69.36 184.574 73.28 181.134 76.32C177.694 79.28 171.294 80.76 161.934 80.76C152.574 80.76 146.214 79.28 142.854 76.32C139.494 73.28 137.814 69.36 137.814 64.56V29.16C137.814 24.36 139.494 20.48 142.854 17.52C146.214 14.48 152.574 12.96 161.934 12.96C171.294 12.96 177.694 14.48 181.134 17.52C184.574 20.48 186.294 24.36 186.294 29.16V64.56ZM139.014 64.56C139.014 69.04 140.614 72.68 143.814 75.48C147.014 78.2 153.054 79.56 161.934 79.56C170.814 79.56 176.894 78.2 180.174 75.48C183.454 72.68 185.094 69.04 185.094 64.56V29.16C185.094 24.68 183.454 21.08 180.174 18.36C176.894 15.56 170.814 14.16 161.934 14.16C153.054 14.16 147.014 15.56 143.814 18.36C140.614 21.08 139.014 24.68 139.014 29.16V64.56ZM152.094 63V30.72C152.094 29.2 152.694 27.92 153.894 26.88C155.094 25.76 157.854 25.2 162.174 25.2C166.494 25.2 169.254 25.76 170.454 26.88C171.654 27.92 172.254 29.2 172.254 30.72V63C172.254 64.6 171.654 65.96 170.454 67.08C169.254 68.12 166.494 68.64 162.174 68.64C157.854 68.64 155.094 68.12 153.894 67.08C152.694 65.96 152.094 64.6 152.094 63ZM153.294 63C153.294 63.8 153.454 64.52 153.774 65.16C154.094 65.72 154.694 66.2 155.574 66.6V43.8C155.574 43 155.414 42.32 155.094 41.76C154.774 41.12 154.174 40.64 153.294 40.32V63ZM247.843 104.28H229.243C227.323 104.28 225.923 103.84 225.043 102.96C224.163 102.08 223.723 100.68 223.723 98.76V21C223.723 19.96 223.843 19.08 224.083 18.36C224.403 17.64 224.843 17.04 225.403 16.56L240.883 3.48C241.283 3.16 241.803 2.92 242.443 2.75999C243.163 2.52 243.923 2.4 244.723 2.4H298.243C300.163 2.4 301.563 2.84 302.443 3.72C303.323 4.6 303.763 6 303.763 7.92V22.2C303.763 23.24 303.603 24.12 303.283 24.84C303.043 25.56 302.643 26.16 302.083 26.64L288.643 37.8C290.483 37.8 291.843 38.24 292.723 39.12C293.603 40 294.043 41.4 294.043 43.32V57.72C294.043 58.76 293.883 59.64 293.563 60.36C293.323 61.08 292.923 61.68 292.363 62.16L276.763 75.12C276.443 75.44 275.923 75.72 275.203 75.96C274.563 76.2 273.843 76.32 273.043 76.32H268.843V85.68C268.843 86.72 268.683 87.6 268.363 88.32C268.123 89.04 267.723 89.64 267.163 90.12L251.563 103.08C251.243 103.4 250.723 103.68 250.003 103.92C249.363 104.16 248.643 104.28 247.843 104.28ZM263.323 90C264.843 90 265.923 89.68 266.563 89.04C267.283 88.32 267.643 87.2 267.643 85.68V62.04H288.523C290.043 62.04 291.123 61.72 291.763 61.08C292.483 60.36 292.843 59.24 292.843 57.72V43.32C292.843 41.8 292.483 40.72 291.763 40.08C291.123 39.36 290.043 39 288.523 39H267.643V26.52H298.243C299.763 26.52 300.843 26.2 301.483 25.56C302.203 24.84 302.563 23.72 302.563 22.2V7.92C302.563 6.4 302.203 5.32 301.483 4.68C300.843 3.96 299.763 3.6 298.243 3.6H244.723C243.203 3.6 242.083 3.96 241.363 4.68C240.723 5.32 240.403 6.4 240.403 7.92V85.68C240.403 87.2 240.723 88.32 241.363 89.04C242.083 89.68 243.203 90 244.723 90H263.323ZM253.483 79.2V14.4H291.763V15.6H254.683V49.92H282.043V51.12H254.683V79.2H253.483ZM361.336 106.08C353.576 106.08 347.176 105.24 342.136 103.56C337.176 101.96 333.296 99.8 330.496 97.08C327.696 94.36 325.736 91.24 324.616 87.72C323.576 84.2 323.056 80.56 323.056 76.8V21C323.056 19.96 323.176 19.08 323.416 18.36C323.736 17.64 324.176 17.04 324.736 16.56L340.216 3.48C340.616 3.16 341.136 2.92 341.776 2.75999C342.496 2.52 343.256 2.4 344.056 2.4H362.896C364.816 2.4 366.216 2.84 367.096 3.72C367.976 4.6 368.416 6 368.416 7.92V62.64C368.416 63.36 368.536 64.04 368.776 64.68C369.016 65.24 369.536 65.68 370.336 66V21C370.336 19.96 370.456 19.08 370.696 18.36C370.936 17.64 371.296 17.08 371.776 16.68L371.896 16.56L387.496 3.48C387.896 3.16 388.416 2.92 389.056 2.75999C389.696 2.52 390.456 2.4 391.336 2.4H409.576C411.496 2.4 412.896 2.84 413.776 3.72C414.656 4.6 415.096 6 415.096 7.92V67.32C415.096 71 414.576 74.4 413.536 77.52C412.496 80.64 410.616 83.32 407.896 85.56L392.296 98.52C389.496 100.92 385.616 102.76 380.656 104.04C375.696 105.4 369.256 106.08 361.336 106.08ZM413.896 67.32V7.92C413.896 6.4 413.536 5.32 412.816 4.68C412.176 3.96 411.096 3.6 409.576 3.6H391.336C389.816 3.6 388.696 3.96 387.976 4.68C387.336 5.32 387.016 6.4 387.016 7.92V62.64C387.016 64.24 386.416 65.6 385.216 66.72C384.016 67.76 381.296 68.28 377.056 68.28C372.896 68.28 370.216 67.76 369.016 66.72C367.816 65.6 367.216 64.24 367.216 62.64V7.92C367.216 6.4 366.856 5.32 366.136 4.68C365.496 3.96 364.416 3.6 362.896 3.6H344.056C342.536 3.6 341.416 3.96 340.696 4.68C340.056 5.32 339.736 6.4 339.736 7.92V67.32C339.736 71 340.256 74.36 341.296 77.4C342.416 80.36 344.336 82.92 347.056 85.08C349.856 87.16 353.656 88.8 358.456 90C363.256 91.2 369.376 91.8 376.816 91.8C384.256 91.8 390.376 91.2 395.176 90C399.976 88.8 403.736 87.16 406.456 85.08C409.256 82.92 411.176 80.36 412.216 77.4C413.336 74.36 413.896 71 413.896 67.32ZM352.936 14.4H354.136V64.44C354.136 68.92 355.696 72.56 358.816 75.36C362.016 78.08 368.056 79.44 376.936 79.44C385.816 79.44 391.856 78.08 395.056 75.36C398.256 72.56 399.856 68.92 399.856 64.44V14.4H401.056V64.44C401.056 69.24 399.376 73.16 396.016 76.2C392.656 79.16 386.296 80.64 376.936 80.64C367.576 80.64 361.216 79.16 357.856 76.2C354.576 73.16 352.936 69.24 352.936 64.44V14.4ZM467.021 104.28H442.781C440.861 104.28 439.461 103.84 438.581 102.96C437.701 102.08 437.261 100.68 437.261 98.76V74.4C437.261 73.36 437.381 72.48 437.621 71.76C437.941 70.96 438.341 70.36 438.821 69.96L454.421 56.88C454.821 56.56 455.341 56.32 455.981 56.16C456.621 55.92 457.381 55.8 458.261 55.8H482.501C484.421 55.8 485.821 56.24 486.701 57.12C487.581 57.92 488.021 59.32 488.021 61.32V85.68C488.021 86.72 487.861 87.6 487.541 88.32C487.301 89.04 486.901 89.64 486.341 90.12L470.741 103.08C470.421 103.4 469.901 103.68 469.181 103.92C468.541 104.16 467.821 104.28 467.021 104.28ZM482.501 90C484.021 90 485.101 89.68 485.741 89.04C486.461 88.32 486.821 87.2 486.821 85.68V61.32C486.821 59.8 486.461 58.72 485.741 58.08C485.101 57.36 484.021 57 482.501 57H458.261C456.741 57 455.621 57.36 454.901 58.08C454.261 58.72 453.941 59.8 453.941 61.32V85.68C453.941 87.2 454.261 88.32 454.901 89.04C455.621 89.68 456.741 90 458.261 90H482.501ZM469.781 79.2V67.8H470.981V79.2H469.781ZM579.866 97.92C577.386 100 574.226 101.56 570.386 102.6C566.546 103.72 562.026 104.28 556.826 104.28H516.386C514.466 104.28 513.066 103.84 512.186 102.96C511.306 102.08 510.866 100.68 510.866 98.76V21C510.866 19.96 510.986 19.08 511.226 18.36C511.546 17.64 511.986 17.04 512.546 16.56L528.026 3.48C528.426 3.16 528.946 2.92 529.586 2.75999C530.306 2.52 531.066 2.4 531.866 2.4H572.306C582.786 2.4 590.506 4.52 595.466 8.75999C600.506 13 603.026 19.44 603.026 28.08V65.52C603.026 69.84 602.386 73.64 601.106 76.92C599.826 80.12 597.946 82.8 595.466 84.96L579.866 97.92ZM572.306 90C582.306 90 589.706 88 594.506 84C599.386 80 601.826 73.84 601.826 65.52V28.08C601.826 19.76 599.386 13.6 594.506 9.6C589.706 5.6 582.306 3.6 572.306 3.6H531.866C530.346 3.6 529.226 3.96 528.506 4.68C527.866 5.32 527.546 6.4 527.546 7.92V85.68C527.546 87.2 527.866 88.32 528.506 89.04C529.226 89.68 530.346 90 531.866 90H572.306ZM540.626 79.2V14.4H569.666C573.746 14.4 577.026 14.84 579.506 15.72C582.066 16.6 584.026 17.8 585.386 19.32C586.746 20.76 587.666 22.52 588.146 24.6C588.626 26.6 588.866 28.76 588.866 31.08V62.88C588.866 65.2 588.626 67.36 588.146 69.36C587.746 71.36 586.866 73.08 585.506 74.52C584.146 75.96 582.186 77.12 579.626 78C577.066 78.8 573.746 79.2 569.666 79.2H540.626ZM569.666 15.6H541.826V78H569.666C573.506 78 576.586 77.64 578.906 76.92C581.306 76.12 583.146 75.08 584.426 73.8C585.706 72.44 586.546 70.84 586.946 69C587.426 67.08 587.666 65.04 587.666 62.88V31.08C587.666 28.92 587.426 26.88 586.946 24.96C586.466 23.04 585.586 21.4 584.306 20.04C583.026 18.68 581.186 17.6 578.786 16.8C576.466 16 573.426 15.6 569.666 15.6ZM554.786 26.52H569.066C570.986 26.52 572.386 27 573.266 27.96C574.226 28.84 574.706 30.28 574.706 32.28V61.44C574.706 63.44 574.226 64.92 573.266 65.88C572.386 66.84 570.986 67.32 569.066 67.32H554.786V26.52ZM558.026 45.36C558.026 44.32 557.866 43.44 557.546 42.72C557.226 42 556.706 41.48 555.986 41.16V66.12H558.026V45.36ZM687.35 104.28H631.67C629.75 104.28 628.35 103.84 627.47 102.96C626.59 102.08 626.15 100.68 626.15 98.76V21C626.15 19.96 626.27 19.08 626.51 18.36C626.83 17.64 627.27 17.04 627.83 16.56L643.31 3.48C643.71 3.16 644.23 2.92 644.87 2.75999C645.59 2.52 646.35 2.4 647.15 2.4H702.83C704.75 2.4 706.15 2.84 707.03 3.72C707.91 4.6 708.35 6 708.35 7.92V21.96C708.35 23 708.19 23.88 707.87 24.6C707.63 25.32 707.23 25.92 706.67 26.4L696.35 34.92C697.15 35.32 697.71 35.92 698.03 36.72C698.43 37.52 698.63 38.56 698.63 39.84V52.68C698.63 53.72 698.47 54.6 698.15 55.32C697.91 56.04 697.51 56.64 696.95 57.12L686.27 66.12H702.83C704.75 66.12 706.15 66.56 707.03 67.44C707.91 68.32 708.35 69.72 708.35 71.64V85.68C708.35 86.72 708.19 87.6 707.87 88.32C707.63 89.04 707.23 89.64 706.67 90.12L691.07 103.08C690.75 103.4 690.23 103.68 689.51 103.92C688.87 104.16 688.15 104.28 687.35 104.28ZM702.83 90C704.35 90 705.43 89.68 706.07 89.04C706.79 88.32 707.15 87.2 707.15 85.68V71.64C707.15 70.12 706.79 69.04 706.07 68.4C705.43 67.68 704.35 67.32 702.83 67.32H669.71V57H693.11C694.63 57 695.71 56.68 696.35 56.04C697.07 55.32 697.43 54.2 697.43 52.68V39.84C697.43 38.32 697.07 37.24 696.35 36.6C695.71 35.88 694.63 35.52 693.11 35.52H669.71V26.28H702.83C704.35 26.28 705.43 25.96 706.07 25.32C706.79 24.6 707.15 23.48 707.15 21.96V7.92C707.15 6.4 706.79 5.32 706.07 4.68C705.43 3.96 704.35 3.6 702.83 3.6H647.15C645.63 3.6 644.51 3.96 643.79 4.68C643.15 5.32 642.83 6.4 642.83 7.92V85.68C642.83 87.2 643.15 88.32 643.79 89.04C644.51 89.68 645.63 90 647.15 90H702.83ZM696.35 78V79.2H655.91V14.4H696.35V15.6H657.11V45.72H686.63V46.92H657.11V78H696.35ZM751.539 104.28C749.699 104.28 748.219 103.92 747.099 103.2C745.979 102.56 745.059 101.36 744.339 99.6L732.579 70.2C731.859 68.36 731.219 66.8 730.659 65.52C730.179 64.16 729.779 62.88 729.459 61.68C729.139 60.4 728.899 59.08 728.739 57.72C728.659 56.28 728.619 54.6 728.619 52.68V21C728.619 19.96 728.739 19.08 728.979 18.36C729.299 17.64 729.739 17.04 730.299 16.56L745.779 3.48C746.179 3.16 746.699 2.92 747.339 2.75999C748.059 2.52 748.819 2.4 749.619 2.4H768.699C770.619 2.4 772.059 2.88 773.019 3.83999C774.059 4.72 774.579 6.08 774.579 7.92V41.04C774.579 41.84 774.659 42.6 774.819 43.32C774.979 44.04 775.179 44.8 775.419 45.6L775.779 46.44V21C775.779 19.96 775.899 19.08 776.139 18.36C776.459 17.64 776.899 17.04 777.459 16.56L792.939 3.48C793.339 3.16 793.859 2.92 794.499 2.75999C795.219 2.52 795.979 2.4 796.779 2.4H815.619C817.619 2.4 819.019 2.84 819.819 3.72C820.699 4.6 821.139 6 821.139 7.92V39.6C821.139 41.52 821.059 43.2 820.899 44.64C820.819 46 820.619 47.32 820.299 48.6C819.979 49.8 819.539 51.08 818.979 52.44C818.499 53.72 817.899 55.28 817.179 57.12L805.419 86.52C805.179 87.24 804.859 87.88 804.459 88.44C804.059 89 803.659 89.44 803.259 89.76L787.779 102.6C787.139 103.16 786.379 103.56 785.499 103.8C784.699 104.12 783.779 104.28 782.739 104.28H751.539ZM798.219 90C799.739 90 800.979 89.72 801.939 89.16C802.979 88.6 803.779 87.56 804.339 86.04L816.099 56.64C816.819 54.88 817.419 53.36 817.899 52.08C818.379 50.72 818.779 49.44 819.099 48.24C819.419 47.04 819.619 45.8 819.699 44.52C819.859 43.16 819.939 41.52 819.939 39.6V7.92C819.939 6.4 819.579 5.32 818.859 4.68C818.219 3.96 817.139 3.6 815.619 3.6H796.779C795.259 3.6 794.139 3.96 793.419 4.68C792.779 5.32 792.459 6.4 792.459 7.92V40.92C792.459 41.72 792.379 42.52 792.219 43.32C792.059 44.12 791.819 44.96 791.499 45.84L785.859 62.76C785.619 63.56 785.339 64.12 785.019 64.44C784.699 64.68 784.219 64.8 783.579 64.8H782.259C781.619 64.8 781.139 64.68 780.819 64.44C780.499 64.12 780.219 63.56 779.979 62.76L774.339 45.96C774.019 45.08 773.779 44.24 773.619 43.44C773.459 42.64 773.379 41.84 773.379 41.04V7.92C773.379 6.4 772.979 5.32 772.179 4.68C771.379 3.96 770.219 3.6 768.699 3.6H749.619C748.099 3.6 746.979 3.96 746.259 4.68C745.619 5.32 745.299 6.4 745.299 7.92V39.6C745.299 41.52 745.339 43.16 745.419 44.52C745.579 45.8 745.819 47.04 746.139 48.24C746.459 49.44 746.859 50.72 747.339 52.08C747.819 53.36 748.419 54.88 749.139 56.64L760.899 86.04C761.459 87.56 762.219 88.6 763.179 89.16C764.219 89.72 765.499 90 767.019 90H798.219ZM758.859 14.4H760.059V40.32C760.059 42.4 760.219 44.4 760.539 46.32C760.859 48.16 761.339 49.88 761.979 51.48L769.899 70.68C770.699 72.76 771.579 74.52 772.539 75.96C773.579 77.32 775.219 78 777.459 78H788.019C790.259 78 791.859 77.32 792.819 75.96C793.859 74.52 794.779 72.76 795.579 70.68L803.499 51.48C804.139 49.88 804.619 48.16 804.939 46.32C805.259 44.4 805.419 42.4 805.419 40.32V14.4H806.619V40.32C806.619 42.56 806.459 44.64 806.139 46.56C805.899 48.4 805.419 50.2 804.699 51.96L796.779 71.16C795.819 73.48 794.739 75.4 793.539 76.92C792.339 78.44 790.499 79.2 788.019 79.2H777.459C774.979 79.2 773.139 78.44 771.939 76.92C770.739 75.4 769.659 73.48 768.699 71.16L760.779 51.96C760.059 50.2 759.539 48.4 759.219 46.56C758.979 44.64 758.859 42.56 758.859 40.32V14.4ZM901.586 104.28C899.666 104.28 898.266 103.84 897.386 102.96C896.506 102.08 896.066 100.68 896.066 98.76V21C896.066 19.96 896.186 19.08 896.426 18.36C896.746 17.64 897.186 17.04 897.746 16.56L913.226 3.48C913.626 3.16 914.146 2.92 914.786 2.75999C915.506 2.52 916.266 2.4 917.066 2.4H955.346C963.666 2.4 969.786 4.04 973.706 7.32C977.626 10.52 979.586 15.4 979.586 21.96V27.72C979.586 30.52 979.186 32.92 978.386 34.92C977.666 36.92 976.546 38.52 975.026 39.72L974.666 39.96C978.986 40.92 982.226 43 984.386 46.2C986.546 49.32 987.626 53.68 987.626 59.28V70.32C987.626 73.92 987.106 77.04 986.066 79.68C985.026 82.24 983.466 84.4 981.386 86.16L965.906 99.24C963.906 100.92 961.386 102.16 958.346 102.96C955.306 103.84 951.746 104.28 947.666 104.28H901.586ZM963.146 90C971.066 90 976.906 88.4 980.666 85.2C984.506 82 986.426 77.04 986.426 70.32V59.28C986.426 53.44 985.186 49 982.706 45.96C980.226 42.92 976.426 41.16 971.306 40.68C973.706 39.64 975.466 38.08 976.586 36C977.786 33.84 978.386 31.08 978.386 27.72V21.96C978.386 15.72 976.506 11.12 972.746 8.16C968.986 5.12 963.186 3.6 955.346 3.6H917.066C915.546 3.6 914.426 3.96 913.706 4.68C913.066 5.32 912.746 6.4 912.746 7.92V85.68C912.746 87.2 913.066 88.32 913.706 89.04C914.426 89.68 915.546 90 917.066 90H963.146ZM958.346 79.2H926.066V14.4H950.426C953.706 14.4 956.386 14.76 958.466 15.48C960.546 16.12 962.146 17.04 963.266 18.24C964.386 19.36 965.146 20.68 965.546 22.2C965.946 23.72 966.146 25.36 966.146 27.12V34.8C966.146 37.2 965.706 39.4 964.826 41.4C964.026 43.4 961.906 44.84 958.466 45.72C961.746 45.72 964.426 46.08 966.506 46.8C968.586 47.44 970.186 48.4 971.306 49.68C972.426 50.88 973.146 52.32 973.466 54C973.866 55.68 974.066 57.52 974.066 59.52V67.2C974.066 68.96 973.866 70.6 973.466 72.12C973.066 73.56 972.306 74.8 971.186 75.84C970.146 76.88 968.586 77.72 966.506 78.36C964.426 78.92 961.706 79.2 958.346 79.2ZM950.426 15.6H927.266V45.72H950.426C953.706 45.72 956.306 45.44 958.226 44.88C960.146 44.24 961.586 43.44 962.546 42.48C963.586 41.44 964.226 40.28 964.466 39C964.786 37.64 964.946 36.24 964.946 34.8V27.12C964.946 23.92 964.026 21.2 962.186 18.96C960.346 16.72 956.426 15.6 950.426 15.6ZM939.746 24H949.946C951.466 24 952.586 24.4 953.306 25.2C954.106 26 954.506 27.2 954.506 28.8V32.16C954.506 33.76 954.106 34.96 953.306 35.76C952.586 36.56 951.466 36.96 949.946 36.96H939.746V24ZM958.466 46.92H927.266V78H958.346C964.346 78 968.266 77.04 970.106 75.12C971.946 73.12 972.866 70.48 972.866 67.2V59.52C972.866 55.92 971.946 52.92 970.106 50.52C968.346 48.12 964.466 46.92 958.466 46.92ZM939.746 55.44H955.346C956.866 55.44 957.986 55.84 958.706 56.64C959.506 57.36 959.906 58.52 959.906 60.12V64.8C959.906 66.4 959.506 67.6 958.706 68.4C957.986 69.2 956.866 69.6 955.346 69.6H939.746V55.44ZM1075.49 104.28H1014.41C1012.49 104.28 1011.09 103.84 1010.21 102.96C1009.33 102.08 1008.89 100.68 1008.89 98.76V21C1008.89 19.96 1009.01 19.08 1009.25 18.36C1009.57 17.64 1010.01 17.04 1010.57 16.56L1026.05 3.48C1026.45 3.16 1026.97 2.92 1027.61 2.75999C1028.33 2.52 1029.09 2.4 1029.89 2.4H1048.49C1050.41 2.4 1051.81 2.84 1052.69 3.72C1053.57 4.6 1054.01 6 1054.01 7.92V56.76L1054.25 56.52L1069.73 43.44C1070.13 43.12 1070.65 42.88 1071.29 42.72C1072.01 42.48 1072.77 42.36 1073.57 42.36H1090.97C1092.89 42.36 1094.29 42.8 1095.17 43.68C1096.05 44.56 1096.49 45.96 1096.49 47.88V85.68C1096.49 86.72 1096.33 87.6 1096.01 88.32C1095.77 89.04 1095.37 89.64 1094.81 90.12L1079.21 103.08C1078.89 103.4 1078.37 103.68 1077.65 103.92C1077.01 104.16 1076.29 104.28 1075.49 104.28ZM1090.97 90C1092.49 90 1093.57 89.68 1094.21 89.04C1094.93 88.32 1095.29 87.2 1095.29 85.68V47.88C1095.29 46.36 1094.93 45.28 1094.21 44.64C1093.57 43.92 1092.49 43.56 1090.97 43.56H1073.57C1072.05 43.56 1070.93 43.92 1070.21 44.64C1069.57 45.28 1069.25 46.36 1069.25 47.88V67.32H1052.81V7.92C1052.81 6.4 1052.45 5.32 1051.73 4.68C1051.09 3.96 1050.01 3.6 1048.49 3.6H1029.89C1028.37 3.6 1027.25 3.96 1026.53 4.68C1025.89 5.32 1025.57 6.4 1025.57 7.92V85.68C1025.57 87.2 1025.89 88.32 1026.53 89.04C1027.25 89.68 1028.37 90 1029.89 90H1090.97ZM1038.65 79.2V14.4H1039.85V78H1081.61V54.36H1082.81V79.2H1038.65ZM1186.48 98.52C1183.68 100.92 1179.76 102.76 1174.72 104.04C1169.68 105.4 1163.2 106.08 1155.28 106.08C1147.44 106.08 1141 105.24 1135.96 103.56C1131 101.96 1127.08 99.8 1124.2 97.08C1121.4 94.36 1119.44 91.24 1118.32 87.72C1117.28 84.2 1116.76 80.56 1116.76 76.8V39.48C1116.76 35.8 1117.28 32.4 1118.32 29.28C1119.36 26.08 1121.24 23.36 1123.96 21.12L1139.56 8.16C1142.36 5.76 1146.24 3.92 1151.2 2.63999C1156.24 1.27999 1162.76 0.599992 1170.76 0.599992C1178.6 0.599992 1185 1.23999 1189.96 2.52C1195 3.79999 1198.92 5.59999 1201.72 7.92C1204.6 10.16 1206.56 12.88 1207.6 16.08C1208.64 19.2 1209.16 22.64 1209.16 26.4V67.32C1209.16 71 1208.64 74.4 1207.6 77.52C1206.56 80.64 1204.68 83.32 1201.96 85.56L1186.48 98.52ZM1207.96 67.32V26.4C1207.96 22.72 1207.4 19.4 1206.28 16.44C1205.24 13.4 1203.32 10.8 1200.52 8.64C1197.8 6.48 1194 4.8 1189.12 3.6C1184.32 2.4 1178.2 1.8 1170.76 1.8C1163.32 1.8 1157.16 2.4 1152.28 3.6C1147.4 4.8 1143.56 6.48 1140.76 8.64C1138.04 10.8 1136.12 13.4 1135 16.44C1133.96 19.4 1133.44 22.72 1133.44 26.4V67.32C1133.44 71 1133.96 74.36 1135 77.4C1136.12 80.36 1138.04 82.92 1140.76 85.08C1143.56 87.16 1147.4 88.8 1152.28 90C1157.16 91.2 1163.32 91.8 1170.76 91.8C1178.2 91.8 1184.32 91.2 1189.12 90C1194 88.8 1197.8 87.16 1200.52 85.08C1203.32 82.92 1205.24 80.36 1206.28 77.4C1207.4 74.36 1207.96 71 1207.96 67.32ZM1194.88 64.56C1194.88 69.36 1193.16 73.28 1189.72 76.32C1186.28 79.28 1179.88 80.76 1170.52 80.76C1161.16 80.76 1154.8 79.28 1151.44 76.32C1148.08 73.28 1146.4 69.36 1146.4 64.56V29.16C1146.4 24.36 1148.08 20.48 1151.44 17.52C1154.8 14.48 1161.16 12.96 1170.52 12.96C1179.88 12.96 1186.28 14.48 1189.72 17.52C1193.16 20.48 1194.88 24.36 1194.88 29.16V64.56ZM1147.6 64.56C1147.6 69.04 1149.2 72.68 1152.4 75.48C1155.6 78.2 1161.64 79.56 1170.52 79.56C1179.4 79.56 1185.48 78.2 1188.76 75.48C1192.04 72.68 1193.68 69.04 1193.68 64.56V29.16C1193.68 24.68 1192.04 21.08 1188.76 18.36C1185.48 15.56 1179.4 14.16 1170.52 14.16C1161.64 14.16 1155.6 15.56 1152.4 18.36C1149.2 21.08 1147.6 24.68 1147.6 29.16V64.56ZM1160.68 63V30.72C1160.68 29.2 1161.28 27.92 1162.48 26.88C1163.68 25.76 1166.44 25.2 1170.76 25.2C1175.08 25.2 1177.84 25.76 1179.04 26.88C1180.24 27.92 1180.84 29.2 1180.84 30.72V63C1180.84 64.6 1180.24 65.96 1179.04 67.08C1177.84 68.12 1175.08 68.64 1170.76 68.64C1166.44 68.64 1163.68 68.12 1162.48 67.08C1161.28 65.96 1160.68 64.6 1160.68 63ZM1161.88 63C1161.88 63.8 1162.04 64.52 1162.36 65.16C1162.68 65.72 1163.28 66.2 1164.16 66.6V43.8C1164.16 43 1164 42.32 1163.68 41.76C1163.36 41.12 1162.76 40.64 1161.88 40.32V63ZM1299.51 104.28H1261.71C1251.23 104.28 1243.47 101.56 1238.43 96.12C1233.47 90.68 1230.99 83.64 1230.99 75V41.16C1230.99 36.76 1231.63 32.96 1232.91 29.76C1234.19 26.56 1236.07 23.88 1238.55 21.72L1254.03 8.64C1256.51 6.55999 1259.67 5 1263.51 3.96C1267.43 2.92 1271.99 2.4 1277.19 2.4H1307.19C1309.11 2.4 1310.51 2.84 1311.39 3.72C1312.27 4.6 1312.71 6 1312.71 7.92V22.44C1312.71 23.48 1312.55 24.36 1312.23 25.08C1311.99 25.8 1311.59 26.4 1311.03 26.88L1295.43 39.84C1295.11 40.16 1294.59 40.44 1293.87 40.68C1293.23 40.92 1292.51 41.04 1291.71 41.04H1276.11V58.32C1276.19 58.16 1276.31 58 1276.47 57.84C1276.71 57.6 1276.91 57.4 1277.07 57.24L1292.55 44.16C1292.95 43.84 1293.47 43.6 1294.11 43.44C1294.83 43.2 1295.59 43.08 1296.39 43.08H1314.99C1316.91 43.08 1318.31 43.52 1319.19 44.4C1320.07 45.28 1320.51 46.68 1320.51 48.6V85.68C1320.51 86.72 1320.35 87.6 1320.03 88.32C1319.79 89.04 1319.39 89.64 1318.83 90.12L1303.23 103.08C1302.91 103.4 1302.39 103.68 1301.67 103.92C1301.03 104.16 1300.31 104.28 1299.51 104.28ZM1314.99 90C1316.51 90 1317.59 89.68 1318.23 89.04C1318.95 88.32 1319.31 87.2 1319.31 85.68V48.6C1319.31 47.08 1318.95 46 1318.23 45.36C1317.59 44.64 1316.51 44.28 1314.99 44.28H1296.39C1294.87 44.28 1293.75 44.64 1293.03 45.36C1292.39 46 1292.07 47.08 1292.07 48.6V67.32H1280.43C1278.59 67.32 1277.19 66.84 1276.23 65.88C1275.35 64.92 1274.91 63.44 1274.91 61.44V32.76C1274.91 30.76 1275.51 29.28 1276.71 28.32C1277.91 27.28 1279.75 26.76 1282.23 26.76H1307.19C1308.71 26.76 1309.79 26.44 1310.43 25.8C1311.15 25.08 1311.51 23.96 1311.51 22.44V7.92C1311.51 6.4 1311.15 5.32 1310.43 4.68C1309.79 3.96 1308.71 3.6 1307.19 3.6H1277.19C1267.19 3.6 1259.75 5.6 1254.87 9.6C1250.07 13.6 1247.67 19.76 1247.67 28.08V65.52C1247.67 73.84 1250.07 80 1254.87 84C1259.75 88 1267.19 90 1277.19 90H1314.99ZM1282.35 79.2C1277.95 79.2 1274.35 78.92 1271.55 78.36C1268.75 77.8 1266.55 76.92 1264.95 75.72C1263.35 74.44 1262.23 72.84 1261.59 70.92C1261.03 68.92 1260.75 66.52 1260.75 63.72V30.12C1260.75 24.44 1262.03 20.4 1264.59 18C1267.15 15.6 1272.27 14.4 1279.95 14.4H1300.71V15.6H1279.95C1272.91 15.6 1268.15 16.72 1265.67 18.96C1263.19 21.12 1261.95 24.84 1261.95 30.12V63.72C1261.95 68.92 1263.31 72.6 1266.03 74.76C1268.83 76.92 1274.27 78 1282.35 78H1305.03V55.08H1306.23V79.2H1282.35Z" fill="#88CDFF"/>
</svg>
