<svg width="1438" height="107" viewBox="0 0 1438 107" fill="none" xmlns="http://www.w3.org/2000/svg">
<path d="M25.0114 104.28H6.41139C4.49139 104.28 3.09139 103.84 2.21139 102.96C1.33139 102.08 0.891394 100.68 0.891394 98.76V21C0.891394 19.96 1.01139 19.08 1.25139 18.36C1.57139 17.64 2.01139 17.04 2.57139 16.56L18.0514 3.48C18.4514 3.16 18.9714 2.92 19.6114 2.75999C20.3314 2.52 21.0914 2.4 21.8914 2.4H58.6114C64.2914 2.4 69.0514 3 72.8914 4.2C76.7314 5.39999 79.7714 7.07999 82.0114 9.24C84.2514 11.4 85.8114 14 86.6914 17.04C87.6514 20.08 88.1314 23.4 88.1314 27V42.36C88.1314 46.2 87.5714 49.72 86.4514 52.92C85.4114 56.04 83.5714 58.72 80.9314 60.96L65.3314 73.92C63.3314 75.6 60.7314 77 57.5314 78.12C54.4114 79.16 50.5714 79.76 46.0114 79.92V85.68C46.0114 86.72 45.8514 87.6 45.5314 88.32C45.2914 89.04 44.8914 89.64 44.3314 90.12L28.7314 103.08C28.4114 103.4 27.8914 103.68 27.1714 103.92C26.5314 104.16 25.8114 104.28 25.0114 104.28ZM40.4914 90C42.0114 90 43.0914 89.68 43.7314 89.04C44.4514 88.32 44.8114 87.2 44.8114 85.68V65.76H58.6114C69.4914 65.76 76.9314 63.6 80.9314 59.28C84.9314 54.96 86.9314 49.32 86.9314 42.36V27C86.9314 20.04 84.9314 14.4 80.9314 10.08C76.9314 5.76 69.4914 3.6 58.6114 3.6H21.8914C20.3714 3.6 19.2514 3.96 18.5314 4.68C17.8914 5.32 17.5714 6.4 17.5714 7.92V85.68C17.5714 87.2 17.8914 88.32 18.5314 89.04C19.2514 89.68 20.3714 90 21.8914 90H40.4914ZM56.9314 55.56H32.2114V79.2H31.0114V14.4H56.9314C60.6914 14.4 63.7314 14.84 66.0514 15.72C68.4514 16.52 70.2914 17.64 71.5714 19.08C72.8514 20.52 73.7314 22.24 74.2114 24.24C74.6914 26.24 74.9314 28.4 74.9314 30.72V39.6C74.9314 41.92 74.6914 44.08 74.2114 46.08C73.7314 48 72.8514 49.68 71.5714 51.12C70.2914 52.48 68.4514 53.56 66.0514 54.36C63.7314 55.16 60.6914 55.56 56.9314 55.56ZM32.2114 54.36H56.9314C60.4514 54.36 63.2914 54 65.4514 53.28C67.6914 52.56 69.4114 51.56 70.6114 50.28C71.8114 48.92 72.6114 47.36 73.0114 45.6C73.4914 43.76 73.7314 41.76 73.7314 39.6V30.72C73.7314 28.56 73.4914 26.56 73.0114 24.72C72.6114 22.88 71.8114 21.28 70.6114 19.92C69.4114 18.56 67.6914 17.52 65.4514 16.8C63.2914 16 60.4514 15.6 56.9314 15.6H32.2114V54.36ZM44.5714 26.04H55.3714C57.6914 26.04 59.2114 26.64 59.9314 27.84C60.6514 29.04 61.0114 30.4 61.0114 31.92V38.28C61.0114 39.8 60.6514 41.16 59.9314 42.36C59.2114 43.56 57.6914 44.16 55.3714 44.16H44.5714V26.04ZM176.959 98.52C174.159 100.92 170.239 102.76 165.199 104.04C160.159 105.4 153.679 106.08 145.759 106.08C137.919 106.08 131.479 105.24 126.439 103.56C121.479 101.96 117.559 99.8 114.679 97.08C111.879 94.36 109.919 91.24 108.799 87.72C107.759 84.2 107.239 80.56 107.239 76.8V39.48C107.239 35.8 107.759 32.4 108.799 29.28C109.839 26.08 111.719 23.36 114.439 21.12L130.039 8.16C132.839 5.76 136.719 3.92 141.679 2.63999C146.719 1.27999 153.239 0.599992 161.239 0.599992C169.079 0.599992 175.479 1.23999 180.439 2.52C185.479 3.79999 189.399 5.59999 192.199 7.92C195.079 10.16 197.039 12.88 198.079 16.08C199.119 19.2 199.639 22.64 199.639 26.4V67.32C199.639 71 199.119 74.4 198.079 77.52C197.039 80.64 195.159 83.32 192.439 85.56L176.959 98.52ZM198.439 67.32V26.4C198.439 22.72 197.879 19.4 196.759 16.44C195.719 13.4 193.799 10.8 190.999 8.64C188.279 6.48 184.479 4.8 179.599 3.6C174.799 2.4 168.679 1.8 161.239 1.8C153.799 1.8 147.639 2.4 142.759 3.6C137.879 4.8 134.039 6.48 131.239 8.64C128.519 10.8 126.599 13.4 125.479 16.44C124.439 19.4 123.919 22.72 123.919 26.4V67.32C123.919 71 124.439 74.36 125.479 77.4C126.599 80.36 128.519 82.92 131.239 85.08C134.039 87.16 137.879 88.8 142.759 90C147.639 91.2 153.799 91.8 161.239 91.8C168.679 91.8 174.799 91.2 179.599 90C184.479 88.8 188.279 87.16 190.999 85.08C193.799 82.92 195.719 80.36 196.759 77.4C197.879 74.36 198.439 71 198.439 67.32ZM185.359 64.56C185.359 69.36 183.639 73.28 180.199 76.32C176.759 79.28 170.359 80.76 160.999 80.76C151.639 80.76 145.279 79.28 141.919 76.32C138.559 73.28 136.879 69.36 136.879 64.56V29.16C136.879 24.36 138.559 20.48 141.919 17.52C145.279 14.48 151.639 12.96 160.999 12.96C170.359 12.96 176.759 14.48 180.199 17.52C183.639 20.48 185.359 24.36 185.359 29.16V64.56ZM138.079 64.56C138.079 69.04 139.679 72.68 142.879 75.48C146.079 78.2 152.119 79.56 160.999 79.56C169.879 79.56 175.959 78.2 179.239 75.48C182.519 72.68 184.159 69.04 184.159 64.56V29.16C184.159 24.68 182.519 21.08 179.239 18.36C175.959 15.56 169.879 14.16 160.999 14.16C152.119 14.16 146.079 15.56 142.879 18.36C139.679 21.08 138.079 24.68 138.079 29.16V64.56ZM151.159 63V30.72C151.159 29.2 151.759 27.92 152.959 26.88C154.159 25.76 156.919 25.2 161.239 25.2C165.559 25.2 168.319 25.76 169.519 26.88C170.719 27.92 171.319 29.2 171.319 30.72V63C171.319 64.6 170.719 65.96 169.519 67.08C168.319 68.12 165.559 68.64 161.239 68.64C156.919 68.64 154.159 68.12 152.959 67.08C151.759 65.96 151.159 64.6 151.159 63ZM152.359 63C152.359 63.8 152.519 64.52 152.839 65.16C153.159 65.72 153.759 66.2 154.639 66.6V43.8C154.639 43 154.479 42.32 154.159 41.76C153.839 41.12 153.239 40.64 152.359 40.32V63ZM279.788 15.6H253.628V50.28H279.788C284.748 50.28 288.068 49.08 289.748 46.68C291.428 44.28 292.268 40.88 292.268 36.48V28.08C292.268 24.4 291.228 21.4 289.148 19.08C287.148 16.76 284.028 15.6 279.788 15.6ZM266.588 25.2H275.588C277.668 25.2 279.068 25.76 279.788 26.88C280.508 27.92 280.868 29.24 280.868 30.84V34.92C280.868 36.52 280.508 37.88 279.788 39C279.068 40.04 277.668 40.56 275.588 40.56H266.588V25.2ZM253.628 79.2H252.428V14.4H279.788C284.428 14.4 287.868 15.72 290.108 18.36C292.348 20.92 293.468 24.16 293.468 28.08V36.36C293.468 40.04 292.988 43.08 292.028 45.48C291.068 47.8 289.148 49.4 286.268 50.28H287.588C292.468 50.28 296.108 51.4 298.508 53.64C300.908 55.8 302.108 58.96 302.108 63.12V79.2H300.908V63.12C300.908 59.2 299.828 56.28 297.668 54.36C295.508 52.36 292.148 51.36 287.588 51.36H253.628V79.2ZM262.268 90C263.788 90 264.868 89.68 265.508 89.04C266.228 88.32 266.588 87.2 266.588 85.68V62.16H283.388C285.068 62.16 286.228 62.6 286.868 63.48C287.588 64.28 287.948 65.56 287.948 67.32V85.68C287.948 87.2 288.268 88.32 288.908 89.04C289.628 89.68 290.748 90 292.268 90H310.868C312.388 90 313.468 89.68 314.108 89.04C314.828 88.32 315.188 87.2 315.188 85.68V60.24C315.188 55.2 313.828 51.16 311.108 48.12C308.468 45.08 304.988 43.32 300.668 42.84C303.148 41.8 304.868 40.12 305.828 37.8C306.868 35.4 307.388 32.52 307.388 29.16V23.64C307.388 17.72 305.668 12.92 302.228 9.24C298.868 5.48 292.708 3.6 283.748 3.6H243.788C242.268 3.6 241.148 3.96 240.428 4.68C239.788 5.32 239.468 6.4 239.468 7.92V85.68C239.468 87.2 239.788 88.32 240.428 89.04C241.148 89.68 242.268 90 243.788 90H262.268ZM266.108 90.12L250.508 103.08C250.188 103.4 249.668 103.68 248.948 103.92C248.308 104.16 247.588 104.28 246.788 104.28H228.308C226.388 104.28 224.988 103.84 224.108 102.96C223.228 102.08 222.788 100.68 222.788 98.76V21C222.788 19.96 222.908 19.08 223.148 18.36C223.468 17.64 223.908 17.04 224.468 16.56L239.948 3.48C240.348 3.16 240.868 2.92 241.508 2.75999C242.228 2.52 242.988 2.4 243.788 2.4H283.748C293.268 2.4 299.788 4.4 303.308 8.4C306.828 12.32 308.588 17.4 308.588 23.64V29.16C308.588 32.12 308.228 34.72 307.508 36.96C306.788 39.12 305.628 40.88 304.028 42.24H303.908C307.668 43.28 310.668 45.36 312.908 48.48C315.228 51.6 316.388 55.52 316.388 60.24V85.68C316.388 86.72 316.228 87.6 315.908 88.32C315.668 89.04 315.268 89.64 314.708 90.12L299.108 103.08C298.788 103.4 298.268 103.68 297.548 103.92C296.908 104.16 296.188 104.28 295.388 104.28H276.788C274.868 104.28 273.468 103.84 272.588 102.96C271.708 102.08 271.268 100.68 271.268 98.76V80.4C271.268 79.12 271.028 78.16 270.548 77.52C270.068 76.8 269.188 76.44 267.908 76.44H267.788V85.68C267.788 86.72 267.628 87.6 267.308 88.32C267.068 89.04 266.668 89.64 266.108 90.12ZM376.088 104.28H356.648C354.728 104.28 353.328 103.84 352.448 102.96C351.568 102.08 351.128 100.68 351.128 98.76V41.04H334.688C332.768 41.04 331.368 40.6 330.488 39.72C329.608 38.84 329.168 37.44 329.168 35.52V21C329.168 19.96 329.288 19.08 329.528 18.36C329.848 17.64 330.288 17.04 330.848 16.56L346.328 3.48C346.728 3.16 347.248 2.92 347.888 2.75999C348.608 2.52 349.368 2.4 350.168 2.4H413.528C415.448 2.4 416.848 2.84 417.728 3.72C418.608 4.6 419.048 6 419.048 7.92V22.44C419.048 23.48 418.888 24.36 418.568 25.08C418.328 25.8 417.928 26.4 417.368 26.88L401.768 39.84C401.448 40.16 400.928 40.44 400.208 40.68C399.568 40.92 398.848 41.04 398.048 41.04H397.088V85.68C397.088 86.72 396.928 87.6 396.608 88.32C396.368 89.04 395.968 89.64 395.408 90.12L379.808 103.08C379.488 103.4 378.968 103.68 378.248 103.92C377.608 104.16 376.888 104.28 376.088 104.28ZM391.568 90C393.088 90 394.168 89.68 394.808 89.04C395.528 88.32 395.888 87.2 395.888 85.68V26.76H413.528C415.048 26.76 416.128 26.44 416.768 25.8C417.488 25.08 417.848 23.96 417.848 22.44V7.92C417.848 6.4 417.488 5.32 416.768 4.68C416.128 3.96 415.048 3.6 413.528 3.6H350.168C348.648 3.6 347.528 3.96 346.808 4.68C346.168 5.32 345.848 6.4 345.848 7.92V22.44C345.848 23.96 346.168 25.08 346.808 25.8C347.528 26.44 348.648 26.76 350.168 26.76H367.808V85.68C367.808 87.2 368.128 88.32 368.768 89.04C369.488 89.68 370.608 90 372.128 90H391.568ZM381.248 79.2V15.6H356.648V14.4H407.048V15.6H382.448V79.2H381.248ZM462.711 104.28H444.111C442.191 104.28 440.791 103.84 439.911 102.96C439.031 102.08 438.591 100.68 438.591 98.76V21C438.591 19.96 438.711 19.08 438.951 18.36C439.271 17.64 439.711 17.04 440.271 16.56L455.751 3.48C456.151 3.16 456.671 2.92 457.311 2.75999C458.031 2.52 458.791 2.4 459.591 2.4H513.111C515.031 2.4 516.431 2.84 517.311 3.72C518.191 4.6 518.631 6 518.631 7.92V22.2C518.631 23.24 518.471 24.12 518.151 24.84C517.911 25.56 517.511 26.16 516.951 26.64L503.511 37.8C505.351 37.8 506.711 38.24 507.591 39.12C508.471 40 508.911 41.4 508.911 43.32V57.72C508.911 58.76 508.751 59.64 508.431 60.36C508.191 61.08 507.791 61.68 507.231 62.16L491.631 75.12C491.311 75.44 490.791 75.72 490.071 75.96C489.431 76.2 488.711 76.32 487.911 76.32H483.711V85.68C483.711 86.72 483.551 87.6 483.231 88.32C482.991 89.04 482.591 89.64 482.031 90.12L466.431 103.08C466.111 103.4 465.591 103.68 464.871 103.92C464.231 104.16 463.511 104.28 462.711 104.28ZM478.191 90C479.711 90 480.791 89.68 481.431 89.04C482.151 88.32 482.511 87.2 482.511 85.68V62.04H503.391C504.911 62.04 505.991 61.72 506.631 61.08C507.351 60.36 507.711 59.24 507.711 57.72V43.32C507.711 41.8 507.351 40.72 506.631 40.08C505.991 39.36 504.911 39 503.391 39H482.511V26.52H513.111C514.631 26.52 515.711 26.2 516.351 25.56C517.071 24.84 517.431 23.72 517.431 22.2V7.92C517.431 6.4 517.071 5.32 516.351 4.68C515.711 3.96 514.631 3.6 513.111 3.6H459.591C458.071 3.6 456.951 3.96 456.231 4.68C455.591 5.32 455.271 6.4 455.271 7.92V85.68C455.271 87.2 455.591 88.32 456.231 89.04C456.951 89.68 458.071 90 459.591 90H478.191ZM468.351 79.2V14.4H506.631V15.6H469.551V49.92H496.911V51.12H469.551V79.2H468.351ZM606.338 98.52C603.538 100.92 599.618 102.76 594.578 104.04C589.538 105.4 583.058 106.08 575.138 106.08C567.298 106.08 560.858 105.24 555.818 103.56C550.858 101.96 546.938 99.8 544.058 97.08C541.258 94.36 539.298 91.24 538.178 87.72C537.138 84.2 536.618 80.56 536.618 76.8V39.48C536.618 35.8 537.138 32.4 538.178 29.28C539.218 26.08 541.098 23.36 543.818 21.12L559.418 8.16C562.218 5.76 566.098 3.92 571.058 2.63999C576.098 1.27999 582.618 0.599992 590.618 0.599992C598.458 0.599992 604.858 1.23999 609.818 2.52C614.858 3.79999 618.778 5.59999 621.578 7.92C624.458 10.16 626.418 12.88 627.458 16.08C628.498 19.2 629.018 22.64 629.018 26.4V67.32C629.018 71 628.498 74.4 627.458 77.52C626.418 80.64 624.538 83.32 621.818 85.56L606.338 98.52ZM627.818 67.32V26.4C627.818 22.72 627.258 19.4 626.138 16.44C625.098 13.4 623.178 10.8 620.378 8.64C617.658 6.48 613.858 4.8 608.978 3.6C604.178 2.4 598.058 1.8 590.618 1.8C583.178 1.8 577.018 2.4 572.138 3.6C567.258 4.8 563.418 6.48 560.618 8.64C557.898 10.8 555.978 13.4 554.858 16.44C553.818 19.4 553.298 22.72 553.298 26.4V67.32C553.298 71 553.818 74.36 554.858 77.4C555.978 80.36 557.898 82.92 560.618 85.08C563.418 87.16 567.258 88.8 572.138 90C577.018 91.2 583.178 91.8 590.618 91.8C598.058 91.8 604.178 91.2 608.978 90C613.858 88.8 617.658 87.16 620.378 85.08C623.178 82.92 625.098 80.36 626.138 77.4C627.258 74.36 627.818 71 627.818 67.32ZM614.738 64.56C614.738 69.36 613.018 73.28 609.578 76.32C606.138 79.28 599.738 80.76 590.378 80.76C581.018 80.76 574.658 79.28 571.298 76.32C567.938 73.28 566.258 69.36 566.258 64.56V29.16C566.258 24.36 567.938 20.48 571.298 17.52C574.658 14.48 581.018 12.96 590.378 12.96C599.738 12.96 606.138 14.48 609.578 17.52C613.018 20.48 614.738 24.36 614.738 29.16V64.56ZM567.458 64.56C567.458 69.04 569.058 72.68 572.258 75.48C575.458 78.2 581.498 79.56 590.378 79.56C599.258 79.56 605.338 78.2 608.618 75.48C611.898 72.68 613.538 69.04 613.538 64.56V29.16C613.538 24.68 611.898 21.08 608.618 18.36C605.338 15.56 599.258 14.16 590.378 14.16C581.498 14.16 575.458 15.56 572.258 18.36C569.058 21.08 567.458 24.68 567.458 29.16V64.56ZM580.538 63V30.72C580.538 29.2 581.138 27.92 582.338 26.88C583.538 25.76 586.298 25.2 590.618 25.2C594.938 25.2 597.698 25.76 598.898 26.88C600.098 27.92 600.698 29.2 600.698 30.72V63C600.698 64.6 600.098 65.96 598.898 67.08C597.698 68.12 594.938 68.64 590.618 68.64C586.298 68.64 583.538 68.12 582.338 67.08C581.138 65.96 580.538 64.6 580.538 63ZM581.738 63C581.738 63.8 581.898 64.52 582.218 65.16C582.538 65.72 583.138 66.2 584.018 66.6V43.8C584.018 43 583.858 42.32 583.538 41.76C583.218 41.12 582.618 40.64 581.738 40.32V63ZM718.768 104.28H657.688C655.768 104.28 654.368 103.84 653.488 102.96C652.608 102.08 652.168 100.68 652.168 98.76V21C652.168 19.96 652.288 19.08 652.528 18.36C652.848 17.64 653.288 17.04 653.848 16.56L669.328 3.48C669.728 3.16 670.248 2.92 670.888 2.75999C671.608 2.52 672.368 2.4 673.168 2.4H691.768C693.688 2.4 695.088 2.84 695.968 3.72C696.848 4.6 697.288 6 697.288 7.92V56.76L697.528 56.52L713.008 43.44C713.408 43.12 713.928 42.88 714.568 42.72C715.288 42.48 716.048 42.36 716.848 42.36H734.248C736.168 42.36 737.568 42.8 738.448 43.68C739.328 44.56 739.768 45.96 739.768 47.88V85.68C739.768 86.72 739.608 87.6 739.288 88.32C739.048 89.04 738.648 89.64 738.088 90.12L722.488 103.08C722.168 103.4 721.648 103.68 720.928 103.92C720.288 104.16 719.568 104.28 718.768 104.28ZM734.248 90C735.768 90 736.848 89.68 737.488 89.04C738.208 88.32 738.568 87.2 738.568 85.68V47.88C738.568 46.36 738.208 45.28 737.488 44.64C736.848 43.92 735.768 43.56 734.248 43.56H716.848C715.328 43.56 714.208 43.92 713.488 44.64C712.848 45.28 712.528 46.36 712.528 47.88V67.32H696.088V7.92C696.088 6.4 695.728 5.32 695.008 4.68C694.368 3.96 693.288 3.6 691.768 3.6H673.168C671.648 3.6 670.528 3.96 669.808 4.68C669.168 5.32 668.848 6.4 668.848 7.92V85.68C668.848 87.2 669.168 88.32 669.808 89.04C670.528 89.68 671.648 90 673.168 90H734.248ZM681.928 79.2V14.4H683.128V78H724.888V54.36H726.088V79.2H681.928ZM816.079 104.28H764.959C763.039 104.28 761.639 103.84 760.759 102.96C759.879 102.08 759.439 100.68 759.439 98.76V84.48C759.439 83.44 759.559 82.56 759.799 81.84C760.119 81.12 760.559 80.52 761.119 80.04L775.639 67.8V41.04H764.959C763.039 41.04 761.639 40.6 760.759 39.72C759.879 38.84 759.439 37.44 759.439 35.52V21C759.439 19.96 759.559 19.08 759.799 18.36C760.119 17.64 760.559 17.04 761.119 16.56L776.599 3.48C776.999 3.16 777.519 2.92 778.159 2.75999C778.879 2.52 779.639 2.4 780.439 2.4H831.559C833.479 2.4 834.879 2.84 835.759 3.72C836.639 4.6 837.079 6 837.079 7.92V22.44C837.079 23.48 836.919 24.36 836.599 25.08C836.359 25.8 835.959 26.4 835.399 26.88L821.119 38.88V65.88H831.559C833.479 65.88 834.879 66.32 835.759 67.2C836.639 68.08 837.079 69.48 837.079 71.4V85.68C837.079 86.72 836.919 87.6 836.599 88.32C836.359 89.04 835.959 89.64 835.399 90.12L819.799 103.08C819.479 103.4 818.959 103.68 818.239 103.92C817.599 104.16 816.879 104.28 816.079 104.28ZM780.439 90H831.559C833.079 90 834.159 89.68 834.799 89.04C835.519 88.32 835.879 87.2 835.879 85.68V71.4C835.879 69.88 835.519 68.8 834.799 68.16C834.159 67.44 833.079 67.08 831.559 67.08H819.919V26.76H831.559C833.079 26.76 834.159 26.44 834.799 25.8C835.519 25.08 835.879 23.96 835.879 22.44V7.92C835.879 6.4 835.519 5.32 834.799 4.68C834.159 3.96 833.079 3.6 831.559 3.6H780.439C778.919 3.6 777.799 3.96 777.079 4.68C776.439 5.32 776.119 6.4 776.119 7.92V22.44C776.119 23.96 776.439 25.08 777.079 25.8C777.799 26.44 778.919 26.76 780.439 26.76H792.319V67.08H780.439C778.919 67.08 777.799 67.44 777.079 68.16C776.439 68.8 776.119 69.88 776.119 71.4V85.68C776.119 87.2 776.439 88.32 777.079 89.04C777.799 89.68 778.919 90 780.439 90ZM825.079 79.2H786.919V78H805.519V15.6H786.919V14.4H825.079V15.6H806.719V78H825.079V79.2ZM928.168 98.52C925.368 100.92 921.448 102.76 916.408 104.04C911.368 105.4 904.888 106.08 896.968 106.08C889.128 106.08 882.688 105.24 877.648 103.56C872.688 101.96 868.768 99.8 865.888 97.08C863.088 94.36 861.128 91.24 860.008 87.72C858.968 84.2 858.448 80.56 858.448 76.8V39.48C858.448 35.8 858.968 32.4 860.008 29.28C861.048 26.08 862.928 23.36 865.648 21.12L881.248 8.16C884.048 5.76 887.928 3.92 892.888 2.63999C897.928 1.27999 904.448 0.599992 912.448 0.599992C920.288 0.599992 926.688 1.23999 931.648 2.52C936.688 3.79999 940.608 5.59999 943.408 7.92C946.288 10.16 948.248 12.88 949.288 16.08C950.328 19.2 950.848 22.64 950.848 26.4V67.32C950.848 71 950.328 74.4 949.288 77.52C948.248 80.64 946.368 83.32 943.648 85.56L928.168 98.52ZM949.648 67.32V26.4C949.648 22.72 949.088 19.4 947.968 16.44C946.928 13.4 945.008 10.8 942.208 8.64C939.488 6.48 935.688 4.8 930.808 3.6C926.008 2.4 919.888 1.8 912.448 1.8C905.008 1.8 898.848 2.4 893.968 3.6C889.088 4.8 885.248 6.48 882.448 8.64C879.728 10.8 877.808 13.4 876.688 16.44C875.648 19.4 875.128 22.72 875.128 26.4V67.32C875.128 71 875.648 74.36 876.688 77.4C877.808 80.36 879.728 82.92 882.448 85.08C885.248 87.16 889.088 88.8 893.968 90C898.848 91.2 905.008 91.8 912.448 91.8C919.888 91.8 926.008 91.2 930.808 90C935.688 88.8 939.488 87.16 942.208 85.08C945.008 82.92 946.928 80.36 947.968 77.4C949.088 74.36 949.648 71 949.648 67.32ZM936.568 64.56C936.568 69.36 934.848 73.28 931.408 76.32C927.968 79.28 921.568 80.76 912.208 80.76C902.848 80.76 896.488 79.28 893.128 76.32C889.768 73.28 888.088 69.36 888.088 64.56V29.16C888.088 24.36 889.768 20.48 893.128 17.52C896.488 14.48 902.848 12.96 912.208 12.96C921.568 12.96 927.968 14.48 931.408 17.52C934.848 20.48 936.568 24.36 936.568 29.16V64.56ZM889.288 64.56C889.288 69.04 890.888 72.68 894.088 75.48C897.288 78.2 903.328 79.56 912.208 79.56C921.088 79.56 927.168 78.2 930.448 75.48C933.728 72.68 935.368 69.04 935.368 64.56V29.16C935.368 24.68 933.728 21.08 930.448 18.36C927.168 15.56 921.088 14.16 912.208 14.16C903.328 14.16 897.288 15.56 894.088 18.36C890.888 21.08 889.288 24.68 889.288 29.16V64.56ZM902.368 63V30.72C902.368 29.2 902.968 27.92 904.168 26.88C905.368 25.76 908.128 25.2 912.448 25.2C916.768 25.2 919.528 25.76 920.728 26.88C921.928 27.92 922.528 29.2 922.528 30.72V63C922.528 64.6 921.928 65.96 920.728 67.08C919.528 68.12 916.768 68.64 912.448 68.64C908.128 68.64 905.368 68.12 904.168 67.08C902.968 65.96 902.368 64.6 902.368 63ZM903.568 63C903.568 63.8 903.728 64.52 904.048 65.16C904.368 65.72 904.968 66.2 905.848 66.6V43.8C905.848 43 905.688 42.32 905.368 41.76C905.048 41.12 904.448 40.64 903.568 40.32V63ZM1081.54 104.28H1030.42C1028.5 104.28 1027.1 103.84 1026.22 102.96C1025.34 102.08 1024.9 100.68 1024.9 98.76V84.48C1024.9 83.44 1025.02 82.56 1025.26 81.84C1025.58 81.12 1026.02 80.52 1026.58 80.04L1041.1 67.8V41.04H1030.42C1028.5 41.04 1027.1 40.6 1026.22 39.72C1025.34 38.84 1024.9 37.44 1024.9 35.52V21C1024.9 19.96 1025.02 19.08 1025.26 18.36C1025.58 17.64 1026.02 17.04 1026.58 16.56L1042.06 3.48C1042.46 3.16 1042.98 2.92 1043.62 2.75999C1044.34 2.52 1045.1 2.4 1045.9 2.4H1097.02C1098.94 2.4 1100.34 2.84 1101.22 3.72C1102.1 4.6 1102.54 6 1102.54 7.92V22.44C1102.54 23.48 1102.38 24.36 1102.06 25.08C1101.82 25.8 1101.42 26.4 1100.86 26.88L1086.58 38.88V65.88H1097.02C1098.94 65.88 1100.34 66.32 1101.22 67.2C1102.1 68.08 1102.54 69.48 1102.54 71.4V85.68C1102.54 86.72 1102.38 87.6 1102.06 88.32C1101.82 89.04 1101.42 89.64 1100.86 90.12L1085.26 103.08C1084.94 103.4 1084.42 103.68 1083.7 103.92C1083.06 104.16 1082.34 104.28 1081.54 104.28ZM1045.9 90H1097.02C1098.54 90 1099.62 89.68 1100.26 89.04C1100.98 88.32 1101.34 87.2 1101.34 85.68V71.4C1101.34 69.88 1100.98 68.8 1100.26 68.16C1099.62 67.44 1098.54 67.08 1097.02 67.08H1085.38V26.76H1097.02C1098.54 26.76 1099.62 26.44 1100.26 25.8C1100.98 25.08 1101.34 23.96 1101.34 22.44V7.92C1101.34 6.4 1100.98 5.32 1100.26 4.68C1099.62 3.96 1098.54 3.6 1097.02 3.6H1045.9C1044.38 3.6 1043.26 3.96 1042.54 4.68C1041.9 5.32 1041.58 6.4 1041.58 7.92V22.44C1041.58 23.96 1041.9 25.08 1042.54 25.8C1043.26 26.44 1044.38 26.76 1045.9 26.76H1057.78V67.08H1045.9C1044.38 67.08 1043.26 67.44 1042.54 68.16C1041.9 68.8 1041.58 69.88 1041.58 71.4V85.68C1041.58 87.2 1041.9 88.32 1042.54 89.04C1043.26 89.68 1044.38 90 1045.9 90ZM1090.54 79.2H1052.38V78H1070.98V15.6H1052.38V14.4H1090.54V15.6H1072.18V78H1090.54V79.2ZM1167.23 104.28H1147.79C1145.87 104.28 1144.47 103.84 1143.59 102.96C1142.71 102.08 1142.27 100.68 1142.27 98.76V41.04H1125.83C1123.91 41.04 1122.51 40.6 1121.63 39.72C1120.75 38.84 1120.31 37.44 1120.31 35.52V21C1120.31 19.96 1120.43 19.08 1120.67 18.36C1120.99 17.64 1121.43 17.04 1121.99 16.56L1137.47 3.48C1137.87 3.16 1138.39 2.92 1139.03 2.75999C1139.75 2.52 1140.51 2.4 1141.31 2.4H1204.67C1206.59 2.4 1207.99 2.84 1208.87 3.72C1209.75 4.6 1210.19 6 1210.19 7.92V22.44C1210.19 23.48 1210.03 24.36 1209.71 25.08C1209.47 25.8 1209.07 26.4 1208.51 26.88L1192.91 39.84C1192.59 40.16 1192.07 40.44 1191.35 40.68C1190.71 40.92 1189.99 41.04 1189.19 41.04H1188.23V85.68C1188.23 86.72 1188.07 87.6 1187.75 88.32C1187.51 89.04 1187.11 89.64 1186.55 90.12L1170.95 103.08C1170.63 103.4 1170.11 103.68 1169.39 103.92C1168.75 104.16 1168.03 104.28 1167.23 104.28ZM1182.71 90C1184.23 90 1185.31 89.68 1185.95 89.04C1186.67 88.32 1187.03 87.2 1187.03 85.68V26.76H1204.67C1206.19 26.76 1207.27 26.44 1207.91 25.8C1208.63 25.08 1208.99 23.96 1208.99 22.44V7.92C1208.99 6.4 1208.63 5.32 1207.91 4.68C1207.27 3.96 1206.19 3.6 1204.67 3.6H1141.31C1139.79 3.6 1138.67 3.96 1137.95 4.68C1137.31 5.32 1136.99 6.4 1136.99 7.92V22.44C1136.99 23.96 1137.31 25.08 1137.95 25.8C1138.67 26.44 1139.79 26.76 1141.31 26.76H1158.95V85.68C1158.95 87.2 1159.27 88.32 1159.91 89.04C1160.63 89.68 1161.75 90 1163.27 90H1182.71ZM1172.39 79.2V15.6H1147.79V14.4H1198.19V15.6H1173.59V79.2H1172.39ZM1290.93 104.28H1235.25C1233.33 104.28 1231.93 103.84 1231.05 102.96C1230.17 102.08 1229.73 100.68 1229.73 98.76V21C1229.73 19.96 1229.85 19.08 1230.09 18.36C1230.41 17.64 1230.85 17.04 1231.41 16.56L1246.89 3.48C1247.29 3.16 1247.81 2.92 1248.45 2.75999C1249.17 2.52 1249.93 2.4 1250.73 2.4H1306.41C1308.33 2.4 1309.73 2.84 1310.61 3.72C1311.49 4.6 1311.93 6 1311.93 7.92V21.96C1311.93 23 1311.77 23.88 1311.45 24.6C1311.21 25.32 1310.81 25.92 1310.25 26.4L1299.93 34.92C1300.73 35.32 1301.29 35.92 1301.61 36.72C1302.01 37.52 1302.21 38.56 1302.21 39.84V52.68C1302.21 53.72 1302.05 54.6 1301.73 55.32C1301.49 56.04 1301.09 56.64 1300.53 57.12L1289.85 66.12H1306.41C1308.33 66.12 1309.73 66.56 1310.61 67.44C1311.49 68.32 1311.93 69.72 1311.93 71.64V85.68C1311.93 86.72 1311.77 87.6 1311.45 88.32C1311.21 89.04 1310.81 89.64 1310.25 90.12L1294.65 103.08C1294.33 103.4 1293.81 103.68 1293.09 103.92C1292.45 104.16 1291.73 104.28 1290.93 104.28ZM1306.41 90C1307.93 90 1309.01 89.68 1309.65 89.04C1310.37 88.32 1310.73 87.2 1310.73 85.68V71.64C1310.73 70.12 1310.37 69.04 1309.65 68.4C1309.01 67.68 1307.93 67.32 1306.41 67.32H1273.29V57H1296.69C1298.21 57 1299.29 56.68 1299.93 56.04C1300.65 55.32 1301.01 54.2 1301.01 52.68V39.84C1301.01 38.32 1300.65 37.24 1299.93 36.6C1299.29 35.88 1298.21 35.52 1296.69 35.52H1273.29V26.28H1306.41C1307.93 26.28 1309.01 25.96 1309.65 25.32C1310.37 24.6 1310.73 23.48 1310.73 21.96V7.92C1310.73 6.4 1310.37 5.32 1309.65 4.68C1309.01 3.96 1307.93 3.6 1306.41 3.6H1250.73C1249.21 3.6 1248.09 3.96 1247.37 4.68C1246.73 5.32 1246.41 6.4 1246.41 7.92V85.68C1246.41 87.2 1246.73 88.32 1247.37 89.04C1248.09 89.68 1249.21 90 1250.73 90H1306.41ZM1299.93 78V79.2H1259.49V14.4H1299.93V15.6H1260.69V45.72H1290.21V46.92H1260.69V78H1299.93ZM1392.92 43.8C1394.36 43.8 1395.4 43.48 1396.04 42.84C1396.68 42.2 1397.68 40.84 1399.04 38.76L1413.68 16.44C1414.16 15.64 1414.68 15.12 1415.24 14.88C1415.88 14.56 1416.52 14.4 1417.16 14.4H1419.2C1420.32 14.4 1421.12 14.72 1421.6 15.36C1422.16 15.92 1422.44 16.84 1422.44 18.12V79.2H1421.24V18.12C1421.24 17.48 1421.08 16.92 1420.76 16.44C1420.52 15.88 1420 15.6 1419.2 15.6H1417.4C1416.84 15.6 1416.36 15.68 1415.96 15.84C1415.56 16 1415.12 16.48 1414.64 17.28L1400 39.36C1398.56 41.52 1397.44 43 1396.64 43.8C1395.92 44.6 1394.68 45 1392.92 45C1391.16 45 1389.88 44.6 1389.08 43.8C1388.36 43 1387.28 41.52 1385.84 39.36L1371.2 17.28C1370.72 16.48 1370.24 16 1369.76 15.84C1369.36 15.68 1368.88 15.6 1368.32 15.6H1366.52C1365.72 15.6 1365.2 15.88 1364.96 16.44C1364.72 16.92 1364.6 17.48 1364.6 18.12V79.2H1363.4V18.12C1363.4 16.84 1363.64 15.92 1364.12 15.36C1364.68 14.72 1365.48 14.4 1366.52 14.4H1368.56C1369.2 14.4 1369.84 14.56 1370.48 14.88C1371.12 15.12 1371.68 15.64 1372.16 16.44L1386.8 38.76C1388.16 40.84 1389.16 42.2 1389.8 42.84C1390.44 43.48 1391.48 43.8 1392.92 43.8ZM1372.88 90C1374.4 90 1375.48 89.68 1376.12 89.04C1376.84 88.32 1377.2 87.2 1377.2 85.68V43.44L1384.28 56.52C1385 57.88 1385.84 58.88 1386.8 59.52C1387.84 60.08 1389.12 60.36 1390.64 60.36H1395.44C1396.96 60.36 1398.2 60.08 1399.16 59.52C1400.2 58.88 1401.08 57.88 1401.8 56.52L1408.88 43.44V85.68C1408.88 87.2 1409.2 88.32 1409.84 89.04C1410.56 89.68 1411.68 90 1413.2 90H1431.68C1433.2 90 1434.28 89.68 1434.92 89.04C1435.64 88.32 1436 87.2 1436 85.68V7.92C1436 6.4 1435.64 5.32 1434.92 4.68C1434.28 3.96 1433.2 3.6 1431.68 3.6H1412.24C1410.96 3.6 1409.88 3.88 1409 4.43999C1408.2 5 1407.44 5.92 1406.72 7.19999L1396.04 26.76C1395.64 27.48 1395.28 28 1394.96 28.32C1394.72 28.64 1394.36 28.8 1393.88 28.8H1392.8C1392.32 28.8 1391.92 28.64 1391.6 28.32C1391.36 28 1391.04 27.48 1390.64 26.76L1379.84 7.19999C1379.12 5.92 1378.32 5 1377.44 4.43999C1376.64 3.88 1375.6 3.6 1374.32 3.6H1355C1353.48 3.6 1352.36 3.96 1351.64 4.68C1351 5.32 1350.68 6.4 1350.68 7.92V85.68C1350.68 87.2 1351 88.32 1351.64 89.04C1352.36 89.68 1353.48 90 1355 90H1372.88ZM1376.72 90.12L1361.12 103.08C1360.8 103.4 1360.28 103.68 1359.56 103.92C1358.92 104.16 1358.2 104.28 1357.4 104.28H1339.52C1337.6 104.28 1336.2 103.84 1335.32 102.96C1334.44 102.08 1334 100.68 1334 98.76V21C1334 19.96 1334.12 19.08 1334.36 18.36C1334.68 17.64 1335.12 17.04 1335.68 16.56L1351.16 3.48C1351.56 3.16 1352.08 2.92 1352.72 2.75999C1353.44 2.52 1354.2 2.4 1355 2.4H1374.32C1375.84 2.4 1377.08 2.72 1378.04 3.35999C1379.08 3.99999 1380.04 5.07999 1380.92 6.59999L1389.08 21.6L1390.16 19.68C1390.48 19.12 1390.8 18.6 1391.12 18.12C1391.52 17.56 1391.92 17.12 1392.32 16.8L1407.8 3.83999C1408.44 3.35999 1409.08 2.99999 1409.72 2.75999C1410.44 2.52 1411.28 2.4 1412.24 2.4H1431.68C1433.6 2.4 1435 2.84 1435.88 3.72C1436.76 4.6 1437.2 6 1437.2 7.92V85.68C1437.2 86.72 1437.04 87.6 1436.72 88.32C1436.48 89.04 1436.08 89.64 1435.52 90.12L1419.92 103.08C1419.6 103.4 1419.08 103.68 1418.36 103.92C1417.72 104.16 1417 104.28 1416.2 104.28H1397.72C1395.72 104.28 1394.28 103.84 1393.4 102.96C1392.6 102.08 1392.2 100.68 1392.2 98.76V67.08L1385.12 72.96C1384.48 73.52 1383.72 73.96 1382.84 74.28C1382.04 74.52 1381.08 74.64 1379.96 74.64H1378.4V85.68C1378.4 86.72 1378.24 87.6 1377.92 88.32C1377.68 89.04 1377.28 89.64 1376.72 90.12Z" fill="#88CDFF"/>
</svg>
