<svg width="1920" height="296" viewBox="0 0 1920 296" fill="none" xmlns="http://www.w3.org/2000/svg">
<g clip-path="url(#clip0)">
<path d="M960 0C432.309 0 4.07248 132.073 0 295.474H1920C1915.93 132.073 1487.69 0 960 0Z" fill="#2F2E41"/>
<path d="M910.413 33.8025C915.641 33.8025 919.88 32.4875 919.88 30.8653C919.88 29.2432 915.641 27.9282 910.413 27.9282C905.184 27.9282 900.945 29.2432 900.945 30.8653C900.945 32.4875 905.184 33.8025 910.413 33.8025Z" fill="#F2F2F2"/>
<path d="M613.12 128.965C615.211 128.965 616.907 128.439 616.907 127.791C616.907 127.142 615.211 126.616 613.12 126.616C611.028 126.616 609.332 127.142 609.332 127.791C609.332 128.439 611.028 128.965 613.12 128.965Z" fill="#F2F2F2"/>
<path d="M1171.73 184.183C1173.82 184.183 1175.51 183.657 1175.51 183.008C1175.51 182.359 1173.82 181.833 1171.73 181.833C1169.64 181.833 1167.94 182.359 1167.94 183.008C1167.94 183.657 1169.64 184.183 1171.73 184.183Z" fill="#F2F2F2"/>
<path d="M185.169 169.497C187.261 169.497 188.956 168.971 188.956 168.322C188.956 167.673 187.261 167.147 185.169 167.147C183.077 167.147 181.382 167.673 181.382 168.322C181.382 168.971 183.077 169.497 185.169 169.497Z" fill="#F2F2F2"/>
<path d="M1662.17 127.791C1664.26 127.791 1665.95 127.265 1665.95 126.616C1665.95 125.967 1664.26 125.441 1662.17 125.441C1660.07 125.441 1658.38 125.967 1658.38 126.616C1658.38 127.265 1660.07 127.791 1662.17 127.791Z" fill="#F2F2F2"/>
<path d="M446.484 140.126C448.576 140.126 450.271 139.6 450.271 138.951C450.271 138.302 448.576 137.776 446.484 137.776C444.392 137.776 442.697 138.302 442.697 138.951C442.697 139.6 444.392 140.126 446.484 140.126Z" fill="#F2F2F2"/>
<path d="M1067.58 116.629C1069.67 116.629 1071.37 116.103 1071.37 115.454C1071.37 114.805 1069.67 114.279 1067.58 114.279C1065.49 114.279 1063.79 114.805 1063.79 115.454C1063.79 116.103 1065.49 116.629 1067.58 116.629Z" fill="#F2F2F2"/>
<path d="M1192.56 32.0406C1194.65 32.0406 1196.34 31.5146 1196.34 30.8658C1196.34 30.2169 1194.65 29.6909 1192.56 29.6909C1190.47 29.6909 1188.77 30.2169 1188.77 30.8658C1188.77 31.5146 1190.47 32.0406 1192.56 32.0406Z" fill="#F2F2F2"/>
<path d="M404.825 169.498H401.038V170.085H404.825V169.498Z" fill="#F2F2F2"/>
<path d="M516.547 79.6216H512.76V80.209H516.547V79.6216Z" fill="#F2F2F2"/>
<path d="M789.223 146.588H785.436V147.175H789.223V146.588Z" fill="#F2F2F2"/>
<path d="M1512.57 172.435H1508.79V173.022H1512.57V172.435Z" fill="#F2F2F2"/>
<path d="M1287.24 82.5586H1283.45V83.146H1287.24V82.5586Z" fill="#F2F2F2"/>
<path d="M432.889 213.634H426.226V295.287H432.889V213.634Z" fill="#3F3D56"/>
<path d="M494.388 199.368C494.812 227.92 430.057 251.16 430.057 251.16C430.057 251.16 364.615 228.106 364.19 199.554C363.766 171.002 428.521 147.763 428.521 147.763C428.521 147.763 493.963 170.816 494.388 199.368Z" fill="#3F3D56"/>
<path d="M350.639 189.428H342V295.288H350.639V189.428Z" fill="#3F3D56"/>
<path d="M430.368 178.247C430.918 215.263 346.967 245.392 346.967 245.392C346.967 245.392 262.124 215.505 261.574 178.488C261.024 141.471 344.975 111.343 344.975 111.343C344.975 111.343 429.818 141.23 430.368 178.247Z" fill="#3F3D56"/>
<path d="M1355.07 213.634H1348.4V295.287H1355.07V213.634Z" fill="#88CDFF"/>
<path d="M1416.56 224.039C1416.99 252.592 1352.23 275.831 1352.23 275.831C1352.23 275.831 1286.79 252.778 1286.37 224.226C1285.94 195.673 1350.7 172.434 1350.7 172.434C1350.7 172.434 1416.14 195.487 1416.56 224.039Z" fill="#3F3D56"/>
<path d="M273.828 213.634H267.165V295.287H273.828V213.634Z" fill="#3F3D56"/>
<path d="M335.326 199.368C335.75 227.92 270.996 251.16 270.996 251.16C270.996 251.16 205.553 228.106 205.129 199.554C204.705 171.002 269.46 147.763 269.46 147.763C269.46 147.763 334.902 170.816 335.326 199.368Z" fill="#3F3D56"/>
<path d="M860.84 213.634H854.176V295.287H860.84V213.634Z" fill="#3F3D56"/>
<path d="M922.338 199.368C922.762 227.92 858.007 251.16 858.007 251.16C858.007 251.16 792.565 228.106 792.141 199.554C791.717 171.002 856.471 147.763 856.471 147.763C856.471 147.763 921.914 170.816 922.338 199.368Z" fill="#3F3D56"/>
<path d="M778.59 189.428H769.95V295.288H778.59V189.428Z" fill="#3F3D56"/>
<path d="M858.319 178.247C858.869 215.263 774.917 245.392 774.917 245.392C774.917 245.392 690.074 215.505 689.524 178.488C688.974 141.471 772.926 111.343 772.926 111.343C772.926 111.343 857.769 141.23 858.319 178.247Z" fill="#3F3D56"/>
<path d="M701.779 213.634H695.115V295.287H701.779V213.634Z" fill="#3F3D56"/>
<path d="M763.277 199.368C763.701 227.92 698.946 251.16 698.946 251.16C698.946 251.16 633.504 228.106 633.079 199.554C632.655 171.002 697.41 147.763 697.41 147.763C697.41 147.763 762.853 170.816 763.277 199.368Z" fill="#3F3D56"/>
<path d="M1398.15 251.66L1286.8 219.898C1286.5 221.326 1286.35 222.768 1286.37 224.226C1286.79 252.778 1352.23 275.831 1352.23 275.831C1371.29 268.518 1386.76 260.373 1398.15 251.66V251.66Z" fill="#88CDFF"/>
<path d="M569.295 288.004C573.11 292.379 586.177 295.088 586.177 295.088C586.177 295.088 593.059 290.705 589.244 286.33C585.429 281.955 572.362 279.245 572.362 279.245C572.362 279.245 565.48 283.629 569.295 288.004Z" fill="#3F3D56"/>
<path d="M574.901 287.064C585.369 290.225 586.648 295.085 586.648 295.085C586.648 295.085 570.954 294.819 560.485 291.658C550.016 288.496 548.738 283.637 548.738 283.637C548.738 283.637 564.432 283.903 574.901 287.064Z" fill="#3F3D56"/>
<path d="M1107.07 288.004C1110.89 292.379 1123.96 295.088 1123.96 295.088C1123.96 295.088 1130.84 290.705 1127.02 286.33C1123.21 281.955 1110.14 279.245 1110.14 279.245C1110.14 279.245 1103.26 283.629 1107.07 288.004Z" fill="#88CDFF"/>
<path d="M1112.68 287.064C1123.15 290.225 1124.43 295.085 1124.43 295.085C1124.43 295.085 1108.73 294.819 1098.26 291.658C1087.79 288.496 1086.52 283.637 1086.52 283.637C1086.52 283.637 1102.21 283.903 1112.68 287.064Z" fill="#88CDFF"/>
<path d="M145.132 288.004C148.947 292.379 162.014 295.088 162.014 295.088C162.014 295.088 168.896 290.705 165.081 286.33C161.266 281.955 148.199 279.245 148.199 279.245C148.199 279.245 141.316 283.629 145.132 288.004Z" fill="#3F3D56"/>
<path d="M150.738 287.064C161.206 290.225 162.485 295.085 162.485 295.085C162.485 295.085 146.791 294.819 136.322 291.658C125.853 288.496 124.574 283.637 124.574 283.637C124.574 283.637 140.269 283.903 150.738 287.064Z" fill="#3F3D56"/>
<path d="M733.448 129.649L916.198 215.214C920.28 210.027 922.342 204.707 922.338 199.368C922.131 185.445 906.464 172.831 890.463 163.559L882.009 164.211L889.96 163.27C880.538 157.759 869.316 152.563 856.471 147.763C856.471 147.763 851.809 149.437 844.997 152.436C820.987 128.276 772.926 111.343 772.926 111.343C757.925 117.043 744.706 123.172 733.448 129.649V129.649Z" fill="#88CDFF"/>
<path d="M1677.04 262.472C1677.35 262.455 1677.66 262.428 1677.97 262.403C1676.97 262.365 1675.96 262.395 1675.01 262.493C1675.68 262.512 1676.37 262.505 1677.04 262.472V262.472Z" fill="#FF6584"/>
<path d="M1697.92 290.51C1698.01 290.537 1698.11 290.565 1698.2 290.592C1698.13 290.559 1698.05 290.528 1697.99 290.495L1697.92 290.51Z" fill="#FF6584"/>
<path d="M1745.03 257.841C1745.03 257.841 1743.3 256.063 1739.57 255.442Z" fill="#FF6584"/>
<path d="M1703.37 233.757C1703.37 233.757 1701.64 231.979 1697.91 231.358Z" fill="#FF6584"/>
<path d="M1752.61 266.065C1752.61 266.065 1750.87 264.287 1747.14 263.667Z" fill="#FF6584"/>
<path d="M1746.93 237.281C1746.93 237.281 1745.19 235.503 1741.46 234.883Z" fill="#FF6584"/>
<path d="M1735.56 247.855C1735.56 247.855 1733.83 246.077 1730.1 245.457Z" fill="#FF6584"/>
<path d="M1791.36 277.221C1791.36 277.221 1795.51 275.883 1795.42 274.569Z" fill="#FF6584"/>
<path opacity="0.1" d="M1095.33 180.247L1095.33 180.246L1054.63 169.995L1054.26 170.02L1037.96 165.962L1037.17 165.899L1038.02 165.811L864.681 122.158L697.277 80L611.977 92.3927L605 92.8157L707.224 135.072L1094.1 295H1551L1095.33 180.247Z" fill="#F2F2F2"/>
<path d="M652.5 124C678.734 124 700 102.734 700 76.5C700 50.2665 678.734 29 652.5 29C626.266 29 605 50.2665 605 76.5C605 102.734 626.266 124 652.5 124Z" fill="#F2F2F2"/>
<path opacity="0.1" d="M1834.4 284.918C1835.84 284.918 1837.23 284.344 1838.25 283.322C1839.27 282.3 1839.85 280.914 1839.85 279.469C1839.85 278.024 1839.27 276.638 1838.25 275.616C1837.23 274.594 1835.84 274.02 1834.4 274.02H1789.59C1791.04 276.91 1791.28 280.256 1790.26 283.322C1789.23 286.387 1787.04 288.922 1784.15 290.367C1784.15 291.812 1784.72 293.198 1785.74 294.22C1786.76 295.241 1788.15 295.816 1789.59 295.816H1834.4C1835.84 295.816 1837.23 295.241 1838.25 294.22C1839.27 293.198 1839.85 291.812 1839.85 290.367C1839.85 288.922 1839.27 287.536 1838.25 286.514C1837.23 285.492 1835.84 284.918 1834.4 284.918Z" fill="#F2F2F2"/>
<path d="M1727.91 273.675C1728.68 303.39 1710.7 295.816 1688.91 295.816C1667.12 295.816 1649.15 299.603 1649 273.675C1648.93 260.907 1666.8 258.129 1688.59 258.129C1710.38 258.129 1727.58 260.911 1727.91 273.675Z" fill="#3F3D56"/>
<path d="M1778.89 285.418C1778.54 285.231 1778.16 285.108 1777.76 285.055C1775.78 284.741 1773.83 284.322 1771.89 283.8C1769.95 283.273 1768.17 282.281 1766.7 280.91C1766.15 280.265 1765.54 279.678 1764.87 279.157C1764.53 278.902 1764.12 278.75 1763.7 278.719C1763.28 278.689 1762.85 278.782 1762.48 278.986C1762.41 279.046 1762.34 279.113 1762.27 279.187C1762 279.008 1761.73 278.829 1761.46 278.651C1760.02 277.702 1758.57 276.763 1757.11 275.836L1757.05 275.798C1757.1 275.569 1757.1 275.335 1757.06 275.106C1756.8 274.353 1756.29 273.715 1755.61 273.307C1757.49 273.289 1759.38 273.117 1761.24 272.92C1763.02 272.95 1764.74 272.278 1766.03 271.05C1766.22 270.837 1766.34 270.565 1766.36 270.277C1766.36 269.689 1765.76 269.304 1765.21 269.081C1764.49 268.785 1763.73 268.563 1762.96 268.418C1762.43 268.343 1761.89 268.232 1761.37 268.086C1760.9 267.916 1760.46 267.704 1760.03 267.452C1759.1 266.942 1758.18 266.433 1757.25 265.924C1756.86 265.732 1756.5 265.481 1756.18 265.178C1755.71 264.679 1755.5 263.974 1755.02 263.484C1754.57 263.032 1752.78 262.438 1752.53 263.363C1752.43 263.729 1752.81 264.133 1752.86 264.542C1752.24 264.153 1751.6 263.801 1750.94 263.486C1750.97 263.405 1751.02 263.33 1751.05 263.246C1747.98 260.783 1745.54 257.624 1743.93 254.029C1744.21 254.035 1744.48 254.053 1744.76 254.051C1745.23 254.094 1745.7 253.979 1746.09 253.725C1746.26 253.576 1746.38 253.393 1746.47 253.188C1746.55 252.983 1746.58 252.762 1746.57 252.542C1746.53 252.102 1746.42 251.672 1746.25 251.267C1745.85 250.055 1745.23 248.932 1744.4 247.961C1743.6 247.189 1742.69 246.543 1741.7 246.042L1741.54 245.953C1741.48 245.748 1741.41 245.542 1741.33 245.342C1740.73 244.099 1740.06 242.895 1739.31 241.739C1738.25 239.801 1737.47 237.726 1736.99 235.572C1736.81 234.26 1736.31 233.013 1735.53 231.944C1734.09 230.352 1731.61 230.392 1729.47 230.633C1728.25 230.77 1727.04 230.954 1725.83 231.142C1725.81 231.112 1725.81 231.078 1725.8 231.048C1725.65 230.763 1725.55 230.45 1725.52 230.129C1725.55 229.866 1725.61 229.607 1725.69 229.355C1725.76 229.044 1725.74 228.72 1725.65 228.415C1725.56 228.11 1725.39 227.834 1725.16 227.611C1725.11 227.562 1725.06 227.508 1725.01 227.455C1725.15 227.14 1725.27 226.823 1725.38 226.502C1725.48 226.384 1725.56 226.246 1725.6 226.098C1725.65 225.95 1725.66 225.794 1725.65 225.639C1725.87 224.863 1725.98 224.061 1725.99 223.255C1725.74 221.473 1725.68 219.67 1725.8 217.875C1725.74 217.431 1725.58 217.006 1725.33 216.632C1725.28 216.572 1725.21 216.545 1725.16 216.491C1725.53 216.002 1725.95 215.559 1726.43 215.172C1727.36 214.452 1728.36 213.819 1729.41 213.283C1729.66 213.145 1730.01 213.046 1730.25 212.887C1730.62 212.949 1731 212.987 1731.37 213C1732.76 213.008 1734.13 212.677 1735.36 212.034C1736.59 211.392 1737.64 210.458 1738.43 209.314C1739.21 208.17 1739.71 206.851 1739.86 205.473C1740.02 204.094 1739.84 202.697 1739.34 201.405C1739.72 201.311 1740.08 201.142 1740.4 200.907C1740.72 200.672 1740.99 200.376 1741.19 200.036C1741.61 199.314 1741.86 198.508 1741.92 197.677C1741.99 197.358 1741.99 197.029 1741.93 196.709C1741.87 196.389 1741.74 196.084 1741.56 195.812C1741.25 195.503 1740.88 195.247 1740.48 195.054C1739.93 194.71 1739.47 194.241 1739.13 193.686C1738.89 193.291 1738.72 192.859 1738.5 192.45C1738.15 191.692 1737.59 191.047 1736.89 190.585C1736.19 190.122 1735.38 189.86 1734.54 189.826C1733.75 189.927 1732.96 190.084 1732.19 190.295C1729.54 190.76 1726.65 189.357 1724.2 190.451C1723.59 190.746 1723.03 191.121 1722.52 191.566C1721.83 192.137 1721.17 192.739 1720.53 193.371C1719.97 193.844 1719.55 194.455 1719.31 195.142C1718.98 196.397 1719.77 197.799 1719.26 198.994C1719.09 199.337 1718.89 199.661 1718.65 199.963C1718.09 200.781 1718.7 203.975 1718.63 204.964C1718.56 205.448 1718.69 205.941 1718.98 206.334C1719.05 206.409 1719.13 206.472 1719.23 206.524C1715.1 207.996 1711.07 209.71 1707.15 211.658C1702.44 213.936 1698.53 217.586 1695.94 222.128C1695.27 223.426 1694.76 224.799 1694.16 226.128C1693.36 227.9 1692.39 229.59 1691.42 231.277C1690.23 233.334 1689.05 235.395 1687.68 237.334C1686.9 238.361 1686.18 239.432 1685.52 240.541C1685.5 240.702 1685.49 240.865 1685.5 241.027C1685.53 241.18 1685.51 241.337 1685.46 241.483C1685.4 241.567 1685.32 241.637 1685.23 241.688C1685.14 241.739 1685.04 241.77 1684.94 241.779L1684.91 241.862C1684.6 242.859 1684.34 243.871 1684.14 244.894C1683.74 246.521 1683.09 248.091 1682.85 249.749C1682.7 249.956 1682.62 250.202 1682.62 250.454C1682.61 250.707 1682.68 250.956 1682.81 251.17C1682.95 251.384 1683.14 251.554 1683.37 251.659C1683.6 251.764 1683.86 251.799 1684.11 251.76C1685.52 252.391 1686.89 253.13 1688.25 253.875C1688.23 253.975 1688.2 254.071 1688.19 254.173C1688.14 255.228 1688.4 256.274 1688.92 257.19C1689.45 258.106 1690.22 258.854 1691.15 259.35C1693.03 260.31 1695.09 260.869 1697.2 260.993C1698.01 261.091 1698.84 261.136 1699.65 261.22C1700.85 261.884 1702.12 262.399 1703.44 262.753C1703.73 262.837 1704.02 262.884 1704.32 262.892C1704.73 262.865 1705.12 262.749 1705.47 262.551C1705.82 262.354 1706.12 262.081 1706.35 261.751C1713.39 262.14 1720.45 261.996 1727.47 261.32C1729.41 260.868 1731.46 261.185 1733.17 262.204C1734.69 263.441 1735 265.635 1736.13 267.238C1736.95 268.226 1737.88 269.127 1738.88 269.924C1740.89 272.047 1742.66 274.377 1744.17 276.875C1745.7 279.398 1747.91 281.438 1750.54 282.757C1751.02 282 1751.71 281.401 1752.52 281.036C1752.73 280.911 1752.93 280.765 1753.14 280.63C1753.42 281.082 1753.74 281.504 1754.11 281.89C1754.38 282.184 1754.65 282.493 1754.9 282.813C1754.89 282.814 1754.89 282.809 1754.88 282.81C1754.51 282.868 1754.39 283.329 1754.35 283.7C1754.18 285.12 1754.02 286.539 1753.86 287.959C1753.8 288.239 1753.82 288.53 1753.92 288.801C1754.09 289.094 1754.36 289.319 1754.68 289.436C1756 290.069 1757.42 290.445 1758.88 290.545C1759.62 290.594 1760.35 290.574 1761.09 290.638C1762.29 290.794 1763.48 291.032 1764.65 291.349C1767.83 292.075 1771.1 292.331 1774.35 292.109C1775.03 292.093 1775.69 291.967 1776.32 291.736C1777.07 291.378 1777.73 290.865 1778.27 290.232C1778.95 289.588 1779.45 288.782 1779.73 287.889C1779.86 287.441 1779.85 286.964 1779.7 286.522C1779.55 286.08 1779.27 285.694 1778.89 285.418Z" fill="#3F3D56"/>
<path d="M1778.89 285.418C1778.54 285.231 1778.16 285.107 1777.76 285.055C1775.78 284.741 1773.83 284.322 1771.89 283.8C1769.95 283.273 1768.17 282.281 1766.7 280.91C1766.15 280.265 1765.54 279.678 1764.87 279.157C1764.53 278.902 1764.12 278.75 1763.7 278.719C1763.28 278.689 1762.85 278.781 1762.48 278.986C1762.41 279.046 1762.34 279.113 1762.27 279.187C1762 279.008 1761.73 278.829 1761.46 278.651C1760.02 277.702 1758.57 276.763 1757.11 275.836L1757.05 275.798C1757.1 275.569 1757.1 275.335 1757.06 275.106C1756.8 274.353 1756.29 273.715 1755.61 273.307C1757.49 273.289 1759.38 273.117 1761.24 272.92C1763.02 272.95 1764.74 272.278 1766.03 271.05C1766.22 270.837 1766.34 270.565 1766.36 270.277C1766.36 269.689 1765.76 269.304 1765.21 269.081C1764.49 268.785 1763.73 268.563 1762.96 268.418C1762.43 268.343 1761.89 268.232 1761.37 268.086C1760.9 267.916 1760.46 267.704 1760.03 267.452C1759.1 266.942 1758.18 266.433 1757.25 265.924C1756.86 265.732 1756.5 265.481 1756.18 265.178C1755.71 264.679 1755.5 263.974 1755.02 263.484C1754.57 263.032 1752.78 262.437 1752.53 263.363C1752.43 263.729 1752.81 264.133 1752.86 264.542C1752.24 264.153 1751.6 263.8 1750.94 263.486C1750.97 263.405 1751.02 263.33 1751.05 263.246C1747.98 260.783 1745.54 257.624 1743.93 254.029C1744.21 254.035 1744.48 254.053 1744.76 254.051C1745.23 254.094 1745.7 253.979 1746.09 253.725C1746.26 253.576 1746.38 253.393 1746.47 253.188C1746.55 252.983 1746.58 252.762 1746.57 252.542C1746.53 252.102 1746.42 251.672 1746.25 251.267C1745.85 250.055 1745.23 248.932 1744.4 247.961C1743.6 247.189 1742.69 246.543 1741.7 246.042L1741.54 245.953C1741.48 245.748 1741.41 245.542 1741.33 245.342C1740.73 244.099 1740.06 242.895 1739.31 241.739C1738.25 239.801 1737.47 237.726 1736.99 235.572C1736.81 234.26 1736.31 233.013 1735.53 231.944C1734.09 230.352 1731.61 230.392 1729.47 230.633C1728.99 230.687 1728.52 230.767 1728.04 230.832C1728.73 231.035 1729.36 231.419 1729.85 231.944C1730.63 233.013 1731.13 234.26 1731.31 235.572C1731.79 237.726 1732.57 239.801 1733.63 241.739C1734.38 242.895 1735.05 244.099 1735.65 245.342C1735.73 245.542 1735.8 245.748 1735.86 245.953L1736.02 246.042C1737.01 246.543 1737.92 247.189 1738.72 247.961C1739.55 248.932 1740.17 250.055 1740.57 251.267C1740.74 251.672 1740.85 252.102 1740.89 252.542C1740.9 252.762 1740.87 252.983 1740.79 253.188C1740.7 253.393 1740.58 253.576 1740.41 253.725C1740.02 253.979 1739.55 254.094 1739.08 254.051C1738.8 254.053 1738.53 254.035 1738.25 254.029C1739.86 257.624 1742.3 260.783 1745.37 263.246C1745.34 263.33 1745.29 263.405 1745.26 263.486C1745.92 263.8 1746.56 264.153 1747.18 264.542C1747.13 264.133 1746.75 263.729 1746.85 263.363C1747.1 262.437 1748.89 263.032 1749.34 263.484C1749.82 263.974 1750.03 264.679 1750.5 265.178C1750.81 265.481 1751.18 265.732 1751.57 265.924C1752.5 266.433 1753.42 266.942 1754.35 267.452C1754.77 267.704 1755.22 267.916 1755.69 268.086C1756.21 268.232 1756.75 268.343 1757.28 268.418C1758.05 268.563 1758.81 268.785 1759.53 269.081C1760.07 269.304 1760.68 269.689 1760.68 270.277C1760.66 270.565 1760.54 270.837 1760.35 271.05C1759.06 272.278 1757.34 272.95 1755.56 272.92C1753.7 273.117 1751.81 273.289 1749.93 273.307C1750.61 273.715 1751.12 274.353 1751.38 275.106C1751.42 275.335 1751.42 275.569 1751.37 275.798L1751.43 275.836C1752.89 276.763 1754.34 277.702 1755.78 278.651C1756.05 278.829 1756.32 279.008 1756.59 279.187C1756.66 279.113 1756.73 279.046 1756.8 278.986C1757.17 278.781 1757.6 278.689 1758.02 278.719C1758.44 278.75 1758.85 278.902 1759.19 279.157C1759.86 279.678 1760.47 280.265 1761.02 280.91C1762.49 282.281 1764.27 283.273 1766.21 283.8C1768.14 284.322 1770.1 284.741 1772.08 285.055C1772.48 285.107 1772.86 285.231 1773.21 285.418C1773.59 285.694 1773.87 286.08 1774.02 286.522C1774.17 286.964 1774.18 287.441 1774.05 287.889C1773.77 288.782 1773.27 289.588 1772.59 290.232C1772.05 290.865 1771.39 291.378 1770.64 291.736C1770.18 291.912 1769.69 292.018 1769.2 292.053C1770.92 292.204 1772.64 292.223 1774.35 292.109C1775.03 292.093 1775.69 291.967 1776.32 291.736C1777.07 291.378 1777.73 290.865 1778.27 290.232C1778.95 289.588 1779.45 288.782 1779.73 287.889C1779.86 287.441 1779.85 286.964 1779.7 286.522C1779.55 286.08 1779.27 285.694 1778.89 285.418V285.418Z" fill="#FF6584"/>
<path d="M1831.97 264.938C1831.97 285.001 1823.03 279.469 1812 279.469C1800.96 279.469 1792.02 285.001 1792.02 264.938C1792.02 244.876 1812 206.817 1812 206.817C1812 206.817 1831.97 244.876 1831.97 264.938Z" fill="#FF6584"/>
<path opacity="0.1" d="M1821.08 272.615C1821.08 281.734 1817.01 279.219 1812 279.219C1806.98 279.219 1802.91 281.734 1802.91 272.615C1802.91 263.495 1812 246.196 1812 246.196C1812 246.196 1821.08 263.495 1821.08 272.615Z" fill="black"/>
<path d="M1837.04 211.332C1837.04 211.332 1841.19 207.016 1841.11 202.782Z" fill="#FF6584"/>
<path d="M1794.5 175.369C1794.5 175.369 1792.77 169.637 1789.04 167.637Z" fill="#FF6584"/>
<path d="M1752.84 97.7314C1752.84 97.7314 1751.11 91.9995 1747.38 90Z" fill="#FF6584"/>
<path d="M1802.08 201.878C1802.08 201.878 1800.34 196.146 1796.61 194.147Z" fill="#FF6584"/>
<path d="M1796.4 109.093C1796.4 109.093 1794.66 103.361 1790.93 101.361Z" fill="#FF6584"/>
<path d="M1833.25 270.033C1833.25 270.033 1837.4 265.717 1837.32 261.483Z" fill="#FF6584"/>
<path d="M1840.83 237.842C1840.83 237.842 1844.98 233.526 1844.89 229.292Z" fill="#FF6584"/>
<path d="M1788.97 232.428L1743.53 247.577L1744.13 249.375L1789.57 234.226L1788.97 232.428Z" fill="#FF6584"/>
<path d="M1785.67 234.235C1787.38 240.902 1784.51 239.309 1781.9 239.85C1779.29 240.39 1779.8 242.795 1776.21 236.193C1773.73 231.627 1777.37 231.119 1779.98 230.578C1782.6 230.038 1784.51 229.683 1785.67 234.235Z" fill="#FF6584"/>
</g>
<defs>
<clipPath id="clip0">
<rect width="1920" height="295.474" fill="white"/>
</clipPath>
</defs>
</svg>
