<svg width="721" height="524" viewBox="0 0 721 524" fill="none" xmlns="http://www.w3.org/2000/svg">
<g clip-path="url(#clip0)">
<path d="M418.513 220.275V296.628C418.513 304.555 434.853 310.982 455.008 310.982V220.275C455.008 220.275 418.513 220.275 418.513 220.275Z" fill="#0072C6"/>
<path d="M454.508 310.98H455.008C475.163 310.98 491.504 304.557 491.504 296.628V220.275H454.508V310.98Z" fill="#0072C6"/>
<path opacity="0.15" d="M454.508 310.98H455.008C475.163 310.98 491.504 304.557 491.504 296.628V220.275H454.508V310.98Z" fill="white"/>
<path d="M491.504 220.275C491.504 228.202 475.163 234.628 455.008 234.628C434.853 234.628 418.513 228.202 418.513 220.275C418.513 212.348 434.853 205.923 455.008 205.923C475.163 205.923 491.504 212.348 491.504 220.275Z" fill="white"/>
<path d="M484.042 219.448C484.042 224.681 471.043 228.919 455.008 228.919C438.974 228.919 425.973 224.681 425.973 219.448C425.973 214.217 438.974 209.978 455.008 209.978C471.043 209.978 484.042 214.217 484.042 219.448Z" fill="#7FBA00"/>
<path d="M477.959 225.236C481.76 223.635 484.044 221.63 484.044 219.453C484.044 214.22 471.045 209.98 455.008 209.98C438.974 209.98 425.975 214.22 425.975 219.453C425.975 221.63 428.259 223.635 432.059 225.236C437.367 222.998 445.662 221.554 455.008 221.554C464.357 221.554 472.648 222.998 477.959 225.236Z" fill="#B8D432"/>
<path d="M443.417 273.274C443.417 275.647 442.625 277.484 441.04 278.787C439.455 280.089 437.266 280.74 434.472 280.74C432.094 280.74 430.108 280.275 428.512 279.345V273.763C430.354 275.461 432.383 276.311 434.598 276.311C435.669 276.311 436.497 276.078 437.081 275.613C437.665 275.148 437.957 274.532 437.957 273.763C437.957 273.008 437.677 272.35 437.114 271.792C436.551 271.234 435.408 270.513 433.685 269.629C430.173 267.84 428.416 265.396 428.416 262.305C428.416 260.062 429.181 258.262 430.714 256.907C432.244 255.554 434.279 254.875 436.816 254.875C439.065 254.875 440.927 255.196 442.406 255.835V261.049C440.855 259.886 439.087 259.305 437.106 259.305C436.111 259.305 435.325 259.533 434.746 259.992C434.168 260.453 433.88 261.066 433.88 261.831C433.88 262.622 434.112 263.271 434.579 263.777C435.044 264.282 436 264.908 437.445 265.652C439.599 266.758 441.131 267.878 442.048 269.018C442.959 270.16 443.417 271.579 443.417 273.274Z" fill="white"/>
<path d="M468.198 267.625C468.198 270.566 467.581 273.12 466.35 275.281C465.118 277.444 463.385 278.96 461.148 279.833L467.828 286.548H461.083L456.313 280.74C454.268 280.66 452.422 280.072 450.779 278.979C449.136 277.888 447.866 276.389 446.972 274.488C446.079 272.587 445.631 270.466 445.631 268.13C445.631 265.538 446.116 263.227 447.083 261.197C448.053 259.167 449.414 257.607 451.17 256.514C452.927 255.423 454.938 254.875 457.21 254.875C459.329 254.875 461.227 255.404 462.904 256.463C464.578 257.52 465.879 259.026 466.806 260.979C467.735 262.933 468.198 265.149 468.198 267.625ZM462.738 267.94C462.738 265.405 462.23 263.402 461.212 261.931C460.194 260.459 458.803 259.723 457.035 259.723C455.236 259.723 453.797 260.461 452.715 261.937C451.634 263.415 451.093 265.379 451.093 267.832C451.093 270.274 451.622 272.224 452.681 273.682C453.743 275.141 455.148 275.871 456.905 275.871C458.694 275.871 460.112 275.165 461.161 273.752C462.213 272.342 462.738 270.403 462.738 267.94Z" fill="white"/>
<path d="M485.721 280.305H472.005V255.296H477.192V275.735H485.721V280.305Z" fill="white"/>
</g>
<g clip-path="url(#clip1)">
<path d="M297.493 440.147L265.535 420.325C261.719 417.95 257.012 417.95 253.195 420.325L221.238 440.147C217.421 442.501 215.068 446.878 215.068 451.607V491.231C215.068 495.959 217.421 500.337 221.238 502.691L253.195 522.493C255.094 523.669 257.23 524.268 259.365 524.268C261.501 524.268 263.617 523.669 265.535 522.493L297.493 502.691C301.31 500.316 303.663 495.959 303.663 491.231V451.607C303.663 446.878 301.31 442.501 297.493 440.147Z" fill="white"/>
<path d="M297.493 440.148L265.535 420.325C263.637 419.148 261.501 418.55 259.365 418.55C257.23 418.55 255.114 419.148 253.195 420.325L221.238 440.148C217.421 442.502 215.068 446.879 215.068 451.607V491.232C215.068 495.96 217.421 500.337 221.238 502.691L253.195 522.493C255.094 523.67 257.23 524.269 259.365 524.269C261.501 524.269 263.617 523.67 265.535 522.493L297.493 502.691C301.31 500.317 303.663 495.96 303.663 491.232V451.607C303.663 446.879 301.31 442.502 297.493 440.148ZM254.323 520.47L222.365 500.668C219.241 498.727 217.303 495.113 217.303 491.232V451.607C217.303 447.726 219.241 444.112 222.365 442.171L254.323 422.369C255.865 421.42 257.605 420.924 259.365 420.924C261.125 420.924 262.885 421.42 264.408 422.369L296.366 442.171C298.996 443.802 300.776 446.631 301.27 449.811C300.202 447.457 297.829 446.796 295.041 448.51L264.804 468.023C261.027 470.315 258.258 472.917 258.258 477.645V516.546C258.258 519.396 259.346 521.234 261.046 521.77C260.493 521.874 259.939 521.936 259.365 521.936C257.605 521.915 255.845 521.419 254.323 520.47Z" fill="#283037"/>
<path d="M289.128 495.051L281.158 500.027C280.941 500.151 280.782 500.296 280.782 500.564V502.732C280.782 503.001 280.96 503.104 281.158 502.98L289.246 497.859C289.464 497.735 289.484 497.487 289.484 497.219V495.299C289.503 495.03 289.326 494.927 289.128 495.051Z" fill="#4DA825"/>
<path d="M272.18 476.757C272.437 476.612 272.655 476.798 272.655 477.149L272.674 480.019C273.821 479.544 274.83 479.42 275.74 479.627C275.937 479.689 276.017 479.957 275.937 480.287L275.324 482.827C275.285 483.013 275.166 483.22 275.048 483.343C274.988 483.405 274.949 483.447 274.889 483.467C274.81 483.509 274.731 483.529 274.652 483.509C274.237 483.405 273.248 483.178 271.705 484.004C270.084 484.871 269.51 486.337 269.53 487.432C269.55 488.733 270.183 489.146 272.398 489.166C275.344 489.208 276.63 490.57 276.649 493.668C276.689 496.723 275.127 499.986 272.734 502.009L272.793 504.859C272.793 505.21 272.576 505.602 272.318 505.726L270.697 506.697C270.44 506.841 270.222 506.676 270.222 506.325L270.202 503.517C268.818 504.116 267.414 504.26 266.524 503.888C266.346 503.827 266.287 503.558 266.346 503.269L266.939 500.688C266.979 500.481 267.098 500.275 267.236 500.151C267.295 500.11 267.335 500.069 267.394 500.027C267.493 499.986 267.572 499.965 267.651 500.007C268.62 500.337 269.847 500.192 271.033 499.552C272.536 498.747 273.545 497.157 273.525 495.547C273.505 494.101 272.754 493.502 270.934 493.482C268.62 493.482 266.445 493.007 266.406 489.435C266.386 486.503 267.849 483.447 270.163 481.506L270.143 478.636C270.143 478.285 270.341 477.892 270.618 477.748L272.18 476.757Z" fill="white"/>
</g>
<g clip-path="url(#clip2)">
<path d="M111.706 266.658C107.168 266.686 103.238 267.87 99.9422 269.632C98.7253 267.016 97.5083 264.731 97.3057 263.024C97.0776 261.042 96.7987 259.83 97.0776 257.463C97.3562 255.095 98.6239 251.736 98.6239 251.461C98.5983 251.213 98.3447 250.002 95.7336 249.974C93.1224 249.947 90.8657 250.525 90.6122 251.268C90.3587 252.012 89.8516 253.719 89.522 255.481C89.0657 258.068 84.2992 267.236 81.5864 272.054C80.699 270.182 79.9384 268.53 79.7861 267.209C79.5581 265.227 79.279 264.015 79.5581 261.648C79.837 259.28 81.1047 255.921 81.1047 255.646C81.0793 255.398 80.8258 254.187 78.2147 254.159C75.603 254.132 73.3468 254.71 73.0933 255.453C72.8398 256.196 72.5609 257.958 72.0031 259.665C71.4704 261.372 65.1321 276.679 63.4841 280.671C62.6474 282.709 61.9125 284.333 61.3798 285.434C60.8474 286.536 61.3544 285.517 61.3037 285.627C60.8474 286.563 60.5938 287.086 60.5938 287.086V287.114C60.2389 287.802 59.8586 288.463 59.6809 288.463C59.5541 288.463 59.3006 286.618 59.7316 284.086C60.6696 278.772 62.9514 270.485 62.9263 270.182C62.9263 270.045 63.3571 268.585 61.4556 267.842C59.6048 267.099 58.9459 268.338 58.7935 268.338C58.6414 268.338 58.5146 268.778 58.5146 268.778C58.5146 268.778 60.5682 259.446 54.5848 259.446C50.8325 259.446 45.6604 263.878 43.0998 267.925C41.4771 268.889 38.0291 270.926 34.3782 273.101C32.9838 273.927 31.5386 274.808 30.1695 275.606L29.8909 275.275C22.6398 266.878 9.22792 260.932 9.78569 249.644C9.98852 245.542 11.3069 234.722 35.545 221.617C55.3966 210.88 71.2932 213.826 74.0565 220.378C77.9862 229.739 65.5631 247.139 44.9257 249.644C37.0662 250.608 32.9333 247.304 31.8941 246.065C30.8039 244.771 30.6518 244.716 30.2461 244.964C29.5869 245.349 29.9926 246.505 30.2461 247.194C30.8546 248.928 33.3899 252.012 37.7 253.553C41.4774 254.902 50.7063 255.646 61.8617 250.965C74.361 245.707 84.122 231.116 81.2571 218.919C78.3414 206.503 59.3771 202.428 41.4523 209.338C30.7783 213.468 19.2171 219.91 10.9012 228.362C1.01343 238.384 -0.558478 247.139 0.100709 250.773C2.40812 263.74 18.8622 272.192 25.4541 278.441C25.1245 278.634 24.8202 278.827 24.5413 278.992C21.2454 280.754 8.6955 287.885 5.55168 295.428C2.00221 303.963 6.10946 310.102 8.84762 310.928C17.3156 313.489 25.9865 308.891 30.6769 301.32C35.3416 293.749 34.7841 283.92 32.6291 279.433L32.5528 279.267L35.1388 277.616C36.8124 276.542 38.4603 275.551 39.9052 274.697C39.0942 277.092 38.5108 279.928 38.2068 284.058C37.8519 288.903 39.6773 295.18 42.0859 297.658C43.1507 298.731 44.4184 298.759 45.2043 298.759C47.9932 298.759 49.2609 296.254 50.6553 293.253C52.3793 289.591 53.9005 285.351 53.9005 285.351C53.9005 285.351 51.999 296.832 57.1965 296.832C59.098 296.832 60.9995 294.161 61.8615 292.785V292.812C61.8615 292.812 61.9122 292.73 62.0136 292.537C62.12 292.366 62.2215 292.192 62.3179 292.014V291.959C63.0785 290.528 64.7771 287.251 67.3125 281.828C70.5828 274.835 73.7269 266.08 73.7269 266.08C73.7269 266.08 74.0311 268.227 74.9692 271.751C75.5267 273.844 76.7437 276.129 77.6817 278.359C76.9211 279.515 76.4648 280.176 76.4648 280.176L76.4901 280.204C75.8819 281.085 75.1971 282.021 74.4875 282.957C71.9014 286.316 68.8083 290.143 68.4027 291.244C67.9209 292.538 68.0224 293.501 68.9604 294.272C69.645 294.823 70.8619 294.933 72.155 294.823C74.4875 294.658 76.1101 294.025 76.9214 293.639C78.1891 293.143 79.6342 292.4 81.0286 291.299C83.564 289.262 85.1105 286.371 84.9584 282.517C84.8823 280.397 84.2485 278.304 83.4626 276.322C83.6907 275.964 83.9192 275.606 84.1471 275.221C88.1529 268.861 91.246 261.868 91.246 261.868C91.246 261.868 91.5503 264.016 92.4883 267.54C92.9698 269.329 93.9335 271.284 94.7955 273.211C91.0432 276.543 88.6853 280.397 87.874 282.93C86.3782 287.61 87.5444 289.73 89.7502 290.226C90.7387 290.446 92.1588 289.95 93.2234 289.455C94.5417 288.987 96.139 288.188 97.6097 287.004C100.145 284.967 102.579 282.131 102.452 278.305C102.376 276.543 101.945 274.808 101.362 273.156C104.557 271.725 108.689 270.899 113.937 271.587C125.22 273.019 127.451 280.672 127.02 283.866C126.589 287.06 124.231 288.822 123.445 289.372C122.659 289.895 122.405 290.088 122.481 290.473C122.583 291.052 122.938 291.024 123.622 290.914C124.56 290.749 129.555 288.299 129.758 282.407C130.062 274.835 123.445 266.576 111.706 266.658ZM24.6935 298.512C20.9665 302.944 15.7184 304.624 13.4873 303.192C11.0787 301.678 12.0165 295.153 16.6057 290.445C19.3946 287.582 23.0201 284.939 25.4034 283.314C25.9358 282.957 26.7471 282.434 27.7105 281.8C27.8626 281.69 27.9641 281.635 27.9641 281.635C28.1415 281.525 28.3444 281.387 28.5472 281.25C30.2459 287.967 28.6232 293.859 24.6935 298.512ZM51.9483 278.386C50.6553 281.828 47.9171 290.665 46.2692 290.17C44.8491 289.757 43.9874 283.067 45.99 276.459C47.0042 273.128 49.1592 269.163 50.4269 267.621C52.4808 265.144 54.7116 264.318 55.2696 265.336C55.9288 266.658 52.7596 276.239 51.9483 278.386ZM74.4368 290.06C73.879 290.363 73.3719 290.583 73.1437 290.418C72.9663 290.308 73.3717 289.895 73.3717 289.895C73.3717 289.895 76.1859 286.618 77.3014 285.104C77.9353 284.224 78.6959 283.205 79.5072 282.048V282.379C79.5074 286.343 76.0087 288.986 74.4368 290.06ZM91.7782 285.765C91.3726 285.434 91.4235 284.416 92.7923 281.222C93.325 279.956 94.5417 277.836 96.646 275.826C96.8996 276.652 97.052 277.45 97.0264 278.194C97.0013 283.149 93.756 284.994 91.7782 285.765Z" fill="#CF649A"/>
</g>
<g clip-path="url(#clip3)">
<path fill-rule="evenodd" clip-rule="evenodd" d="M614.492 292.387V284.343C614.492 283.286 615.146 282.437 616.23 282.437H616.53C617.613 282.437 618.264 283.287 618.264 284.343V301.278C618.264 305.407 616.244 308.694 612.724 310.787C611.111 311.752 609.27 312.259 607.396 312.254H606.648C602.558 312.254 599.308 310.213 597.232 306.66C596.275 305.031 595.773 303.171 595.78 301.278V300.523C595.78 296.392 597.801 293.108 601.318 291.011C602.931 290.044 604.772 289.537 606.648 289.543H607.396C610.164 289.543 612.512 290.627 614.492 292.387ZM599.551 300.9C599.551 303.883 600.983 306.126 603.571 307.556C604.618 308.135 605.754 308.445 606.948 308.445C609.847 308.445 611.998 307.064 613.481 304.583C614.171 303.428 614.492 302.165 614.492 300.823C614.492 298.237 613.28 296.218 611.217 294.72C609.965 293.811 608.557 293.355 607.021 293.355C603.861 293.355 601.587 294.968 600.222 297.832C599.761 298.801 599.551 299.829 599.551 300.9ZM631.35 289.543H631.873C636.243 289.543 639.567 291.684 641.673 295.537C642.515 297.078 642.966 298.761 642.966 300.523V301.278C642.966 305.407 640.95 308.698 637.424 310.787C635.792 311.754 633.989 312.254 632.097 312.254H631.35C627.26 312.254 624.01 310.213 621.935 306.66C620.977 305.031 620.475 303.171 620.48 301.278V300.523C620.48 296.392 622.51 293.118 626.019 291.012C627.65 290.033 629.454 289.543 631.35 289.543ZM624.253 300.9C624.253 303.795 625.659 305.926 628.081 307.424C629.218 308.127 630.471 308.445 631.799 308.445C634.632 308.445 636.726 306.994 638.184 304.58C638.879 303.428 639.193 302.163 639.193 300.823C639.193 298.13 637.909 296.073 635.714 294.582C634.511 293.765 633.172 293.355 631.723 293.355C628.563 293.355 626.289 294.968 624.924 297.832C624.463 298.801 624.253 299.829 624.253 300.9ZM658.647 293.66C658.077 293.39 657.011 293.301 656.396 293.277C653.244 293.157 650.964 294.95 649.627 297.757C649.165 298.726 648.954 299.751 648.954 300.823C648.954 304.085 650.65 306.37 653.534 307.763C654.588 308.271 655.948 308.368 657.099 308.368C658.111 308.368 659.543 307.741 660.441 307.31L660.597 307.235H661.294L661.371 307.251C662.229 307.431 662.877 307.981 662.877 308.913V309.29C662.877 311.609 658.679 312.14 657.078 312.253C651.426 312.648 647.2 309.514 645.588 304.069C645.308 303.124 645.182 302.185 645.182 301.2V300.446C645.182 296.315 647.212 293.043 650.721 290.938C652.352 289.96 654.156 289.468 656.051 289.468H656.799C658.809 289.468 660.661 290.045 662.321 291.19L662.457 291.285L662.543 291.429C662.722 291.728 662.877 292.076 662.877 292.432V292.81C662.877 293.782 662.156 294.305 661.287 294.474L661.215 294.487H660.992C660.429 294.487 659.149 293.899 658.647 293.66ZM670.882 296.239C672.347 294.757 673.817 293.279 675.304 291.821C675.718 291.415 677.287 289.694 677.905 289.694H678.581L678.658 289.71C679.518 289.891 680.163 290.441 680.163 291.375V291.752C680.163 292.389 679.424 293.129 679.016 293.565C678.15 294.493 677.238 295.39 676.351 296.299L671.793 300.971C673.756 302.957 675.716 304.945 677.662 306.946C678.202 307.499 678.738 308.055 679.269 308.616C679.456 308.815 679.733 309.063 679.89 309.339C680.059 309.597 680.163 309.889 680.163 310.2V310.593L680.141 310.684C679.929 311.553 679.383 312.254 678.429 312.254H678.129C677.505 312.254 676.8 311.541 676.373 311.134C675.492 310.295 674.641 309.413 673.778 308.556L670.882 305.685V310.274C670.882 311.331 670.226 312.181 669.144 312.181H668.847C667.764 312.181 667.11 311.331 667.11 310.274V284.417C667.11 283.36 667.764 282.514 668.847 282.514H669.144C670.226 282.514 670.882 283.36 670.882 284.417V296.239ZM717.894 289.694H718.269C719.4 289.694 720.155 290.464 720.155 291.6C720.155 293.177 718.662 293.581 717.371 293.581C715.677 293.581 714.059 294.617 712.891 295.778C711.435 297.228 710.798 299.085 710.798 301.126V310.349C710.798 311.406 710.144 312.254 709.06 312.254H708.762C707.678 312.254 707.025 311.406 707.025 310.349V300.597C707.025 296.852 708.83 293.795 711.839 291.651C713.636 290.371 715.694 289.695 717.894 289.695V289.694ZM691.085 307.971C692.457 308.455 694.022 308.386 695.431 308.138C696.151 307.829 697.993 307.017 698.671 307.136L698.776 307.154L698.874 307.202C699.287 307.405 699.682 307.692 699.894 308.117C700.387 309.113 700.15 310.115 699.18 310.681L698.858 310.869C695.28 312.955 691.474 312.666 687.907 310.718C686.202 309.787 684.898 308.405 683.935 306.72L683.71 306.326C681.413 302.309 681.723 298.083 684.314 294.262C685.208 292.942 686.377 291.922 687.743 291.124L688.26 290.822C691.63 288.858 695.241 288.993 698.702 290.717C700.563 291.644 702.07 293.026 703.109 294.843L703.296 295.171C704.051 296.491 703.073 297.642 702.064 298.428C700.893 299.341 699.711 300.439 698.588 301.417C696.085 303.6 693.586 305.787 691.085 307.971ZM687.845 305.673C690.644 303.249 693.444 300.823 696.236 298.389C697.19 297.558 698.236 296.696 699.182 295.822C698.423 294.856 697.154 294.159 696.077 293.744C693.901 292.906 691.755 293.188 689.76 294.351C687.149 295.874 686.036 298.299 686.134 301.317C686.173 302.506 686.489 303.651 687.113 304.663C687.334 305.019 687.579 305.354 687.845 305.673ZM667.489 229.335H678.62V240.826H684.247C686.847 240.826 689.52 240.359 691.981 239.517C693.191 239.102 694.548 238.526 695.741 237.801C694.169 235.729 693.367 233.113 693.132 230.535C692.81 227.027 693.511 222.462 695.862 219.717L697.032 218.35L698.426 219.482C701.936 222.33 704.888 226.31 705.409 230.847C709.636 229.592 714.598 229.889 718.324 232.06L719.852 232.951L719.048 234.537C715.897 240.747 709.309 242.672 702.869 242.331C693.232 266.572 672.251 278.049 646.813 278.049C633.669 278.049 621.612 273.087 614.745 261.311L614.633 261.119L613.632 259.063C611.311 253.879 610.54 248.2 611.063 242.526L611.22 240.826H620.739V229.335H631.869V218.093H654.131V206.852H667.489V229.335Z" fill="#364548"/>
<path fill-rule="evenodd" clip-rule="evenodd" d="M703.562 233.587C704.308 227.728 699.968 223.127 697.276 220.942C694.174 224.565 693.692 234.058 698.558 238.055C695.842 240.491 690.119 242.7 684.259 242.7H612.923C612.353 248.878 613.427 254.568 615.88 259.437L616.691 260.937C617.205 261.817 617.767 262.668 618.373 263.485C621.306 263.676 624.01 263.741 626.484 263.686H626.485C631.347 263.578 635.313 262.998 638.32 261.945C638.532 261.879 638.762 261.898 638.961 261.999C639.16 262.101 639.311 262.276 639.384 262.489C639.457 262.701 639.446 262.934 639.352 263.138C639.258 263.341 639.089 263.5 638.881 263.581C638.481 263.721 638.064 263.852 637.634 263.976H637.632C635.265 264.659 632.727 265.118 629.452 265.322C629.646 265.326 629.249 265.352 629.248 265.352C629.137 265.359 628.996 265.376 628.884 265.381C627.595 265.455 626.204 265.47 624.782 265.47C623.226 265.47 621.694 265.44 619.981 265.352L619.937 265.381C625.881 272.129 635.175 276.175 646.824 276.175C671.479 276.175 692.391 265.137 701.652 240.357C708.222 241.038 714.536 239.345 717.408 233.683C712.833 231.017 706.95 231.867 703.562 233.587Z" fill="#22A0C8"/>
<path fill-rule="evenodd" clip-rule="evenodd" d="M703.562 233.587C704.308 227.728 699.967 223.127 697.275 220.942C694.173 224.565 693.691 234.058 698.558 238.055C695.842 240.491 690.119 242.7 684.258 242.7H617.147C616.856 252.162 620.332 259.344 626.483 263.686H626.485C631.346 263.578 635.313 262.998 638.32 261.945C638.532 261.879 638.762 261.898 638.961 261.999C639.159 262.101 639.311 262.276 639.384 262.489C639.457 262.701 639.445 262.934 639.351 263.138C639.257 263.341 639.089 263.5 638.881 263.581C638.481 263.721 638.064 263.852 637.634 263.976H637.632C635.265 264.659 632.508 265.177 629.233 265.381C629.232 265.381 629.154 265.305 629.153 265.305C637.544 269.652 649.71 269.636 663.659 264.225C679.299 258.157 693.853 246.595 704.008 233.372C703.855 233.442 703.706 233.513 703.562 233.587Z" fill="#37B1D9"/>
<path fill-rule="evenodd" clip-rule="evenodd" d="M613.057 250.206C613.499 253.516 614.458 256.615 615.88 259.437L616.691 260.937C617.205 261.817 617.767 262.668 618.373 263.485C621.307 263.676 624.011 263.741 626.485 263.686C631.347 263.578 635.313 262.998 638.32 261.945C638.532 261.879 638.762 261.898 638.961 261.999C639.16 262.101 639.311 262.276 639.384 262.489C639.457 262.701 639.445 262.934 639.352 263.137C639.258 263.341 639.089 263.5 638.881 263.581C638.481 263.721 638.064 263.852 637.634 263.976H637.632C635.265 264.659 632.523 265.148 629.248 265.352C629.136 265.359 628.939 265.361 628.826 265.367C627.538 265.44 626.161 265.485 624.738 265.485C623.183 265.485 621.592 265.455 619.88 265.367C625.823 272.114 635.175 276.175 646.824 276.175C667.931 276.175 686.295 268.084 696.953 250.206H613.057Z" fill="#1B81A5"/>
<path fill-rule="evenodd" clip-rule="evenodd" d="M617.789 250.206C619.051 256.017 622.083 260.579 626.485 263.686C631.347 263.578 635.313 262.998 638.32 261.945C638.532 261.879 638.762 261.898 638.961 261.999C639.16 262.101 639.311 262.276 639.384 262.489C639.457 262.701 639.445 262.934 639.351 263.137C639.258 263.341 639.089 263.5 638.881 263.581C638.481 263.721 638.064 263.852 637.634 263.976H637.632C635.265 264.659 632.465 265.148 629.19 265.352C637.58 269.698 649.711 269.636 663.659 264.225C672.097 260.951 680.218 256.077 687.503 250.206H617.789Z" fill="#1D91B4"/>
<path fill-rule="evenodd" clip-rule="evenodd" d="M622.605 231.209H632.252V240.952H622.605V231.209ZM623.409 232.021H624.17V240.14H623.409V232.021ZM624.84 232.021H625.632V240.14H624.84V232.021H624.84ZM626.301 232.021H627.093V240.14H626.301V232.021ZM627.763 232.021H628.555V240.14H627.763V232.021ZM629.225 232.021H630.017V240.14H629.225V232.021ZM630.686 232.021H631.448V240.14H630.686V232.021ZM633.736 219.967H643.383V229.71H633.735V219.967H633.736ZM634.54 220.779H635.301V228.898H634.54V220.779ZM635.971 220.779H636.763V228.898H635.971V220.779H635.971ZM637.432 220.779H638.224V228.898H637.432V220.779ZM638.894 220.779H639.686V228.898H638.894V220.779ZM640.356 220.779H641.148V228.898H640.356V220.779ZM641.817 220.779H642.58V228.898H641.817V220.779Z" fill="#23A3C2"/>
<path fill-rule="evenodd" clip-rule="evenodd" d="M633.736 231.208H643.383V240.952H633.735V231.208H633.736ZM634.54 232.021H635.301V240.14H634.54V232.021ZM635.971 232.021H636.762V240.14H635.971V232.021H635.971ZM637.432 232.021H638.224V240.14H637.432V232.021ZM638.894 232.021H639.686V240.14H638.894V232.021ZM640.356 232.021H641.148V240.14H640.356V232.021ZM641.817 232.021H642.579V240.14H641.817V232.021Z" fill="#34BBDE"/>
<path fill-rule="evenodd" clip-rule="evenodd" d="M644.867 231.208H654.514V240.952H644.867V231.208ZM645.671 232.021H646.431V240.14H645.671V232.021ZM647.102 232.021H647.893V240.14H647.102V232.021ZM648.564 232.021H649.355V240.14H648.564V232.021ZM650.025 232.021H650.817V240.14H650.025V232.021ZM651.487 232.021H652.279V240.14H651.487V232.021ZM652.948 232.021H653.71V240.14H652.948V232.021Z" fill="#23A3C2"/>
<path fill-rule="evenodd" clip-rule="evenodd" d="M644.867 219.967H654.514V229.71H644.867V219.967ZM645.671 220.779H646.431V228.898H645.671V220.779ZM647.102 220.779H647.893V228.898H647.102V220.779ZM648.564 220.779H649.355V228.898H648.564V220.779ZM650.025 220.779H650.817V228.898H650.025V220.779ZM651.487 220.779H652.279V228.898H651.487V220.779ZM652.949 220.779H653.71V228.898H652.949V220.779ZM655.998 231.209H665.645V240.952H655.998V231.209ZM656.802 232.021H657.563V240.14H656.802V232.021ZM658.233 232.021H659.025V240.14H658.233V232.021ZM659.694 232.021H660.486V240.14H659.694V232.021ZM661.156 232.021H661.948V240.14H661.156V232.021ZM662.618 232.021H663.41V240.14H662.618V232.021ZM664.08 232.021H664.841V240.14H664.08V232.021Z" fill="#34BBDE"/>
<path fill-rule="evenodd" clip-rule="evenodd" d="M655.998 219.967H665.645V229.71H655.998V219.967ZM656.802 220.779H657.563V228.898H656.802V220.779ZM658.233 220.779H659.025V228.898H658.233V220.779ZM659.694 220.779H660.486V228.898H659.694V220.779ZM661.156 220.779H661.948V228.898H661.156V220.779ZM662.618 220.779H663.41V228.898H662.618V220.779ZM664.08 220.779H664.841V228.898H664.08V220.779Z" fill="#23A3C2"/>
<path fill-rule="evenodd" clip-rule="evenodd" d="M655.998 208.725H665.645V218.469H655.998V208.725ZM656.802 209.537H657.563V217.656H656.802V209.536V209.537ZM658.233 209.537H659.025V217.656H658.233V209.536V209.537ZM659.694 209.537H660.486V217.656H659.694V209.536V209.537ZM661.156 209.537H661.948V217.656H661.156V209.536V209.537ZM662.618 209.537H663.41V217.656H662.618V209.536V209.537ZM664.08 209.537H664.841V217.656H664.08V209.536V209.537Z" fill="#34BBDE"/>
<path fill-rule="evenodd" clip-rule="evenodd" d="M667.129 231.208H676.776V240.952H667.129V231.208ZM667.932 232.021H668.694V240.14H667.932V232.021H667.932ZM669.363 232.021H670.155V240.14H669.363V232.021H669.363ZM670.825 232.021H671.617V240.14H670.825V232.021ZM672.287 232.021H673.079V240.14H672.287V232.021ZM673.749 232.021H674.54V240.14H673.749V232.021ZM675.21 232.021H675.971V240.14H675.21V232.021Z" fill="#23A3C2"/>
<path fill-rule="evenodd" clip-rule="evenodd" d="M642.779 256.748C643.132 256.743 643.482 256.809 643.809 256.942C644.136 257.075 644.433 257.273 644.684 257.523C644.935 257.773 645.135 258.071 645.271 258.399C645.407 258.728 645.477 259.08 645.476 259.437C645.476 259.793 645.406 260.145 645.27 260.474C645.134 260.802 644.935 261.1 644.684 261.35C644.433 261.6 644.135 261.797 643.808 261.93C643.481 262.063 643.131 262.129 642.778 262.124C642.079 262.114 641.411 261.827 640.92 261.324C640.428 260.821 640.153 260.142 640.153 259.436C640.153 258.729 640.429 258.051 640.92 257.548C641.412 257.045 642.08 256.757 642.779 256.748Z" fill="#D3ECEC"/>
<path fill-rule="evenodd" clip-rule="evenodd" d="M642.779 257.511C643.023 257.511 643.255 257.557 643.469 257.641C643.321 257.727 643.206 257.861 643.14 258.02C643.075 258.18 643.064 258.357 643.108 258.523C643.152 258.69 643.25 258.838 643.385 258.943C643.52 259.048 643.686 259.105 643.857 259.106C644.152 259.106 644.407 258.941 644.54 258.697C644.697 259.079 644.728 259.501 644.629 259.902C644.53 260.302 644.306 260.66 643.99 260.922C643.674 261.184 643.283 261.337 642.874 261.358C642.466 261.378 642.062 261.265 641.722 261.036C641.382 260.807 641.124 260.473 640.986 260.085C640.848 259.696 640.837 259.273 640.956 258.877C641.074 258.482 641.316 258.136 641.644 257.89C641.972 257.644 642.37 257.511 642.779 257.511ZM595.705 251.178H719.508C716.812 250.488 710.979 249.555 711.941 245.986C707.039 251.715 695.219 250.005 692.235 247.181C688.913 252.047 669.573 250.197 668.224 246.406C664.059 251.343 651.154 251.343 646.989 246.406C645.639 250.197 626.3 252.047 622.978 247.18C619.995 250.005 608.175 251.715 603.273 245.987C604.235 249.555 598.401 250.488 595.705 251.178" fill="#364548"/>
<path fill-rule="evenodd" clip-rule="evenodd" d="M649.853 276.117C643.262 272.958 639.645 268.664 637.632 263.977C635.184 264.682 632.241 265.134 628.821 265.327C627.533 265.4 626.178 265.437 624.757 265.437C623.117 265.437 621.39 265.388 619.576 265.291C625.62 271.392 633.056 276.089 646.824 276.175C647.841 276.175 648.849 276.155 649.853 276.117Z" fill="#BDD9D7"/>
<path fill-rule="evenodd" clip-rule="evenodd" d="M640.08 268.302C639.169 267.052 638.284 265.481 637.634 263.976C635.185 264.682 632.242 265.134 628.821 265.328C631.171 266.615 634.53 267.809 640.081 268.302" fill="#D3ECEC"/>
</g>
<g clip-path="url(#clip4)">
<path d="M658.126 6.56958L607.992 24.0336L615.915 89.0495L658.179 112.043L700.662 88.7378L708.581 23.7244L658.126 6.56958Z" fill="#B3B3B3"/>
<path d="M703.581 27.4809L658.009 12.0984V106.548L696.2 85.6264L703.58 27.4809H703.581Z" fill="#A6120D"/>
<path d="M613.618 27.7582L620.407 85.9045L658.008 106.548V12.0969L613.618 27.7578L613.618 27.7582Z" fill="#DD1B16"/>
<path d="M670.554 62.3786L658.009 68.1852H644.787L638.572 83.5728L627.012 83.7842L658.009 15.5284L670.554 62.379V62.3786ZM669.341 59.4554L658.093 37.4132L648.866 59.076H658.009L669.341 59.4558V59.4554Z" fill="#F2F2F2"/>
<path d="M658.009 15.528L658.092 37.4131L668.561 59.0928H658.032L658.009 68.1711L672.567 68.1848L679.372 83.7865L690.433 83.9893L658.009 15.528Z" fill="#B3B3B3"/>
</g>
<g clip-path="url(#clip5)">
<path d="M299.275 20.7762L291.943 97.216L258.984 105.719L226.117 97.228L218.793 20.7762H299.275Z" fill="#264DE4"/>
<path d="M285.666 92.3487L291.931 27.0273H259.034V99.2198L285.666 92.3487Z" fill="#2965F1"/>
<path d="M235.584 55.3823L236.487 64.7587H259.034V55.3823H235.584Z" fill="#EBEBEB"/>
<path d="M259.034 36.4039H258.999H233.769L234.685 45.7805H259.034V36.4039Z" fill="#EBEBEB"/>
<path d="M259.034 89.4895V79.734L258.99 79.7449L247.768 76.9252L247.051 69.447H241.598H236.937L238.348 84.1695L258.987 89.5015L259.034 89.4895Z" fill="#EBEBEB"/>
<path d="M237.734 0H249.937V4.74911H242.837V9.49822H249.937V14.2473H237.734V0Z" fill="black"/>
<path d="M252.377 0H264.581V4.12966H257.481V4.95559H264.581V14.4538H252.377V10.1177H259.477V9.29173H252.377V0Z" fill="black"/>
<path d="M267.021 0H279.224V4.12966H272.124V4.95559H279.224V14.4538H267.021V10.1177H274.121V9.29173H267.021V0Z" fill="black"/>
<path d="M271.406 64.7586L270.236 76.9192L258.999 79.7418V89.4969L279.654 84.1694L279.806 82.5853L282.173 57.9001L282.419 55.3822L284.238 36.4039H258.999V45.7805H273.196L272.279 55.3822H258.999V64.7586H271.406Z" fill="white"/>
</g>
<g clip-path="url(#clip6)">
<path d="M35.9959 97.2281L29.4678 20.7764H101.201L94.6657 97.2162L65.2904 105.719L35.9959 97.2281Z" fill="#E44D26"/>
<path d="M65.3342 99.2198L89.0709 92.3487L94.6556 27.0273H65.3342V99.2198Z" fill="#F16529"/>
<path d="M65.3343 55.3823H53.4511L52.6304 45.7807H65.3343V36.4041H65.3033H42.8162L43.0311 38.9196L45.2383 64.7587H65.3343V55.3823Z" fill="#EBEBEB"/>
<path d="M65.3343 79.734L65.2949 79.7449L55.2936 76.9252L54.6543 69.447H49.7944H45.6395L46.8977 84.1695L65.293 89.5015L65.3343 89.4895V79.734Z" fill="#EBEBEB"/>
<path d="M36.1418 0H40.7055V4.70781H44.8801V0H49.4439V14.2564H44.8803V9.48252H40.7057V14.2564H36.142V0H36.1418Z" fill="black"/>
<path d="M55.4452 4.72763H51.4276V0H64.0286V4.72763H60.0093V14.2564H55.4454V4.72763H55.4452Z" fill="black"/>
<path d="M66.0286 0H70.7872L73.7144 5.00928L76.6386 0H81.399V14.2564H76.8541V7.19015L73.7144 12.2591H73.6359L70.4939 7.19015V14.2564H66.0286V0Z" fill="black"/>
<path d="M83.6703 0H88.2353V9.54406H94.6531V14.2564H83.6703V0Z" fill="black"/>
<path d="M65.3032 55.3822V64.7586H76.3614L75.319 76.9192L65.3032 79.7418V89.4969L83.7132 84.1694L83.8482 82.5853L85.9585 57.9001L86.1776 55.3822H83.7577H65.3032Z" fill="white"/>
<path d="M65.3032 36.4041V42.2277V45.7577V45.7807H86.9659H86.9947L87.1749 43.6731L87.584 38.9196L87.7988 36.4041H65.3032Z" fill="white"/>
</g>
<g clip-path="url(#clip7)">
<rect width="101.251" height="105.719" transform="translate(208.681 205.923)" fill="#FF0000"/>
<path d="M208.681 258.782V205.923H309.932V311.642H208.681" fill="#0069A4"/>
<path d="M230.88 258.967V263.275H244.043V302.392H253.383V263.275H266.546V259.047C266.546 256.668 266.546 254.739 266.445 254.686C266.445 254.606 258.42 254.58 248.675 254.58L230.956 254.659V258.994L230.88 258.967ZM290.036 254.554C292.618 255.188 294.593 256.404 296.364 258.333C297.301 259.39 298.693 261.24 298.794 261.716C298.794 261.875 294.415 264.967 291.757 266.685C291.656 266.764 291.251 266.315 290.846 265.628C289.53 263.672 288.188 262.826 286.087 262.668C283.05 262.456 281.025 264.121 281.025 266.896C281.025 267.742 281.177 268.218 281.48 268.905C282.164 270.359 283.43 271.231 287.353 273.028C294.592 276.279 297.731 278.42 299.63 281.486C301.781 284.921 302.262 290.313 300.819 294.357C299.199 298.771 295.251 301.757 289.606 302.735C287.834 303.052 283.784 302.999 281.885 302.656C277.835 301.863 273.963 299.749 271.583 297.026C270.647 295.969 268.849 293.141 268.951 292.956L269.912 292.322L273.709 290.022L276.57 288.278L277.228 289.203C278.063 290.577 279.936 292.428 281.025 293.062C284.315 294.833 288.72 294.595 290.897 292.533C291.833 291.635 292.238 290.683 292.238 289.362C292.238 288.146 292.061 287.591 291.479 286.666C290.669 285.503 289.049 284.551 284.493 282.437C279.253 280.111 277.025 278.631 274.95 276.358C273.76 274.984 272.672 272.843 272.165 271.072C271.786 269.539 271.659 265.786 272.013 264.28C273.102 258.994 276.924 255.294 282.392 254.236C284.164 253.866 288.34 254.025 290.087 254.501L290.036 254.554Z" fill="white"/>
</g>
<g clip-path="url(#clip8)">
<path d="M402.652 3.67725H503.904V109.397H402.652V3.67725Z" fill="#F7DF1E"/>
<path d="M429.275 92.0239L437.023 87.1278C438.518 89.8951 439.878 92.2366 443.14 92.2366C446.266 92.2366 448.238 90.9597 448.238 85.9926V52.2128H457.753V86.133C457.753 96.4229 451.976 101.107 443.548 101.107C435.936 101.107 431.518 96.9907 429.275 92.0231L429.275 92.0239ZM462.921 90.9593L470.668 86.2759C472.708 89.7535 475.359 92.3081 480.048 92.3081C483.991 92.3081 486.505 90.2498 486.505 87.4111C486.505 84.005 483.922 82.7983 479.572 80.8119L477.194 79.7465C470.329 76.6959 465.775 72.8636 465.775 64.7736C465.775 57.322 471.212 51.6445 479.708 51.6445C485.757 51.6445 490.107 53.8448 493.233 59.5929L485.825 64.5609C484.193 61.5095 482.427 60.3032 479.708 60.3032C476.921 60.3032 475.154 62.1483 475.154 64.5609C475.154 67.5412 476.921 68.7483 480.999 70.5935L483.378 71.6577C491.466 75.2773 496.019 78.9672 496.019 87.2695C496.019 96.2118 489.291 101.108 480.252 101.108C471.416 101.108 465.707 96.7082 462.921 90.9597" fill="black"/>
</g>
<path d="M509.914 465.765L460.136 420.248C459.454 419.624 458.645 419.129 457.754 418.792C456.863 418.454 455.909 418.281 454.944 418.281C453.98 418.281 453.025 418.454 452.135 418.792C451.244 419.129 450.434 419.624 449.753 420.248L439.416 429.701L452.529 441.691C454.07 441.211 455.727 441.136 457.313 441.474C458.898 441.812 460.348 442.549 461.499 443.602C462.656 444.661 463.464 445.997 463.831 447.457C464.197 448.916 464.107 450.44 463.571 451.855L476.206 463.411C479.263 462.448 482.792 463.072 485.232 465.308C486.044 466.05 486.688 466.93 487.127 467.899C487.566 468.869 487.792 469.908 487.792 470.957C487.792 472.006 487.566 473.045 487.127 474.014C486.688 474.983 486.044 475.864 485.232 476.606C483.805 477.913 481.926 478.727 479.916 478.909C477.905 479.092 475.888 478.632 474.207 477.607C472.526 476.583 471.285 475.057 470.696 473.29C470.106 471.523 470.205 469.624 470.974 467.916L459.19 457.14L459.189 485.499C460.043 485.885 460.824 486.396 461.499 487.01C462.311 487.752 462.955 488.633 463.394 489.602C463.833 490.572 464.059 491.611 464.059 492.66C464.059 493.709 463.833 494.748 463.394 495.718C462.955 496.687 462.311 497.568 461.499 498.31C458.086 501.432 452.553 501.432 449.145 498.31C448.127 497.38 447.376 496.233 446.958 494.973C446.541 493.714 446.471 492.379 446.754 491.088C447.037 489.798 447.664 488.591 448.58 487.575C449.496 486.56 450.672 485.767 452.004 485.267V456.643C450.933 456.243 449.96 455.65 449.145 454.9C446.559 452.538 445.938 449.069 447.263 446.166L434.338 434.344L400.207 465.554C399.525 466.177 398.984 466.918 398.615 467.732C398.246 468.547 398.056 469.421 398.056 470.303C398.056 471.185 398.246 472.058 398.615 472.873C398.984 473.688 399.525 474.428 400.207 475.052L449.985 520.57C451.362 521.829 453.229 522.536 455.177 522.536C457.124 522.536 458.991 521.829 460.368 520.57L509.914 475.264C511.291 474.004 512.064 472.296 512.064 470.515C512.064 468.733 511.291 467.025 509.914 465.765Z" fill="#DE4C36"/>
<g clip-path="url(#clip9)">
<path d="M111.285 451.958C115.342 457.669 117.67 464.2 117.67 471.143C117.67 478.085 115.342 484.658 111.245 490.378C110.094 497.315 107.112 503.598 102.188 508.523C97.3498 513.355 91.1426 516.434 84.0024 517.605C78.2922 521.662 71.7555 524 64.813 524C57.8705 524 51.3236 521.682 45.6185 517.605C38.4782 516.434 32.2711 513.355 27.4332 508.523C22.509 503.598 19.5272 497.315 18.3811 490.378C14.2836 484.652 11.9508 478.101 11.9508 471.143C11.9508 464.185 14.2836 457.623 18.3811 451.908C19.5221 444.97 22.4938 438.687 27.4332 433.763C32.2711 428.925 38.4782 425.852 45.6185 424.68C51.3236 420.598 57.8654 418.281 64.813 418.281C71.7605 418.281 78.277 420.598 84.0024 424.68C91.1426 425.852 97.3498 428.925 102.188 433.763C107.026 438.601 110.119 444.859 111.285 451.958ZM116.276 471.143C116.241 465.472 114.648 459.919 111.671 455.092C111.935 458.378 111.838 461.682 111.382 464.946C111.086 467.052 110.663 469.139 110.114 471.194C111.534 476.423 112.049 481.856 111.635 487.259C114.635 482.416 116.239 476.839 116.27 471.143H116.276ZM109.987 464.758C110.573 460.687 110.56 456.553 109.947 452.486C106.734 448.159 102.751 444.463 98.1967 441.583C100.413 445.914 102.102 450.496 103.227 455.229C105.78 459.381 107.823 463.825 109.313 468.465C109.592 467.228 109.82 465.996 109.987 464.758ZM109.921 489.825C110.697 484.522 110.494 479.121 109.323 473.891C107.823 478.516 105.771 482.943 103.212 487.077C102.085 491.795 100.399 496.363 98.1916 500.683C102.733 497.81 106.711 494.131 109.926 489.825H109.921ZM108.669 471.173C107.568 467.179 106.038 463.316 104.105 459.651C105.406 467.281 105.406 475.076 104.105 482.705C106.041 479.038 107.573 475.171 108.674 471.173H108.669ZM109.348 449.484C108.073 443.904 105.249 438.797 101.202 434.749C97.1541 430.702 92.047 427.878 86.467 426.602C90.6173 430.146 94.124 434.38 96.8325 439.118C101.57 441.83 105.804 445.338 109.348 449.489V449.484ZM101.199 507.529C105.207 503.468 108.015 498.378 109.313 492.822C105.774 496.952 101.552 500.444 96.8325 503.147C94.1239 507.882 90.619 512.114 86.4721 515.658C92.0387 514.363 97.1368 511.549 101.199 507.529ZM100.737 451.461C99.5122 447.519 97.8647 443.721 95.8234 440.132C92.2456 438.098 88.4593 436.454 84.5298 435.229C87.6521 437.459 90.5848 439.944 93.2979 442.658C96.0197 445.379 98.5067 448.326 100.732 451.467L100.737 451.461ZM95.8234 502.143C97.8588 498.562 99.5029 494.772 100.727 490.839C96.2662 497.112 90.7903 502.596 84.5247 507.067C88.4543 505.836 92.2405 504.187 95.8183 502.148L95.8234 502.143ZM94.373 437.739C91.4936 433.189 87.8011 429.207 83.4801 425.994C81.4382 425.676 79.3748 425.517 77.3084 425.517C74.0192 425.531 70.7405 425.89 67.5261 426.587C72.1755 428.088 76.6252 430.148 80.7771 432.723C85.4913 433.856 90.0538 435.547 94.3679 437.759L94.373 437.739ZM83.475 516.271C87.7954 513.059 91.4864 509.078 94.3629 504.527C90.0482 506.733 85.4857 508.417 80.772 509.542C76.6192 512.115 72.1697 514.176 67.521 515.678C70.7356 516.374 74.0143 516.731 77.3033 516.743C79.3696 516.745 81.433 516.587 83.475 516.271ZM85.2398 482.883C92.664 474.226 89.8038 459.276 87.2682 449.661C84.0582 455.366 76.8064 459.423 70.7159 460.453C64.9955 461.431 58.7428 459.91 53.4079 461.573C41.237 465.372 40.4915 479.546 46.8153 483.151L47.1196 483.4C47.1703 483.4 58.2762 482.193 63.7227 480.58C71.6845 478.212 80.6706 471.701 84.0075 463.668C81.979 472.116 74.0882 479.855 66.4713 483.156C62.4143 484.916 59.4122 485.433 52.7334 486.98C51.1473 487.379 49.6482 488.067 48.3113 489.009C55.8573 484.201 76.0964 493.527 85.2448 482.878L85.2398 482.883ZM77.3033 424.138C78.5103 424.138 79.6919 424.189 80.8532 424.285C76.0424 421.278 70.4835 419.684 64.8104 419.684C59.1374 419.684 53.5785 421.278 48.7677 424.285C49.929 424.189 51.1157 424.138 52.3175 424.138C56.5358 424.16 60.7337 424.724 64.8079 425.816C68.8837 424.723 73.0834 424.159 77.3033 424.138ZM80.8532 517.996C79.6902 518.094 78.5069 518.144 77.3033 518.148C73.0852 518.125 68.8875 517.56 64.813 516.469C60.7383 517.56 56.5407 518.124 52.3226 518.148C51.1157 518.148 49.9341 518.097 48.7728 518.001C53.5829 521.009 59.1421 522.604 64.8155 522.604C70.489 522.604 76.0481 521.009 80.8583 518.001L80.8532 517.996ZM76.3804 431.841C72.7019 429.9 68.8211 428.369 64.8079 427.277C60.7945 428.369 56.9136 429.899 53.2354 431.841C60.8932 430.532 68.7176 430.532 76.3753 431.841H76.3804ZM64.813 515.034C68.8261 513.942 72.707 512.411 76.3855 510.47C68.7277 511.779 60.9033 511.779 53.2456 510.47C56.9221 512.411 60.8013 513.942 64.813 515.034ZM62.0999 426.602C58.8872 425.905 55.6102 425.546 52.3226 425.532C50.2562 425.532 48.1928 425.691 46.151 426.009C41.8266 429.222 38.1321 433.206 35.253 437.759C39.5741 435.55 44.1434 433.865 48.8641 432.739C53.0112 430.165 57.4557 428.104 62.0999 426.602ZM52.3175 516.743C55.6049 516.731 58.8819 516.374 62.0948 515.678C57.4527 514.175 53.01 512.115 48.8641 509.542C44.149 508.416 39.5849 506.732 35.2682 504.527C38.1476 509.077 41.8401 513.058 46.1611 516.271C48.1981 516.587 50.2563 516.744 52.3175 516.743ZM42.8598 490.094C43.4883 490.083 44.0994 489.886 44.6159 489.527C45.1324 489.169 45.5311 488.666 45.7617 488.081C45.9922 487.496 46.0442 486.856 45.9112 486.242C45.7781 485.627 45.4659 485.066 45.014 484.629C44.5621 484.192 43.9909 483.899 43.3724 483.786C42.7539 483.674 42.116 483.747 41.5392 483.997C40.9624 484.247 40.4727 484.663 40.1318 485.191C39.791 485.719 39.6144 486.336 39.6243 486.965C39.6296 487.383 39.7177 487.797 39.8834 488.181C40.0492 488.565 40.2894 488.913 40.5902 489.203C40.891 489.494 41.2464 489.723 41.636 489.876C42.0255 490.028 42.4414 490.103 42.8598 490.094ZM45.0962 435.229C41.1682 436.453 37.3835 438.097 33.8077 440.132C31.7646 443.721 30.1154 447.519 28.8886 451.461C33.3563 445.186 38.8411 439.701 45.1164 435.234L45.0962 435.229ZM33.8026 502.168C37.3809 504.202 41.1671 505.846 45.0962 507.072C41.974 504.841 39.0413 502.356 36.3281 499.643C33.6057 496.919 31.1171 493.97 28.8886 490.829C30.1163 494.768 31.7655 498.563 33.8077 502.148L33.8026 502.168ZM32.7884 439.118C35.4986 434.385 39.0032 430.153 43.1488 426.608C37.5834 427.879 32.4896 430.695 28.4528 434.732C24.416 438.769 21.6001 443.863 20.3284 449.428C23.8613 445.304 28.0758 441.817 32.7884 439.118ZM43.1488 515.693C39.0023 512.141 35.4978 507.903 32.7884 503.162C28.0701 500.459 23.8505 496.967 20.3132 492.837C21.5848 498.403 24.4008 503.497 28.4376 507.533C32.4744 511.57 37.5682 514.386 43.1336 515.658L43.1488 515.693ZM26.4139 455.25C27.5413 450.516 29.2319 445.934 31.4496 441.603C26.8989 444.467 22.9156 448.146 19.6996 452.455C18.9197 457.774 19.1242 463.19 20.3031 468.435C21.7998 463.806 23.8445 459.373 26.3936 455.229L26.4139 455.25ZM31.4496 500.718C29.2319 496.387 27.5413 491.805 26.4139 487.071C23.868 482.934 21.825 478.508 20.3284 473.886C19.1495 479.131 18.9449 484.547 19.725 489.866C22.9306 494.162 26.8978 497.834 31.4293 500.698L31.4496 500.718ZM24.5223 471.143C24.5229 467.292 24.8486 463.448 25.496 459.651C23.5793 463.308 22.0627 467.161 20.9725 471.143C22.0676 475.125 23.5893 478.978 25.5112 482.634C24.8587 478.838 24.5279 474.994 24.5223 471.143ZM19.5221 471.143C18.0957 465.896 17.5811 460.443 18.0007 455.021C14.9631 459.85 13.3515 465.438 13.3515 471.143C13.3515 476.847 14.9631 482.436 18.0007 487.264C17.5811 481.843 18.0957 476.39 19.5221 471.143Z" fill="#68BD45"/>
<path d="M87.2581 449.661C89.7937 459.296 92.664 474.226 85.2297 482.883C76.1015 493.532 55.8421 484.201 48.3063 488.968C49.6432 488.026 51.1422 487.338 52.7283 486.94C59.4071 485.418 62.4143 484.876 66.4662 483.116C74.073 479.814 81.9638 472.076 84.0024 463.627C80.6554 471.66 71.6743 478.176 63.7176 480.54C58.2914 482.152 47.1703 483.359 47.1145 483.359L46.8102 483.111C40.4763 479.51 41.2319 465.336 53.4028 461.533C58.7377 459.869 64.9905 461.391 70.7108 460.412C76.8013 459.418 84.0531 455.361 87.2581 449.661Z" fill="white"/>
</g>
<g clip-path="url(#clip10)">
<path d="M647.066 473.487C647.066 473.487 643.946 475.156 649.236 475.633C655.611 476.349 659.002 476.229 666.055 475.037C666.055 475.037 667.954 476.11 670.531 476.945C654.661 482.907 634.587 476.587 647.066 473.487L647.066 473.487ZM645.031 465.737C645.031 465.737 641.64 468.002 646.93 468.479C653.848 469.075 659.273 469.194 668.632 467.525C668.632 467.525 669.853 468.717 671.887 469.314C652.763 474.322 631.332 469.791 645.031 465.737L645.031 465.737ZM682.467 479.329C682.467 479.329 684.773 480.999 679.89 482.31C670.802 484.695 641.776 485.41 633.637 482.31C630.789 481.237 636.215 479.687 637.978 479.449C639.741 479.091 640.691 479.091 640.691 479.091C637.571 477.183 619.938 483.026 631.738 484.695C664.156 489.345 690.877 482.668 682.467 479.329L682.467 479.329ZM648.558 457.629C648.558 457.629 633.773 460.729 643.268 461.802C647.337 462.279 655.34 462.16 662.8 461.683C668.903 461.206 675.007 460.252 675.007 460.252C675.007 460.252 672.837 461.086 671.345 461.921C656.289 465.379 627.398 463.829 635.672 460.252C642.725 457.271 648.558 457.629 648.558 457.629L648.558 457.629ZM675.007 470.625C690.199 463.71 683.145 457.032 678.262 457.867C677.042 458.105 676.499 458.344 676.499 458.344C676.499 458.344 676.906 457.629 677.856 457.39C687.486 454.409 695.082 466.333 674.736 470.983C674.736 470.983 674.871 470.864 675.007 470.625L675.007 470.625ZM650.05 489.464C664.699 490.299 687.079 488.988 687.621 482.907C687.621 482.907 686.536 485.291 675.55 487.08C663.071 489.107 647.608 488.868 638.521 487.557C638.521 487.557 640.42 488.988 650.05 489.464L650.05 489.464Z" fill="#4E7896"/>
<path d="M665.784 418.281C665.784 418.281 674.193 425.793 657.781 437.12C644.624 446.301 654.797 451.548 657.781 457.509C650.05 451.428 644.489 446.063 648.287 441.055C653.848 433.662 669.175 430.085 665.784 418.281V418.281ZM661.444 452.501C665.377 456.436 660.358 460.013 660.358 460.013C660.358 460.013 670.396 455.482 665.784 449.878C661.579 444.513 658.324 441.89 675.957 432.947C675.957 432.947 648.151 439.028 661.444 452.501L661.444 452.501ZM651.406 516.531V504.846C651.406 501.865 649.507 499.838 644.76 499.838C642.047 499.838 639.741 500.434 637.707 501.15L638.385 503.296C639.877 502.819 641.776 502.342 643.811 502.342C646.388 502.342 647.608 503.296 647.608 505.204V506.754H646.252C639.741 506.754 636.757 508.9 636.757 512.358C636.757 515.22 638.792 516.889 642.454 516.889C644.76 516.889 646.523 515.935 648.151 514.743L648.422 516.531H651.406H651.406ZM647.608 512.716C646.252 513.789 644.76 514.385 643.404 514.385C641.64 514.385 640.555 513.431 640.555 511.762C640.555 510.092 641.64 508.9 645.981 508.9H647.608V512.716H647.608ZM664.156 516.531H659.409L653.712 500.196H657.781L661.308 510.212L662.122 513.193C663.885 508.9 665.241 504.488 665.784 500.196H669.853C668.768 505.561 666.869 511.404 664.156 516.531H664.156ZM686.13 516.531V504.846C686.13 501.865 684.231 499.838 679.483 499.838C676.771 499.838 674.465 500.434 672.43 501.15L672.973 503.296C674.6 502.819 676.499 502.342 678.534 502.342C681.111 502.342 682.332 503.296 682.332 505.204V506.754H680.975C674.465 506.754 671.481 508.9 671.481 512.358C671.481 515.22 673.38 516.889 677.042 516.889C679.483 516.889 681.247 515.935 682.874 514.743L683.146 516.531H686.13ZM682.332 512.716C680.975 513.789 679.483 514.385 678.127 514.385C676.364 514.385 675.279 513.431 675.279 511.762C675.279 510.092 676.364 508.9 680.704 508.9H682.332V512.716H682.332ZM632.553 519.274C631.468 520.704 629.84 521.778 627.805 522.374L626.042 520.466C627.398 519.75 628.755 518.677 629.297 517.724C629.84 516.889 629.976 515.696 629.976 512.954V494.353H634.045V512.716C634.045 516.412 633.638 517.843 632.553 519.274L632.553 519.274Z" fill="#F58219"/>
</g>
<defs>
<clipPath id="clip0">
<rect width="97.357" height="105.719" fill="white" transform="translate(406.33 205.923)"/>
</clipPath>
<clipPath id="clip1">
<rect width="101.251" height="105.719" fill="white" transform="translate(208.681 418.281)"/>
</clipPath>
<clipPath id="clip2">
<rect width="129.809" height="105.719" fill="white" transform="translate(0 205.923)"/>
</clipPath>
<clipPath id="clip3">
<rect width="124.617" height="105.719" fill="white" transform="translate(595.705 206.842)"/>
</clipPath>
<clipPath id="clip4">
<rect width="101.251" height="105.719" fill="white" transform="translate(607.656 6.43518)"/>
</clipPath>
<clipPath id="clip5">
<rect width="80.4818" height="105.719" fill="white" transform="translate(218.793)"/>
</clipPath>
<clipPath id="clip6">
<rect width="101.251" height="105.719" fill="white" transform="translate(14.7086)"/>
</clipPath>
<clipPath id="clip7">
<rect width="101.251" height="105.719" fill="white" transform="translate(208.681 205.923)"/>
</clipPath>
<clipPath id="clip8">
<rect width="101.251" height="105.719" fill="white" transform="translate(402.652 3.67725)"/>
</clipPath>
<clipPath id="clip9">
<rect width="105.719" height="105.719" fill="white" transform="translate(11.9508 418.281)"/>
</clipPath>
<clipPath id="clip10">
<rect width="63.4316" height="105.719" fill="white" transform="translate(626.042 418.281)"/>
</clipPath>
</defs>
</svg>
