<svg width="1111" height="133" viewBox="0 0 1111 133" fill="none" xmlns="http://www.w3.org/2000/svg">
<path d="M75.1 129.85H38.5C25.4 129.85 15.7 126.45 9.4 119.65C3.2 112.85 0.1 104.05 0.1 93.25V51.1C0.1 45.6 0.9 40.85 2.5 36.85C4.1 32.75 6.45 29.35 9.55 26.65L29.05 10.3C32.15 7.69999 36.1 5.74999 40.9 4.45C45.7 3.15 51.35 2.5 57.85 2.5H94.45C96.85 2.5 98.6 3.05 99.7 4.14999C100.8 5.25 101.35 7 101.35 9.4V27.55C101.35 28.85 101.15 29.95 100.75 30.85C100.45 31.75 99.95 32.5 99.25 33.1L79.75 49.3C79.35 49.7 78.7 50.05 77.8 50.35C77 50.65 76.1 50.8 75.1 50.8H56.65V76.15C56.65 78.25 57.3 79.75 58.6 80.65C59.9 81.45 61.8 81.85 64.3 81.85H94.45C96.85 81.85 98.6 82.4 99.7 83.5C100.8 84.6 101.35 86.35 101.35 88.75V106.6C101.35 107.9 101.15 109 100.75 109.9C100.45 110.8 99.95 111.55 99.25 112.15L79.75 128.35C79.35 128.75 78.7 129.1 77.8 129.4C77 129.7 76.1 129.85 75.1 129.85ZM94.45 112C96.35 112 97.7 111.6 98.5 110.8C99.4 109.9 99.85 108.5 99.85 106.6V88.75C99.85 86.85 99.4 85.5 98.5 84.7C97.7 83.8 96.35 83.35 94.45 83.35H64.3C61.2 83.35 58.9 82.8 57.4 81.7C55.9 80.5 55.15 78.65 55.15 76.15V40.45C55.15 37.95 55.9 36.1 57.4 34.9C58.9 33.6 61.2 32.95 64.3 32.95H94.45C96.35 32.95 97.7 32.55 98.5 31.75C99.4 30.85 99.85 29.45 99.85 27.55V9.4C99.85 7.5 99.4 6.15 98.5 5.35C97.7 4.45 96.35 4 94.45 4H57.85C45.35 4 36.05 6.55 29.95 11.65C23.95 16.65 20.95 24.35 20.95 34.75V81.4C20.95 91.8 23.95 99.5 29.95 104.5C36.05 109.5 45.35 112 57.85 112H94.45ZM86.2 97V98.5H61.15C51.45 98.5 45 97 41.8 94C38.7 91 37.15 86.05 37.15 79.15V37.15C37.15 30.05 38.75 25 41.95 22C45.15 19 51.55 17.5 61.15 17.5H86.2V19H61.15C52.35 19 46.4 20.4 43.3 23.2C40.2 25.9 38.65 30.55 38.65 37.15V79.15C38.65 85.65 40.15 90.25 43.15 92.95C46.15 95.65 52.15 97 61.15 97H86.2ZM195.648 122.65C192.148 125.65 187.248 127.95 180.948 129.55C174.648 131.25 166.548 132.1 156.648 132.1C146.848 132.1 138.798 131.05 132.498 128.95C126.298 126.95 121.398 124.25 117.798 120.85C114.298 117.45 111.848 113.55 110.448 109.15C109.148 104.75 108.498 100.2 108.498 95.5V48.85C108.498 44.25 109.148 40 110.448 36.1C111.748 32.1 114.098 28.7 117.498 25.9L136.998 9.69999C140.498 6.7 145.348 4.4 151.548 2.79999C157.848 1.09999 165.998 0.24999 175.998 0.24999C185.798 0.24999 193.798 1.04999 199.998 2.65C206.298 4.24999 211.198 6.49999 214.698 9.4C218.298 12.2 220.748 15.6 222.048 19.6C223.348 23.5 223.998 27.8 223.998 32.5V83.65C223.998 88.25 223.348 92.5 222.048 96.4C220.748 100.3 218.398 103.65 214.998 106.45L195.648 122.65ZM222.498 83.65V32.5C222.498 27.9 221.798 23.75 220.398 20.05C219.098 16.25 216.698 13 213.198 10.3C209.798 7.59999 205.048 5.49999 198.948 4C192.948 2.5 185.298 1.75 175.998 1.75C166.698 1.75 158.998 2.5 152.898 4C146.798 5.49999 141.998 7.59999 138.498 10.3C135.098 13 132.698 16.25 131.298 20.05C129.998 23.75 129.348 27.9 129.348 32.5V83.65C129.348 88.25 129.998 92.45 131.298 96.25C132.698 99.95 135.098 103.15 138.498 105.85C141.998 108.45 146.798 110.5 152.898 112C158.998 113.5 166.698 114.25 175.998 114.25C185.298 114.25 192.948 113.5 198.948 112C205.048 110.5 209.798 108.45 213.198 105.85C216.698 103.15 219.098 99.95 220.398 96.25C221.798 92.45 222.498 88.25 222.498 83.65ZM206.148 80.2C206.148 86.2 203.998 91.1 199.698 94.9C195.398 98.6 187.398 100.45 175.698 100.45C163.998 100.45 156.048 98.6 151.848 94.9C147.648 91.1 145.548 86.2 145.548 80.2V35.95C145.548 29.95 147.648 25.1 151.848 21.4C156.048 17.6 163.998 15.7 175.698 15.7C187.398 15.7 195.398 17.6 199.698 21.4C203.998 25.1 206.148 29.95 206.148 35.95V80.2ZM147.048 80.2C147.048 85.8 149.048 90.35 153.048 93.85C157.048 97.25 164.598 98.95 175.698 98.95C186.798 98.95 194.398 97.25 198.498 93.85C202.598 90.35 204.648 85.8 204.648 80.2V35.95C204.648 30.35 202.598 25.85 198.498 22.45C194.398 18.95 186.798 17.2 175.698 17.2C164.598 17.2 157.048 18.95 153.048 22.45C149.048 25.85 147.048 30.35 147.048 35.95V80.2ZM163.398 78.25V37.9C163.398 36 164.148 34.4 165.648 33.1C167.148 31.7 170.598 31 175.998 31C181.398 31 184.848 31.7 186.348 33.1C187.848 34.4 188.598 36 188.598 37.9V78.25C188.598 80.25 187.848 81.95 186.348 83.35C184.848 84.65 181.398 85.3 175.998 85.3C170.598 85.3 167.148 84.65 165.648 83.35C164.148 81.95 163.398 80.25 163.398 78.25ZM164.898 78.25C164.898 79.25 165.098 80.15 165.498 80.95C165.898 81.65 166.648 82.25 167.748 82.75V54.25C167.748 53.25 167.548 52.4 167.148 51.7C166.748 50.9 165.998 50.3 164.898 49.9V78.25ZM276.336 18.7L331.536 80.8V17.5H333.036V98.5H331.536V83.05L274.836 19.45C274.736 19.35 274.586 19.25 274.386 19.15C274.286 19.05 274.186 19 274.086 19C273.986 19 273.886 19.05 273.786 19.15C273.786 19.25 273.786 19.35 273.786 19.45V98.5H272.286V19.15C272.286 18.55 272.486 18.1 272.886 17.8C273.286 17.5 273.686 17.35 274.086 17.35C274.486 17.35 274.836 17.45 275.136 17.65C275.436 17.85 275.836 18.2 276.336 18.7ZM284.436 112C286.336 112 287.686 111.6 288.486 110.8C289.386 109.9 289.836 108.5 289.836 106.6V57.1L315.486 88.15V106.6C315.486 108.5 315.886 109.9 316.686 110.8C317.586 111.6 318.986 112 320.886 112H343.386C345.286 112 346.636 111.6 347.436 110.8C348.336 109.9 348.786 108.5 348.786 106.6V9.4C348.786 7.5 348.336 6.15 347.436 5.35C346.636 4.45 345.286 4 343.386 4H320.886C318.986 4 317.586 4.45 316.686 5.35C315.886 6.15 315.486 7.5 315.486 9.4V41.35L286.386 8.05C285.086 6.55 283.736 5.5 282.336 4.89999C281.036 4.29999 279.436 4 277.536 4H261.936C260.036 4 258.636 4.45 257.736 5.35C256.936 6.15 256.536 7.5 256.536 9.4V106.6C256.536 108.5 256.936 109.9 257.736 110.8C258.636 111.6 260.036 112 261.936 112H284.436ZM289.236 112.15L269.736 128.35C269.336 128.75 268.686 129.1 267.786 129.4C266.986 129.7 266.086 129.85 265.086 129.85H242.586C240.186 129.85 238.436 129.3 237.336 128.2C236.236 127.1 235.686 125.35 235.686 122.95V25.75C235.686 24.45 235.836 23.35 236.136 22.45C236.536 21.55 237.086 20.8 237.786 20.2L257.136 3.85C257.636 3.45 258.286 3.14999 259.086 2.94999C259.986 2.65 260.936 2.5 261.936 2.5H277.536C279.736 2.5 281.586 2.85 283.086 3.54999C284.586 4.25 286.086 5.4 287.586 6.99999L297.936 19L316.086 3.85C316.586 3.45 317.236 3.14999 318.036 2.94999C318.936 2.65 319.886 2.5 320.886 2.5H343.386C345.786 2.5 347.536 3.05 348.636 4.14999C349.736 5.25 350.286 7 350.286 9.4V106.6C350.286 107.9 350.086 109 349.686 109.9C349.386 110.8 348.886 111.55 348.186 112.15L328.686 128.35C328.286 128.75 327.636 129.1 326.736 129.4C325.936 129.7 325.036 129.85 324.036 129.85H301.536C299.136 129.85 297.386 129.3 296.286 128.2C295.186 127.1 294.636 125.35 294.636 122.95V105.1L291.336 101.05V106.6C291.336 107.9 291.136 109 290.736 109.9C290.436 110.8 289.936 111.55 289.236 112.15ZM416.066 129.85H391.766C389.366 129.85 387.616 129.3 386.516 128.2C385.416 127.1 384.866 125.35 384.866 122.95V50.8H364.316C361.916 50.8 360.166 50.25 359.066 49.15C357.966 48.05 357.416 46.3 357.416 43.9V25.75C357.416 24.45 357.566 23.35 357.866 22.45C358.266 21.55 358.816 20.8 359.516 20.2L378.866 3.85C379.366 3.45 380.016 3.14999 380.816 2.94999C381.716 2.65 382.666 2.5 383.666 2.5H462.866C465.266 2.5 467.016 3.05 468.116 4.14999C469.216 5.25 469.766 7 469.766 9.4V27.55C469.766 28.85 469.566 29.95 469.166 30.85C468.866 31.75 468.366 32.5 467.666 33.1L448.166 49.3C447.766 49.7 447.116 50.05 446.216 50.35C445.416 50.65 444.516 50.8 443.516 50.8H442.316V106.6C442.316 107.9 442.116 109 441.716 109.9C441.416 110.8 440.916 111.55 440.216 112.15L420.716 128.35C420.316 128.75 419.666 129.1 418.766 129.4C417.966 129.7 417.066 129.85 416.066 129.85ZM435.416 112C437.316 112 438.666 111.6 439.466 110.8C440.366 109.9 440.816 108.5 440.816 106.6V32.95H462.866C464.766 32.95 466.116 32.55 466.916 31.75C467.816 30.85 468.266 29.45 468.266 27.55V9.4C468.266 7.5 467.816 6.15 466.916 5.35C466.116 4.45 464.766 4 462.866 4H383.666C381.766 4 380.366 4.45 379.466 5.35C378.666 6.15 378.266 7.5 378.266 9.4V27.55C378.266 29.45 378.666 30.85 379.466 31.75C380.366 32.55 381.766 32.95 383.666 32.95H405.716V106.6C405.716 108.5 406.116 109.9 406.916 110.8C407.816 111.6 409.216 112 411.116 112H435.416ZM422.516 98.5V19H391.766V17.5H454.766V19H424.016V98.5H422.516ZM506.939 66.55V71.2H565.439V66.55C565.439 63.85 565.189 61.35 564.689 59.05C564.289 56.75 563.739 54.6 563.039 52.6L552.689 28.15C551.589 25.55 550.439 23.4 549.239 21.7C548.039 19.9 546.039 19 543.239 19H528.539C525.539 19 523.439 19.9 522.239 21.7C521.039 23.4 519.939 25.5 518.939 28L509.339 52.6C508.639 54.6 508.039 56.75 507.539 59.05C507.139 61.35 506.939 63.85 506.939 66.55ZM530.939 35.5C531.339 34.6 531.739 33.95 532.139 33.55C532.639 33.15 533.189 32.95 533.789 32.95H537.539C538.139 32.95 538.639 33.15 539.039 33.55C539.539 33.95 539.989 34.6 540.389 35.5L547.439 58.3H523.889L530.939 35.5ZM565.439 98.5V72.7H506.939V98.5H505.439V66.55C505.439 63.75 505.639 61.2 506.039 58.9C506.539 56.5 507.189 54.2 507.989 52L517.589 27.4C518.689 24.6 519.939 22.25 521.339 20.35C522.739 18.45 525.139 17.5 528.539 17.5H543.239C546.539 17.5 548.839 18.45 550.139 20.35C551.539 22.25 552.839 24.65 554.039 27.55L564.389 52C565.189 54.2 565.789 56.5 566.189 58.9C566.689 61.2 566.939 63.75 566.939 66.55V98.5H565.439ZM522.389 106.6V85.6H548.939V106.6C548.939 108.5 549.389 109.9 550.289 110.8C551.289 111.6 552.789 112 554.789 112H577.439C579.339 112 580.689 111.6 581.489 110.8C582.389 109.9 582.839 108.5 582.839 106.6V67C582.839 64 582.339 60.55 581.339 56.65C580.439 52.75 578.989 48.2 576.989 43L563.939 8.94999C563.339 7.24999 562.389 5.99999 561.089 5.2C559.889 4.4 558.339 4 556.439 4H516.089C514.089 4 512.439 4.4 511.139 5.2C509.939 5.99999 509.039 7.24999 508.439 8.94999L495.389 43C493.389 48.2 491.889 52.75 490.889 56.65C489.989 60.55 489.539 64 489.539 67V106.6C489.539 108.5 489.939 109.9 490.739 110.8C491.639 111.6 493.039 112 494.939 112H516.989C518.889 112 520.239 111.6 521.039 110.8C521.939 109.9 522.389 108.5 522.389 106.6ZM502.289 128.35C501.889 128.75 501.239 129.1 500.339 129.4C499.539 129.7 498.639 129.85 497.639 129.85H475.589C473.189 129.85 471.439 129.3 470.339 128.2C469.239 127.1 468.689 125.35 468.689 122.95V83.35C468.689 80.25 469.139 76.75 470.039 72.85C471.039 68.85 472.589 64.15 474.689 58.75L487.589 24.85C487.889 23.95 488.239 23.2 488.639 22.6C489.139 21.9 489.639 21.3 490.139 20.8L490.289 20.65L509.489 4.6C510.289 3.89999 511.239 3.39999 512.339 3.1C513.439 2.7 514.689 2.5 516.089 2.5H556.439C558.739 2.5 560.589 3 561.989 4C563.489 4.9 564.589 6.35 565.289 8.34999L578.339 42.4C580.439 47.8 581.939 52.5 582.839 56.5C583.839 60.4 584.339 63.9 584.339 67V106.6C584.339 107.9 584.139 109 583.739 109.9C583.439 110.8 582.939 111.55 582.239 112.15L562.739 128.35C562.339 128.75 561.689 129.1 560.789 129.4C559.989 129.7 559.089 129.85 558.089 129.85H535.439C532.939 129.85 531.089 129.25 529.889 128.05C528.689 126.95 528.089 125.25 528.089 122.95V103.45H523.889V106.6C523.889 107.9 523.689 109 523.289 109.9C522.989 110.8 522.489 111.55 521.789 112.15L502.289 128.35ZM668.801 129.85H632.201C619.101 129.85 609.401 126.45 603.101 119.65C596.901 112.85 593.801 104.05 593.801 93.25V51.1C593.801 45.6 594.601 40.85 596.201 36.85C597.801 32.75 600.151 29.35 603.251 26.65L622.751 10.3C625.851 7.69999 629.801 5.74999 634.601 4.45C639.401 3.15 645.051 2.5 651.551 2.5H688.151C690.551 2.5 692.301 3.05 693.401 4.14999C694.501 5.25 695.051 7 695.051 9.4V27.55C695.051 28.85 694.851 29.95 694.451 30.85C694.151 31.75 693.651 32.5 692.951 33.1L673.451 49.3C673.051 49.7 672.401 50.05 671.501 50.35C670.701 50.65 669.801 50.8 668.801 50.8H650.351V76.15C650.351 78.25 651.001 79.75 652.301 80.65C653.601 81.45 655.501 81.85 658.001 81.85H688.151C690.551 81.85 692.301 82.4 693.401 83.5C694.501 84.6 695.051 86.35 695.051 88.75V106.6C695.051 107.9 694.851 109 694.451 109.9C694.151 110.8 693.651 111.55 692.951 112.15L673.451 128.35C673.051 128.75 672.401 129.1 671.501 129.4C670.701 129.7 669.801 129.85 668.801 129.85ZM688.151 112C690.051 112 691.401 111.6 692.201 110.8C693.101 109.9 693.551 108.5 693.551 106.6V88.75C693.551 86.85 693.101 85.5 692.201 84.7C691.401 83.8 690.051 83.35 688.151 83.35H658.001C654.901 83.35 652.601 82.8 651.101 81.7C649.601 80.5 648.851 78.65 648.851 76.15V40.45C648.851 37.95 649.601 36.1 651.101 34.9C652.601 33.6 654.901 32.95 658.001 32.95H688.151C690.051 32.95 691.401 32.55 692.201 31.75C693.101 30.85 693.551 29.45 693.551 27.55V9.4C693.551 7.5 693.101 6.15 692.201 5.35C691.401 4.45 690.051 4 688.151 4H651.551C639.051 4 629.751 6.55 623.651 11.65C617.651 16.65 614.651 24.35 614.651 34.75V81.4C614.651 91.8 617.651 99.5 623.651 104.5C629.751 109.5 639.051 112 651.551 112H688.151ZM679.901 97V98.5H654.851C645.151 98.5 638.701 97 635.501 94C632.401 91 630.851 86.05 630.851 79.15V37.15C630.851 30.05 632.451 25 635.651 22C638.851 19 645.251 17.5 654.851 17.5H679.901V19H654.851C646.051 19 640.101 20.4 637.001 23.2C633.901 25.9 632.351 30.55 632.351 37.15V79.15C632.351 85.65 633.851 90.25 636.851 92.95C639.851 95.65 645.851 97 654.851 97H679.901ZM757.082 129.85H732.782C730.382 129.85 728.632 129.3 727.532 128.2C726.432 127.1 725.882 125.35 725.882 122.95V50.8H705.332C702.932 50.8 701.182 50.25 700.082 49.15C698.982 48.05 698.432 46.3 698.432 43.9V25.75C698.432 24.45 698.582 23.35 698.882 22.45C699.282 21.55 699.832 20.8 700.532 20.2L719.882 3.85C720.382 3.45 721.032 3.14999 721.832 2.94999C722.732 2.65 723.682 2.5 724.682 2.5H803.882C806.282 2.5 808.032 3.05 809.132 4.14999C810.232 5.25 810.782 7 810.782 9.4V27.55C810.782 28.85 810.582 29.95 810.182 30.85C809.882 31.75 809.382 32.5 808.682 33.1L789.182 49.3C788.782 49.7 788.132 50.05 787.232 50.35C786.432 50.65 785.532 50.8 784.532 50.8H783.332V106.6C783.332 107.9 783.132 109 782.732 109.9C782.432 110.8 781.932 111.55 781.232 112.15L761.732 128.35C761.332 128.75 760.682 129.1 759.782 129.4C758.982 129.7 758.082 129.85 757.082 129.85ZM776.432 112C778.332 112 779.682 111.6 780.482 110.8C781.382 109.9 781.832 108.5 781.832 106.6V32.95H803.882C805.782 32.95 807.132 32.55 807.932 31.75C808.832 30.85 809.282 29.45 809.282 27.55V9.4C809.282 7.5 808.832 6.15 807.932 5.35C807.132 4.45 805.782 4 803.882 4H724.682C722.782 4 721.382 4.45 720.482 5.35C719.682 6.15 719.282 7.5 719.282 9.4V27.55C719.282 29.45 719.682 30.85 720.482 31.75C721.382 32.55 722.782 32.95 724.682 32.95H746.732V106.6C746.732 108.5 747.132 109.9 747.932 110.8C748.832 111.6 750.232 112 752.132 112H776.432ZM763.532 98.5V19H732.782V17.5H795.782V19H765.032V98.5H763.532ZM938.925 54.25C940.725 54.25 942.025 53.85 942.825 53.05C943.625 52.25 944.875 50.55 946.575 47.95L964.875 20.05C965.475 19.05 966.125 18.4 966.825 18.1C967.625 17.7 968.425 17.5 969.225 17.5H971.775C973.175 17.5 974.175 17.9 974.775 18.7C975.475 19.4 975.825 20.55 975.825 22.15V98.5H974.325V22.15C974.325 21.35 974.125 20.65 973.725 20.05C973.425 19.35 972.775 19 971.775 19H969.525C968.825 19 968.225 19.1 967.725 19.3C967.225 19.5 966.675 20.1 966.075 21.1L947.775 48.7C945.975 51.4 944.575 53.25 943.575 54.25C942.675 55.25 941.125 55.75 938.925 55.75C936.725 55.75 935.125 55.25 934.125 54.25C933.225 53.25 931.875 51.4 930.075 48.7L911.775 21.1C911.175 20.1 910.575 19.5 909.975 19.3C909.475 19.1 908.875 19 908.175 19H905.925C904.925 19 904.275 19.35 903.975 20.05C903.675 20.65 903.525 21.35 903.525 22.15V98.5H902.025V22.15C902.025 20.55 902.325 19.4 902.925 18.7C903.625 17.9 904.625 17.5 905.925 17.5H908.475C909.275 17.5 910.075 17.7 910.875 18.1C911.675 18.4 912.375 19.05 912.975 20.05L931.275 47.95C932.975 50.55 934.225 52.25 935.025 53.05C935.825 53.85 937.125 54.25 938.925 54.25ZM913.875 112C915.775 112 917.125 111.6 917.925 110.8C918.825 109.9 919.275 108.5 919.275 106.6V53.8L928.125 70.15C929.025 71.85 930.075 73.1 931.275 73.9C932.575 74.6 934.175 74.95 936.075 74.95H942.075C943.975 74.95 945.525 74.6 946.725 73.9C948.025 73.1 949.125 71.85 950.025 70.15L958.875 53.8V106.6C958.875 108.5 959.275 109.9 960.075 110.8C960.975 111.6 962.375 112 964.275 112H987.375C989.275 112 990.625 111.6 991.425 110.8C992.325 109.9 992.775 108.5 992.775 106.6V9.4C992.775 7.5 992.325 6.15 991.425 5.35C990.625 4.45 989.275 4 987.375 4H963.075C961.475 4 960.125 4.34999 959.025 5.04999C958.025 5.74999 957.075 6.89999 956.175 8.49999L942.825 32.95C942.325 33.85 941.875 34.5 941.475 34.9C941.175 35.3 940.725 35.5 940.125 35.5H938.775C938.175 35.5 937.675 35.3 937.275 34.9C936.975 34.5 936.575 33.85 936.075 32.95L922.575 8.49999C921.675 6.89999 920.675 5.74999 919.575 5.04999C918.575 4.34999 917.275 4 915.675 4H891.525C889.625 4 888.225 4.45 887.325 5.35C886.525 6.15 886.125 7.5 886.125 9.4V106.6C886.125 108.5 886.525 109.9 887.325 110.8C888.225 111.6 889.625 112 891.525 112H913.875ZM918.675 112.15L899.175 128.35C898.775 128.75 898.125 129.1 897.225 129.4C896.425 129.7 895.525 129.85 894.525 129.85H872.175C869.775 129.85 868.025 129.3 866.925 128.2C865.825 127.1 865.275 125.35 865.275 122.95V25.75C865.275 24.45 865.425 23.35 865.725 22.45C866.125 21.55 866.675 20.8 867.375 20.2L886.725 3.85C887.225 3.45 887.875 3.14999 888.675 2.94999C889.575 2.65 890.525 2.5 891.525 2.5H915.675C917.575 2.5 919.125 2.89999 920.325 3.69999C921.625 4.49999 922.825 5.84999 923.925 7.74999L934.125 26.5L935.475 24.1C935.875 23.4 936.275 22.75 936.675 22.15C937.175 21.45 937.675 20.9 938.175 20.5L957.525 4.29999C958.325 3.69999 959.125 3.24999 959.925 2.94999C960.825 2.65 961.875 2.5 963.075 2.5H987.375C989.775 2.5 991.525 3.05 992.625 4.14999C993.725 5.25 994.275 7 994.275 9.4V106.6C994.275 107.9 994.075 109 993.675 109.9C993.375 110.8 992.875 111.55 992.175 112.15L972.675 128.35C972.275 128.75 971.625 129.1 970.725 129.4C969.925 129.7 969.025 129.85 968.025 129.85H944.925C942.425 129.85 940.625 129.3 939.525 128.2C938.525 127.1 938.025 125.35 938.025 122.95V83.35L929.175 90.7C928.375 91.4 927.425 91.95 926.325 92.35C925.325 92.65 924.125 92.8 922.725 92.8H920.775V106.6C920.775 107.9 920.575 109 920.175 109.9C919.875 110.8 919.375 111.55 918.675 112.15ZM1084.16 129.85H1014.56C1012.16 129.85 1010.41 129.3 1009.31 128.2C1008.21 127.1 1007.66 125.35 1007.66 122.95V25.75C1007.66 24.45 1007.81 23.35 1008.11 22.45C1008.51 21.55 1009.06 20.8 1009.76 20.2L1029.11 3.85C1029.61 3.45 1030.26 3.14999 1031.06 2.94999C1031.96 2.65 1032.91 2.5 1033.91 2.5H1103.51C1105.91 2.5 1107.66 3.05 1108.76 4.14999C1109.86 5.25 1110.41 7 1110.41 9.4V26.95C1110.41 28.25 1110.21 29.35 1109.81 30.25C1109.51 31.15 1109.01 31.9 1108.31 32.5L1095.41 43.15C1096.41 43.65 1097.11 44.4 1097.51 45.4C1098.01 46.4 1098.26 47.7 1098.26 49.3V65.35C1098.26 66.65 1098.06 67.75 1097.66 68.65C1097.36 69.55 1096.86 70.3 1096.16 70.9L1082.81 82.15H1103.51C1105.91 82.15 1107.66 82.7 1108.76 83.8C1109.86 84.9 1110.41 86.65 1110.41 89.05V106.6C1110.41 107.9 1110.21 109 1109.81 109.9C1109.51 110.8 1109.01 111.55 1108.31 112.15L1088.81 128.35C1088.41 128.75 1087.76 129.1 1086.86 129.4C1086.06 129.7 1085.16 129.85 1084.16 129.85ZM1103.51 112C1105.41 112 1106.76 111.6 1107.56 110.8C1108.46 109.9 1108.91 108.5 1108.91 106.6V89.05C1108.91 87.15 1108.46 85.8 1107.56 85C1106.76 84.1 1105.41 83.65 1103.51 83.65H1062.11V70.75H1091.36C1093.26 70.75 1094.61 70.35 1095.41 69.55C1096.31 68.65 1096.76 67.25 1096.76 65.35V49.3C1096.76 47.4 1096.31 46.05 1095.41 45.25C1094.61 44.35 1093.26 43.9 1091.36 43.9H1062.11V32.35H1103.51C1105.41 32.35 1106.76 31.95 1107.56 31.15C1108.46 30.25 1108.91 28.85 1108.91 26.95V9.4C1108.91 7.5 1108.46 6.15 1107.56 5.35C1106.76 4.45 1105.41 4 1103.51 4H1033.91C1032.01 4 1030.61 4.45 1029.71 5.35C1028.91 6.15 1028.51 7.5 1028.51 9.4V106.6C1028.51 108.5 1028.91 109.9 1029.71 110.8C1030.61 111.6 1032.01 112 1033.91 112H1103.51ZM1095.41 97V98.5H1044.86V17.5H1095.41V19H1046.36V56.65H1083.26V58.15H1046.36V97H1095.41Z" fill="#88CDFF"/>
</svg>
