<svg width="906" height="133" viewBox="0 0 906 133" fill="none" xmlns="http://www.w3.org/2000/svg">
<path d="M59.25 129.85H34.95C32.55 129.85 30.8 129.3 29.7 128.2C28.6 127.1 28.05 125.35 28.05 122.95V50.8H7.5C5.1 50.8 3.35 50.25 2.25 49.15C1.15 48.05 0.6 46.3 0.6 43.9V25.75C0.6 24.45 0.75 23.35 1.05 22.45C1.45 21.55 2 20.8 2.7 20.2L22.05 3.85C22.55 3.45 23.2 3.14999 24 2.94999C24.9 2.65 25.85 2.5 26.85 2.5H106.05C108.45 2.5 110.2 3.05 111.3 4.14999C112.4 5.25 112.95 7 112.95 9.4V27.55C112.95 28.85 112.75 29.95 112.35 30.85C112.05 31.75 111.55 32.5 110.85 33.1L91.35 49.3C90.95 49.7 90.3 50.05 89.4 50.35C88.6 50.65 87.7 50.8 86.7 50.8H85.5V106.6C85.5 107.9 85.3 109 84.9 109.9C84.6 110.8 84.1 111.55 83.4 112.15L63.9 128.35C63.5 128.75 62.85 129.1 61.95 129.4C61.15 129.7 60.25 129.85 59.25 129.85ZM78.6 112C80.5 112 81.85 111.6 82.65 110.8C83.55 109.9 84 108.5 84 106.6V32.95H106.05C107.95 32.95 109.3 32.55 110.1 31.75C111 30.85 111.45 29.45 111.45 27.55V9.4C111.45 7.5 111 6.15 110.1 5.35C109.3 4.45 107.95 4 106.05 4H26.85C24.95 4 23.55 4.45 22.65 5.35C21.85 6.15 21.45 7.5 21.45 9.4V27.55C21.45 29.45 21.85 30.85 22.65 31.75C23.55 32.55 24.95 32.95 26.85 32.95H48.9V106.6C48.9 108.5 49.3 109.9 50.1 110.8C51 111.6 52.4 112 54.3 112H78.6ZM65.7 98.5V19H34.95V17.5H97.95V19H67.2V98.5H65.7ZM204.896 122.65C201.396 125.65 196.496 127.95 190.196 129.55C183.896 131.25 175.796 132.1 165.896 132.1C156.096 132.1 148.046 131.05 141.746 128.95C135.546 126.95 130.646 124.25 127.046 120.85C123.546 117.45 121.096 113.55 119.696 109.15C118.396 104.75 117.746 100.2 117.746 95.5V48.85C117.746 44.25 118.396 40 119.696 36.1C120.996 32.1 123.346 28.7 126.746 25.9L146.246 9.69999C149.746 6.7 154.596 4.4 160.796 2.79999C167.096 1.09999 175.246 0.24999 185.246 0.24999C195.046 0.24999 203.046 1.04999 209.246 2.65C215.546 4.24999 220.446 6.49999 223.946 9.4C227.546 12.2 229.996 15.6 231.296 19.6C232.596 23.5 233.246 27.8 233.246 32.5V83.65C233.246 88.25 232.596 92.5 231.296 96.4C229.996 100.3 227.646 103.65 224.246 106.45L204.896 122.65ZM231.746 83.65V32.5C231.746 27.9 231.046 23.75 229.646 20.05C228.346 16.25 225.946 13 222.446 10.3C219.046 7.59999 214.296 5.49999 208.196 4C202.196 2.5 194.546 1.75 185.246 1.75C175.946 1.75 168.246 2.5 162.146 4C156.046 5.49999 151.246 7.59999 147.746 10.3C144.346 13 141.946 16.25 140.546 20.05C139.246 23.75 138.596 27.9 138.596 32.5V83.65C138.596 88.25 139.246 92.45 140.546 96.25C141.946 99.95 144.346 103.15 147.746 105.85C151.246 108.45 156.046 110.5 162.146 112C168.246 113.5 175.946 114.25 185.246 114.25C194.546 114.25 202.196 113.5 208.196 112C214.296 110.5 219.046 108.45 222.446 105.85C225.946 103.15 228.346 99.95 229.646 96.25C231.046 92.45 231.746 88.25 231.746 83.65ZM215.396 80.2C215.396 86.2 213.246 91.1 208.946 94.9C204.646 98.6 196.646 100.45 184.946 100.45C173.246 100.45 165.296 98.6 161.096 94.9C156.896 91.1 154.796 86.2 154.796 80.2V35.95C154.796 29.95 156.896 25.1 161.096 21.4C165.296 17.6 173.246 15.7 184.946 15.7C196.646 15.7 204.646 17.6 208.946 21.4C213.246 25.1 215.396 29.95 215.396 35.95V80.2ZM156.296 80.2C156.296 85.8 158.296 90.35 162.296 93.85C166.296 97.25 173.846 98.95 184.946 98.95C196.046 98.95 203.646 97.25 207.746 93.85C211.846 90.35 213.896 85.8 213.896 80.2V35.95C213.896 30.35 211.846 25.85 207.746 22.45C203.646 18.95 196.046 17.2 184.946 17.2C173.846 17.2 166.296 18.95 162.296 22.45C158.296 25.85 156.296 30.35 156.296 35.95V80.2ZM172.646 78.25V37.9C172.646 36 173.396 34.4 174.896 33.1C176.396 31.7 179.846 31 185.246 31C190.646 31 194.096 31.7 195.596 33.1C197.096 34.4 197.846 36 197.846 37.9V78.25C197.846 80.25 197.096 81.95 195.596 83.35C194.096 84.65 190.646 85.3 185.246 85.3C179.846 85.3 176.396 84.65 174.896 83.35C173.396 81.95 172.646 80.25 172.646 78.25ZM174.146 78.25C174.146 79.25 174.346 80.15 174.746 80.95C175.146 81.65 175.896 82.25 176.996 82.75V54.25C176.996 53.25 176.796 52.4 176.396 51.7C175.996 50.9 175.246 50.3 174.146 49.9V78.25ZM275.084 129.85H251.834C249.434 129.85 247.684 129.3 246.584 128.2C245.484 127.1 244.934 125.35 244.934 122.95V25.75C244.934 24.45 245.084 23.35 245.384 22.45C245.784 21.55 246.334 20.8 247.034 20.2L266.384 3.85C266.884 3.45 267.534 3.14999 268.334 2.94999C269.234 2.65 270.184 2.5 271.184 2.5H338.084C340.484 2.5 342.234 3.05 343.334 4.14999C344.434 5.25 344.984 7 344.984 9.4V27.25C344.984 28.55 344.784 29.65 344.384 30.55C344.084 31.45 343.584 32.2 342.884 32.8L326.084 46.75C328.384 46.75 330.084 47.3 331.184 48.4C332.284 49.5 332.834 51.25 332.834 53.65V71.65C332.834 72.95 332.634 74.05 332.234 74.95C331.934 75.85 331.434 76.6 330.734 77.2L311.234 93.4C310.834 93.8 310.184 94.15 309.284 94.45C308.484 94.75 307.584 94.9 306.584 94.9H301.334V106.6C301.334 107.9 301.134 109 300.734 109.9C300.434 110.8 299.934 111.55 299.234 112.15L279.734 128.35C279.334 128.75 278.684 129.1 277.784 129.4C276.984 129.7 276.084 129.85 275.084 129.85ZM294.434 112C296.334 112 297.684 111.6 298.484 110.8C299.384 109.9 299.834 108.5 299.834 106.6V77.05H325.934C327.834 77.05 329.184 76.65 329.984 75.85C330.884 74.95 331.334 73.55 331.334 71.65V53.65C331.334 51.75 330.884 50.4 329.984 49.6C329.184 48.7 327.834 48.25 325.934 48.25H299.834V32.65H338.084C339.984 32.65 341.334 32.25 342.134 31.45C343.034 30.55 343.484 29.15 343.484 27.25V9.4C343.484 7.5 343.034 6.15 342.134 5.35C341.334 4.45 339.984 4 338.084 4H271.184C269.284 4 267.884 4.45 266.984 5.35C266.184 6.15 265.784 7.5 265.784 9.4V106.6C265.784 108.5 266.184 109.9 266.984 110.8C267.884 111.6 269.284 112 271.184 112H294.434ZM282.134 98.5V17.5H329.984V19H283.634V61.9H317.834V63.4H283.634V98.5H282.134ZM399.7 132.1C390 132.1 382 131.05 375.7 128.95C369.5 126.95 364.65 124.25 361.15 120.85C357.65 117.45 355.2 113.55 353.8 109.15C352.5 104.75 351.85 100.2 351.85 95.5V25.75C351.85 24.45 352 23.35 352.3 22.45C352.7 21.55 353.25 20.8 353.95 20.2L373.3 3.85C373.8 3.45 374.45 3.14999 375.25 2.94999C376.15 2.65 377.1 2.5 378.1 2.5H401.65C404.05 2.5 405.8 3.05 406.9 4.14999C408 5.25 408.55 7 408.55 9.4V77.8C408.55 78.7 408.7 79.55 409 80.35C409.3 81.05 409.95 81.6 410.95 82V25.75C410.95 24.45 411.1 23.35 411.4 22.45C411.7 21.55 412.15 20.85 412.75 20.35L412.9 20.2L432.4 3.85C432.9 3.45 433.55 3.14999 434.35 2.94999C435.15 2.65 436.1 2.5 437.2 2.5H460C462.4 2.5 464.15 3.05 465.25 4.14999C466.35 5.25 466.9 7 466.9 9.4V83.65C466.9 88.25 466.25 92.5 464.95 96.4C463.65 100.3 461.3 103.65 457.9 106.45L438.4 122.65C434.9 125.65 430.05 127.95 423.85 129.55C417.65 131.25 409.6 132.1 399.7 132.1ZM465.4 83.65V9.4C465.4 7.5 464.95 6.15 464.05 5.35C463.25 4.45 461.9 4 460 4H437.2C435.3 4 433.9 4.45 433 5.35C432.2 6.15 431.8 7.5 431.8 9.4V77.8C431.8 79.8 431.05 81.5 429.55 82.9C428.05 84.2 424.65 84.85 419.35 84.85C414.15 84.85 410.8 84.2 409.3 82.9C407.8 81.5 407.05 79.8 407.05 77.8V9.4C407.05 7.5 406.6 6.15 405.7 5.35C404.9 4.45 403.55 4 401.65 4H378.1C376.2 4 374.8 4.45 373.9 5.35C373.1 6.15 372.7 7.5 372.7 9.4V83.65C372.7 88.25 373.35 92.45 374.65 96.25C376.05 99.95 378.45 103.15 381.85 105.85C385.35 108.45 390.1 110.5 396.1 112C402.1 113.5 409.75 114.25 419.05 114.25C428.35 114.25 436 113.5 442 112C448 110.5 452.7 108.45 456.1 105.85C459.6 103.15 462 99.95 463.3 96.25C464.7 92.45 465.4 88.25 465.4 83.65ZM389.2 17.5H390.7V80.05C390.7 85.65 392.65 90.2 396.55 93.7C400.55 97.1 408.1 98.8 419.2 98.8C430.3 98.8 437.85 97.1 441.85 93.7C445.85 90.2 447.85 85.65 447.85 80.05V17.5H449.35V80.05C449.35 86.05 447.25 90.95 443.05 94.75C438.85 98.45 430.9 100.3 419.2 100.3C407.5 100.3 399.55 98.45 395.35 94.75C391.25 90.95 389.2 86.05 389.2 80.05V17.5ZM514.555 129.85H484.255C481.855 129.85 480.105 129.3 479.005 128.2C477.905 127.1 477.355 125.35 477.355 122.95V92.5C477.355 91.2 477.505 90.1 477.805 89.2C478.205 88.2 478.705 87.45 479.305 86.95L498.805 70.6C499.305 70.2 499.955 69.9 500.755 69.7C501.555 69.4 502.505 69.25 503.605 69.25H533.905C536.305 69.25 538.055 69.8 539.155 70.9C540.255 71.9 540.805 73.65 540.805 76.15V106.6C540.805 107.9 540.605 109 540.205 109.9C539.905 110.8 539.405 111.55 538.705 112.15L519.205 128.35C518.805 128.75 518.155 129.1 517.255 129.4C516.455 129.7 515.555 129.85 514.555 129.85ZM533.905 112C535.805 112 537.155 111.6 537.955 110.8C538.855 109.9 539.305 108.5 539.305 106.6V76.15C539.305 74.25 538.855 72.9 537.955 72.1C537.155 71.2 535.805 70.75 533.905 70.75H503.605C501.705 70.75 500.305 71.2 499.405 72.1C498.605 72.9 498.205 74.25 498.205 76.15V106.6C498.205 108.5 498.605 109.9 499.405 110.8C500.305 111.6 501.705 112 503.605 112H533.905ZM518.005 98.5V84.25H519.505V98.5H518.005ZM638.361 121.9C635.261 124.5 631.311 126.45 626.511 127.75C621.711 129.15 616.061 129.85 609.561 129.85H559.011C556.611 129.85 554.861 129.3 553.761 128.2C552.661 127.1 552.111 125.35 552.111 122.95V25.75C552.111 24.45 552.261 23.35 552.561 22.45C552.961 21.55 553.511 20.8 554.211 20.2L573.561 3.85C574.061 3.45 574.711 3.14999 575.511 2.94999C576.411 2.65 577.361 2.5 578.361 2.5H628.911C642.011 2.5 651.661 5.15 657.861 10.45C664.161 15.75 667.311 23.8 667.311 34.6V81.4C667.311 86.8 666.511 91.55 664.911 95.65C663.311 99.65 660.961 103 657.861 105.7L638.361 121.9ZM628.911 112C641.411 112 650.661 109.5 656.661 104.5C662.761 99.5 665.811 91.8 665.811 81.4V34.6C665.811 24.2 662.761 16.5 656.661 11.5C650.661 6.5 641.411 4 628.911 4H578.361C576.461 4 575.061 4.45 574.161 5.35C573.361 6.15 572.961 7.5 572.961 9.4V106.6C572.961 108.5 573.361 109.9 574.161 110.8C575.061 111.6 576.461 112 578.361 112H628.911ZM589.311 98.5V17.5H625.611C630.711 17.5 634.811 18.05 637.911 19.15C641.111 20.25 643.561 21.75 645.261 23.65C646.961 25.45 648.111 27.65 648.711 30.25C649.311 32.75 649.611 35.45 649.611 38.35V78.1C649.611 81 649.311 83.7 648.711 86.2C648.211 88.7 647.111 90.85 645.411 92.65C643.711 94.45 641.261 95.9 638.061 97C634.861 98 630.711 98.5 625.611 98.5H589.311ZM625.611 19H590.811V97H625.611C630.411 97 634.261 96.55 637.161 95.65C640.161 94.65 642.461 93.35 644.061 91.75C645.661 90.05 646.711 88.05 647.211 85.75C647.811 83.35 648.111 80.8 648.111 78.1V38.35C648.111 35.65 647.811 33.1 647.211 30.7C646.611 28.3 645.511 26.25 643.911 24.55C642.311 22.85 640.011 21.5 637.011 20.5C634.111 19.5 630.311 19 625.611 19ZM607.011 32.65H624.861C627.261 32.65 629.011 33.25 630.111 34.45C631.311 35.55 631.911 37.35 631.911 39.85V76.3C631.911 78.8 631.311 80.65 630.111 81.85C629.011 83.05 627.261 83.65 624.861 83.65H607.011V32.65ZM611.061 56.2C611.061 54.9 610.861 53.8 610.461 52.9C610.061 52 609.411 51.35 608.511 50.95V82.15H611.061V56.2ZM755.467 129.85H685.867C683.467 129.85 681.717 129.3 680.617 128.2C679.517 127.1 678.967 125.35 678.967 122.95V25.75C678.967 24.45 679.117 23.35 679.417 22.45C679.817 21.55 680.367 20.8 681.067 20.2L700.417 3.85C700.917 3.45 701.567 3.14999 702.367 2.94999C703.267 2.65 704.217 2.5 705.217 2.5H774.817C777.217 2.5 778.967 3.05 780.067 4.14999C781.167 5.25 781.717 7 781.717 9.4V26.95C781.717 28.25 781.517 29.35 781.117 30.25C780.817 31.15 780.317 31.9 779.617 32.5L766.717 43.15C767.717 43.65 768.417 44.4 768.817 45.4C769.317 46.4 769.567 47.7 769.567 49.3V65.35C769.567 66.65 769.367 67.75 768.967 68.65C768.667 69.55 768.167 70.3 767.467 70.9L754.117 82.15H774.817C777.217 82.15 778.967 82.7 780.067 83.8C781.167 84.9 781.717 86.65 781.717 89.05V106.6C781.717 107.9 781.517 109 781.117 109.9C780.817 110.8 780.317 111.55 779.617 112.15L760.117 128.35C759.717 128.75 759.067 129.1 758.167 129.4C757.367 129.7 756.467 129.85 755.467 129.85ZM774.817 112C776.717 112 778.067 111.6 778.867 110.8C779.767 109.9 780.217 108.5 780.217 106.6V89.05C780.217 87.15 779.767 85.8 778.867 85C778.067 84.1 776.717 83.65 774.817 83.65H733.417V70.75H762.667C764.567 70.75 765.917 70.35 766.717 69.55C767.617 68.65 768.067 67.25 768.067 65.35V49.3C768.067 47.4 767.617 46.05 766.717 45.25C765.917 44.35 764.567 43.9 762.667 43.9H733.417V32.35H774.817C776.717 32.35 778.067 31.95 778.867 31.15C779.767 30.25 780.217 28.85 780.217 26.95V9.4C780.217 7.5 779.767 6.15 778.867 5.35C778.067 4.45 776.717 4 774.817 4H705.217C703.317 4 701.917 4.45 701.017 5.35C700.217 6.15 699.817 7.5 699.817 9.4V106.6C699.817 108.5 700.217 109.9 701.017 110.8C701.917 111.6 703.317 112 705.217 112H774.817ZM766.717 97V98.5H716.167V17.5H766.717V19H717.667V56.65H754.567V58.15H717.667V97H766.717ZM818.453 129.85C816.153 129.85 814.303 129.4 812.903 128.5C811.503 127.7 810.353 126.2 809.453 124L794.753 87.25C793.853 84.95 793.053 83 792.353 81.4C791.753 79.7 791.253 78.1 790.853 76.6C790.453 75 790.153 73.35 789.953 71.65C789.853 69.85 789.803 67.75 789.803 65.35V25.75C789.803 24.45 789.953 23.35 790.253 22.45C790.653 21.55 791.203 20.8 791.903 20.2L811.253 3.85C811.753 3.45 812.403 3.14999 813.203 2.94999C814.103 2.65 815.053 2.5 816.053 2.5H839.903C842.303 2.5 844.103 3.1 845.303 4.29999C846.603 5.4 847.253 7.1 847.253 9.4V50.8C847.253 51.8 847.353 52.75 847.553 53.65C847.753 54.55 848.003 55.5 848.303 56.5L848.753 57.55V25.75C848.753 24.45 848.903 23.35 849.203 22.45C849.603 21.55 850.153 20.8 850.853 20.2L870.203 3.85C870.703 3.45 871.353 3.14999 872.153 2.94999C873.053 2.65 874.003 2.5 875.003 2.5H898.553C901.053 2.5 902.803 3.05 903.803 4.14999C904.903 5.25 905.453 7 905.453 9.4V49C905.453 51.4 905.353 53.5 905.153 55.3C905.053 57 904.803 58.65 904.403 60.25C904.003 61.75 903.453 63.35 902.753 65.05C902.153 66.65 901.403 68.6 900.503 70.9L885.803 107.65C885.503 108.55 885.103 109.35 884.603 110.05C884.103 110.75 883.603 111.3 883.103 111.7L863.753 127.75C862.953 128.45 862.003 128.95 860.903 129.25C859.903 129.65 858.753 129.85 857.453 129.85H818.453ZM876.803 112C878.703 112 880.253 111.65 881.453 110.95C882.753 110.25 883.753 108.95 884.453 107.05L899.153 70.3C900.053 68.1 900.803 66.2 901.403 64.6C902.003 62.9 902.503 61.3 902.903 59.8C903.303 58.3 903.553 56.75 903.653 55.15C903.853 53.45 903.953 51.4 903.953 49V9.4C903.953 7.5 903.503 6.15 902.603 5.35C901.803 4.45 900.453 4 898.553 4H875.003C873.103 4 871.703 4.45 870.803 5.35C870.003 6.15 869.603 7.5 869.603 9.4V50.65C869.603 51.65 869.503 52.65 869.303 53.65C869.103 54.65 868.803 55.7 868.403 56.8L861.353 77.95C861.053 78.95 860.703 79.65 860.303 80.05C859.903 80.35 859.303 80.5 858.503 80.5H856.853C856.053 80.5 855.453 80.35 855.053 80.05C854.653 79.65 854.303 78.95 854.003 77.95L846.953 56.95C846.553 55.85 846.253 54.8 846.053 53.8C845.853 52.8 845.753 51.8 845.753 50.8V9.4C845.753 7.5 845.253 6.15 844.253 5.35C843.253 4.45 841.803 4 839.903 4H816.053C814.153 4 812.753 4.45 811.853 5.35C811.053 6.15 810.653 7.5 810.653 9.4V49C810.653 51.4 810.703 53.45 810.803 55.15C811.003 56.75 811.303 58.3 811.703 59.8C812.103 61.3 812.603 62.9 813.203 64.6C813.803 66.2 814.553 68.1 815.453 70.3L830.153 107.05C830.853 108.95 831.803 110.25 833.003 110.95C834.303 111.65 835.903 112 837.803 112H876.803ZM827.603 17.5H829.103V49.9C829.103 52.5 829.303 55 829.703 57.4C830.103 59.7 830.703 61.85 831.503 63.85L841.403 87.85C842.403 90.45 843.503 92.65 844.703 94.45C846.003 96.15 848.053 97 850.853 97H864.053C866.853 97 868.853 96.15 870.053 94.45C871.353 92.65 872.503 90.45 873.503 87.85L883.403 63.85C884.203 61.85 884.803 59.7 885.203 57.4C885.603 55 885.803 52.5 885.803 49.9V17.5H887.303V49.9C887.303 52.7 887.103 55.3 886.703 57.7C886.403 60 885.803 62.25 884.903 64.45L875.003 88.45C873.803 91.35 872.453 93.75 870.953 95.65C869.453 97.55 867.153 98.5 864.053 98.5H850.853C847.753 98.5 845.453 97.55 843.953 95.65C842.453 93.75 841.103 91.35 839.903 88.45L830.003 64.45C829.103 62.25 828.453 60 828.053 57.7C827.753 55.3 827.603 52.7 827.603 49.9V17.5Z" fill="#88CDFF"/>
</svg>
