<svg width="983" height="706" viewBox="0 0 983 706" fill="none" xmlns="http://www.w3.org/2000/svg">
<g clip-path="url(#clip0)">
<path d="M192.547 118.531C211.488 118.531 226.843 103.176 226.843 84.2347C226.843 65.2935 211.488 49.9386 192.547 49.9386C173.605 49.9386 158.25 65.2935 158.25 84.2347C158.25 103.176 173.605 118.531 192.547 118.531Z" fill="#8F6E00"/>
<path d="M88.0892 497.133L109.16 424.058L116.333 426.299C116.333 426.299 107.815 480.994 94.3656 494.891L88.0892 497.133Z" fill="#2F2E41"/>
<path d="M168.338 104.857C168.338 104.857 171.027 133.549 164.751 141.619C158.475 149.689 168.786 165.38 168.786 165.38L187.615 187.795L215.411 175.243L219.445 151.93L216.756 135.791C216.756 135.791 207.341 126.376 211.376 109.34C215.411 92.3043 168.338 104.857 168.338 104.857Z" fill="#FFB9B9"/>
<path opacity="0.1" d="M168.338 104.857C168.338 104.857 171.027 133.549 164.751 141.619C158.475 149.689 168.786 165.38 168.786 165.38L187.615 187.795L215.411 175.243L219.445 151.93L216.756 135.791C216.756 135.791 207.341 126.376 211.376 109.34C215.411 92.3043 168.338 104.857 168.338 104.857Z" fill="black"/>
<path d="M184.477 641.491V659.871L209.134 664.803L206.892 634.318L184.477 641.491Z" fill="#FFB9B9"/>
<path d="M258.449 634.318L253.069 659.871L263.829 667.492L282.658 653.595L280.417 631.627L258.449 634.318Z" fill="#FFB9B9"/>
<path d="M211.376 662.561C211.376 662.561 201.961 646.648 184.477 656.622C184.477 656.622 181.339 674.217 178.201 675.562C175.062 676.907 157.578 702.461 178.201 704.703C198.823 706.945 209.134 700.22 209.134 700.22C209.134 700.22 205.099 703.691 211.376 701.898C217.652 700.105 214.962 690.242 214.962 690.242L211.376 662.561Z" fill="#F2F2F2"/>
<path d="M272.795 651.802C272.795 651.802 258.897 661.665 256.656 657.181C254.414 652.698 250.828 653.147 250.828 653.147C250.828 653.147 238.275 700.467 246.344 702.709C251.541 703.988 256.999 703.706 262.035 701.898C262.035 701.898 272.795 694.363 272.795 700.191C272.795 706.019 302.832 705.6 315.385 705.151C327.938 704.703 321.213 695.288 321.213 695.288L304.625 679.149L285.796 651.802C285.796 651.802 277.278 644.18 272.795 651.802Z" fill="#F2F2F2"/>
<path d="M140.542 351.879L159.371 532.55C159.371 532.55 169.682 642.835 171.476 644.629C173.269 646.422 184.925 652.25 210.479 644.629L204.651 500.271L215.411 410.608L240.068 472.476C240.068 472.476 245.896 638.801 249.931 638.801C253.966 638.801 278.623 646.87 284.451 637.007C290.279 627.144 289.383 520.894 289.383 520.894C289.383 520.894 286.693 353.224 266.967 347.844C247.241 342.464 140.542 351.879 140.542 351.879Z" fill="#2F2E41"/>
<path d="M192.547 121.445C209.631 121.445 223.48 107.595 223.48 90.5111C223.48 73.4269 209.631 59.5774 192.547 59.5774C175.462 59.5774 161.613 73.4269 161.613 90.5111C161.613 107.595 175.462 121.445 192.547 121.445Z" fill="#FFB9B9"/>
<path d="M194.34 176.588C194.34 176.588 191.202 157.31 191.202 153.724C191.202 150.137 177.304 147.895 177.304 147.895C177.304 147.895 166.544 135.791 164.303 137.584C162.061 139.377 127.989 162.242 122.609 165.38C117.23 168.518 111.402 181.967 111.85 182.864C112.298 183.761 140.094 242.042 140.094 242.042C140.094 242.042 152.198 277.907 143.68 296.736C135.162 315.565 124.403 352.775 140.094 360.397C155.785 368.018 231.998 384.606 245.896 370.26C259.794 355.914 269.657 351.879 273.243 351.879C276.83 351.879 258.449 289.563 262.484 283.735C266.519 277.907 260.69 241.593 260.69 241.593L281.313 183.761C281.313 183.761 279.52 151.482 238.723 144.309L214.317 132.475L194.34 176.588Z" fill="#575A89"/>
<path d="M110.505 359.949C110.505 359.949 108.263 381.468 108.263 387.744C108.263 394.02 97.5037 430.782 113.195 435.265C128.886 439.749 127.541 386.399 127.541 386.399V359.052L110.505 359.949Z" fill="#FFB9B9"/>
<path d="M296.556 339.774C296.556 339.774 299.246 360.397 297.901 364.88C296.556 369.363 310.902 408.367 291.624 410.608C272.347 412.85 277.278 363.983 277.278 363.983V339.774L296.556 339.774Z" fill="#FFB9B9"/>
<path d="M106.47 489.96L119.471 420.919H123.506C126.327 424.556 128.178 428.851 128.883 433.399C129.589 437.948 129.127 442.601 127.541 446.922C122.161 462.164 117.678 489.96 117.678 489.96H106.47Z" fill="#2F2E41"/>
<path d="M118.575 177.484L111.85 182.864C111.85 182.864 102.884 325.428 105.125 336.188C107.367 346.947 97.0554 362.19 106.022 363.535C114.988 364.88 125.748 370.708 130.679 367.122C135.611 363.535 136.507 350.534 138.3 347.396C140.094 344.258 143.232 307.047 143.232 307.047C143.232 307.047 152.646 269.837 146.818 242.042C140.99 214.246 135.611 186.002 135.611 186.002L118.575 177.484Z" fill="#575A89"/>
<path d="M260.69 166.276L281.313 183.761L297.004 275.217C297.004 275.217 306.867 346.499 299.246 347.396C291.624 348.292 279.968 346.051 275.037 347.396C270.105 348.741 266.07 345.154 266.07 345.154C266.07 345.154 260.69 316.462 260.69 316.014C260.69 315.565 257.104 282.838 257.104 282.838L252.621 246.076L259.346 205.728L260.69 166.276Z" fill="#575A89"/>
<path d="M163.406 589.486C163.406 589.486 160.492 597.856 156.475 609.252C154.61 614.551 152.508 620.509 150.342 626.584C148.948 630.511 147.531 634.488 146.137 638.37C143.913 644.579 141.752 650.542 139.865 655.662C137.372 662.418 135.35 667.712 134.266 670.183C129.334 681.39 39.2228 663.458 32.0497 658.975C24.8767 654.492 23.0834 639.249 22.1868 617.73C22.1823 617.618 22.1778 617.506 22.1778 617.394C22.0612 613.049 23.1686 606.58 25.0202 598.99C25.9437 595.197 27.0555 591.127 28.2928 586.899C29.9516 581.228 31.8346 575.283 33.8026 569.366C42.2579 543.946 52.2239 519.1 52.2239 519.1C52.2239 519.1 69.7082 506.996 75.9846 498.926C82.261 490.857 116.781 484.58 116.781 484.58C126.644 485.028 149.06 523.135 158.026 534.791C166.993 546.448 163.406 589.486 163.406 589.486Z" fill="#3F3D56"/>
<path d="M113.195 521.342C115.423 521.342 117.23 519.536 117.23 517.307C117.23 515.079 115.423 513.272 113.195 513.272C110.966 513.272 109.16 515.079 109.16 517.307C109.16 519.536 110.966 521.342 113.195 521.342Z" fill="#2F2E41"/>
<path d="M119.471 524.032C120.709 524.032 121.713 523.028 121.713 521.79C121.713 520.552 120.709 519.549 119.471 519.549C118.233 519.549 117.23 520.552 117.23 521.79C117.23 523.028 118.233 524.032 119.471 524.032Z" fill="#2F2E41"/>
<path d="M156.475 609.252C154.61 614.551 152.508 620.509 150.342 626.584L28.2929 586.899C29.9517 581.228 31.8346 575.283 33.8027 569.366L156.475 609.252Z" fill="#F2F2F2"/>
<path d="M146.137 638.37C143.913 644.579 141.753 650.542 139.865 655.662L22.1779 617.394C22.0613 613.049 23.1686 606.58 25.0202 598.99L146.137 638.37Z" fill="#F2F2F2"/>
<path d="M113.195 518.204C113.195 518.204 122.161 557.656 116.781 592.624C111.402 627.593 130.231 660.32 130.231 660.32" stroke="#2F2E41" stroke-width="3" stroke-miterlimit="10"/>
<path d="M119.471 521.342C119.471 521.342 101.987 585.003 101.539 593.969C101.09 602.935 93.9172 667.044 84.9509 673.769" stroke="#2F2E41" stroke-width="3" stroke-miterlimit="10"/>
<path d="M168.798 71.6347C168.798 71.6347 161.796 53.4293 171.949 47.4775L174.75 55.5299C174.75 55.5299 200.308 40.1253 206.959 43.6264L200.658 52.0289C200.658 52.0289 230.416 52.0289 232.517 63.5823L222.014 63.9324C222.014 63.9324 233.217 71.2846 233.567 83.1881L211.161 84.5885L222.014 90.8904C222.014 90.8904 181.402 96.4921 171.599 80.3873L168.798 71.6347Z" fill="#8F6E00"/>
<path d="M162.734 72.3544C162.734 72.3544 170.803 88.4937 181.563 84.4588C192.322 80.424 181.563 65.6296 181.563 65.6296L174.39 62.0431L162.734 72.3544Z" fill="#8F6E00"/>
<path d="M858.599 326.969L712.272 144.115C705.627 150.191 697.441 154.324 688.607 156.064C661.059 161.489 634.157 142.677 628.518 114.046C626.574 104.578 627.254 94.7579 630.482 85.647C633.711 76.5361 639.367 68.48 646.839 62.3482L596.946 6.10352e-05L312.697 242.934L574.351 569.903L858.599 326.969Z" fill="#F2F2F2"/>
<path d="M676.782 147.376C699.565 147.376 718.034 128.907 718.034 106.124C718.034 83.3411 699.565 64.8718 676.782 64.8718C653.999 64.8718 635.53 83.3411 635.53 106.124C635.53 128.907 653.999 147.376 676.782 147.376Z" fill="#F2F2F2"/>
<path d="M418.661 289.937L406.039 304.544L448.563 341.288L461.185 326.681L418.661 289.937Z" fill="#88CDFF"/>
<path d="M692.02 551.168L679.398 565.776L717.091 598.346L729.713 583.738L692.02 551.168Z" fill="#88CDFF"/>
<path d="M760.126 442.367V443.5C760.1 446.344 760.019 449.175 759.881 451.994C757.428 500.231 736.619 545.702 701.718 579.09C666.818 612.478 620.47 631.254 572.172 631.57C523.874 631.886 477.285 613.718 441.951 580.789C406.617 547.861 385.214 502.665 382.13 454.465C381.873 450.462 381.744 446.43 381.744 442.367C381.676 403.183 393.837 364.953 416.532 333.01C418.346 330.436 420.234 327.909 422.195 325.429C423.546 323.705 424.936 322.019 426.339 320.345C458.276 282.51 503.77 258.7 553.061 254.022C602.352 249.345 651.513 264.173 689.996 295.326C692.274 297.166 694.514 299.071 696.702 301.014C698.452 302.572 700.172 304.163 701.863 305.789C735.152 337.632 755.642 380.553 759.469 426.46C759.907 431.711 760.126 437.013 760.126 442.367Z" fill="#3F3D56"/>
<path d="M570.935 655.368C453.486 655.368 357.934 559.816 357.934 442.367C357.865 388.631 378.174 336.868 414.768 297.517L419.484 301.895C383.997 340.056 364.301 390.255 364.369 442.367C364.369 556.268 457.034 648.933 570.935 648.933C598.61 649.026 626.017 643.513 651.504 632.726C676.99 621.94 700.028 606.102 719.227 586.17L723.847 590.649C704.05 611.203 680.294 627.534 654.014 638.657C627.733 649.78 599.472 655.464 570.935 655.368Z" fill="#88CDFF"/>
<path d="M601.823 650.863H547.769V704.918H601.823V650.863Z" fill="#88CDFF"/>
<path d="M422.195 325.429C422.287 325.468 422.374 325.52 422.452 325.584C423.469 326.42 422.195 328.029 422.349 329.354C422.529 331.053 424.794 331.427 426.506 331.594C428.218 331.774 430.38 333.151 429.569 334.67C425.271 336.15 420.921 334.696 416.532 333.01C393.837 364.953 381.676 403.182 381.744 442.367C381.744 446.434 381.873 450.467 382.13 454.465C382.49 454.728 382.884 454.94 383.301 455.096C384.588 455.585 386.081 455.495 387.265 456.19C388.205 456.743 388.835 457.721 389.775 458.236C392.465 459.703 396.197 456.885 398.707 458.635C399.355 459.226 399.97 459.853 400.547 460.514C402.864 462.522 406.673 461.17 409.35 462.676C411.075 463.641 411.963 465.572 412.89 467.322C415.193 471.698 418.926 475.997 423.855 476.344C425.41 476.273 426.967 476.325 428.514 476.499C430.033 476.846 431.526 478.172 431.281 479.703C430.856 482.342 432.156 485.225 431.809 487.863C431.178 492.689 424.344 494.8 423.765 499.626C423.763 500.688 423.703 501.75 423.585 502.805C423.276 504.067 422.323 505.096 421.989 506.357C421.345 508.738 423.057 511.119 424.923 512.715C426.802 514.324 429.042 515.714 430.071 517.953C431.152 520.334 430.625 523.101 430.972 525.688C431.744 531.338 436.622 535.521 441.641 538.224C443.25 538.896 444.678 539.936 445.811 541.261C447.098 543.127 446.97 545.586 447.407 547.812C448.463 553.256 453.044 557.748 453.173 563.295C453.263 567.246 451.075 570.824 449.763 574.543C448.412 578.443 448.011 582.608 448.591 586.693C455.93 592.917 463.73 598.574 471.925 603.617C472.371 602.958 472.697 602.227 472.89 601.455C473.046 600.602 472.938 599.721 472.582 598.931C472.226 598.14 471.638 597.476 470.895 597.027C472.278 596.505 473.537 595.698 474.589 594.659C475.106 594.128 475.447 593.45 475.567 592.718C475.687 591.986 475.579 591.235 475.258 590.567C477.523 590.85 480.213 590.991 481.706 589.254C482.903 587.864 482.826 585.779 482.35 584.016C481.696 582.302 481.264 580.511 481.063 578.688C486.311 578.943 491.571 578.767 496.79 578.16C496.035 575.614 494.317 573.463 492.002 572.162C494.37 571.763 496.52 568.932 497.266 566.654C497.912 564.33 497.947 561.879 497.369 559.537C497.19 558.935 497.164 558.298 497.292 557.684C497.673 556.867 498.342 556.221 499.171 555.869C503.084 553.617 506.996 551.369 510.909 549.125C511.607 548.773 512.242 548.307 512.788 547.748C514.01 546.293 513.83 544.118 513.199 542.329C512.569 540.541 511.565 538.854 511.32 536.975C510.6 531.351 516.623 527.31 518.656 522.007C519.348 519.891 519.721 517.683 519.763 515.457C519.93 513.063 519.943 510.296 518.116 508.764C516.353 507.284 513.611 507.619 511.771 506.242C510.085 504.98 509.506 502.548 507.665 501.531C505.992 500.604 503.907 501.197 502.041 500.759C498.772 500 496.713 496.229 493.366 495.881C491.487 495.675 489.351 496.602 487.807 495.508C486.442 494.53 486.391 492.586 486.133 490.939C485.677 488.373 484.445 486.008 482.604 484.163C480.764 482.318 478.402 481.081 475.837 480.617C473.894 480.308 471.783 480.424 470.123 479.356C468.45 478.275 467.691 476.254 466.365 474.748C464.254 472.342 460.908 471.479 457.781 470.746C453.533 469.755 449.291 468.759 445.052 467.76C442.8 467.219 439.891 466.936 438.669 468.918C438.307 469.672 438.055 470.474 437.922 471.299C437.462 472.784 436.545 474.087 435.302 475.02C434.059 475.954 432.552 476.471 430.998 476.499C429.934 474.681 428.21 473.345 426.184 472.766C424.861 472.544 423.554 472.235 422.272 471.84C421.602 471.512 421.007 471.05 420.521 470.484C420.036 469.918 419.671 469.259 419.45 468.547C419.228 467.835 419.154 467.085 419.232 466.343C419.31 465.602 419.539 464.884 419.904 464.233C420.634 462.927 420.914 461.418 420.703 459.937C420.491 458.455 419.799 457.085 418.733 456.035C416.57 454.092 413.443 453.616 410.534 453.809C409.775 452.148 411.049 450.282 412.413 449.072C413.791 447.876 415.451 446.692 415.747 444.89C416.223 442.058 412.606 439.909 409.865 440.745C407.124 441.595 405.373 444.259 404.215 446.885C403.653 448.434 402.887 449.901 401.937 451.248C401.45 451.914 400.789 452.432 400.025 452.746C399.262 453.059 398.427 453.155 397.613 453.024C395.348 452.444 394.485 449.755 393.983 447.489C393.179 444.462 392.772 441.343 392.774 438.21C392.793 435.047 394.05 432.016 396.274 429.767C400.019 426.318 405.785 426.653 410.843 427.206C410.301 426.484 410.042 425.588 410.113 424.688C410.184 423.788 410.581 422.944 411.229 422.315C411.906 421.714 412.72 421.288 413.599 421.072C414.478 420.857 415.397 420.86 416.275 421.08C417.799 421.396 419.173 422.216 420.174 423.409C421.616 425.16 422.027 427.541 423.109 429.523C424.203 431.518 426.648 433.216 428.643 432.148C430.38 431.222 430.65 428.828 430.226 426.91C429.788 425.005 428.874 423.139 429.029 421.183C429.325 417.463 433.199 415.211 436.609 413.68C440.02 412.148 443.92 410.076 444.46 406.369C444.485 405.648 444.624 404.936 444.872 404.259C445.249 403.654 445.777 403.157 446.404 402.817C456.352 396.24 466.481 389.574 477.858 385.983C478.45 385.79 478.515 385.996 479.119 385.854C479.969 385.365 479.403 384.014 478.592 383.473C477.781 382.933 476.7 382.508 476.494 381.556C476.352 380.861 476.764 380.166 476.867 379.458C476.894 379.03 476.816 378.603 476.639 378.213C476.462 377.822 476.192 377.481 475.853 377.22C475.514 376.958 475.116 376.783 474.693 376.711C474.271 376.639 473.838 376.672 473.431 376.807C472.517 375.597 474.319 374.194 475.786 373.782C480.179 372.579 484.687 371.845 489.235 371.594C489.76 371.508 490.299 371.598 490.767 371.852C491.101 372.174 491.3 372.613 491.321 373.077C491.343 373.541 491.186 373.996 490.883 374.348C490.264 375.036 489.578 375.661 488.836 376.215C488.098 376.932 487.571 377.838 487.312 378.834C487.053 379.831 487.073 380.879 487.369 381.865C489.75 383.074 492.324 384.323 494.963 383.898C497.588 383.473 499.918 380.513 498.682 378.158C497.537 375.957 494.075 375.455 493.483 373.049C492.788 370.23 496.777 367.72 495.876 364.966C495.49 363.756 494.28 363.036 493.354 362.173C492.263 361.1 491.522 359.722 491.225 358.221C490.929 356.719 491.092 355.164 491.694 353.756C490.187 354.019 488.639 353.919 487.179 353.462C485.72 353.005 484.39 352.206 483.302 351.131C481.294 349.11 479.698 345.905 476.841 346.008C474.229 346.086 471.976 349.136 469.531 348.209C468.926 347.978 468.296 347.514 467.716 347.785C467.525 347.907 467.365 348.072 467.247 348.266C467.128 348.46 467.056 348.678 467.034 348.904C466.417 351.877 467.485 355.262 465.863 357.836C464.1 360.629 460.02 361.015 457.884 363.538C456.725 364.902 456.275 366.742 455.207 368.184C454.138 369.625 451.886 370.552 450.599 369.291C451.229 367.998 451.402 366.531 451.089 365.128C450.775 363.725 449.995 362.47 448.875 361.568C447.689 360.79 446.409 360.168 445.065 359.715C443.564 359.082 442.136 358.288 440.805 357.347C440.142 356.943 439.603 356.364 439.248 355.674C438.967 354.806 439.003 353.866 439.351 353.023C440.002 351.164 441.148 349.518 442.665 348.262C444.182 347.005 446.013 346.186 447.961 345.893C449.66 345.661 451.642 345.738 452.774 344.438C453.366 343.756 453.675 342.714 454.55 342.443C455.102 342.328 455.675 342.396 456.185 342.636C458.308 343.383 460.419 344.129 462.543 344.876C463.251 345.201 464.033 345.33 464.808 345.249C465.192 345.2 465.543 345.006 465.789 344.707C466.035 344.408 466.158 344.027 466.133 343.64C465.927 342.585 464.306 342.083 464.46 341.015C464.535 340.666 464.72 340.35 464.988 340.114C467.283 337.672 470.09 335.768 473.207 334.538C476.324 333.308 479.675 332.781 483.019 332.997C483.817 334.322 482.556 335.88 481.487 336.999C480.432 338.132 479.583 340.14 480.87 341.002C481.389 341.274 481.97 341.407 482.556 341.388C484.121 341.598 485.642 342.059 487.06 342.752C489.261 343.705 491.423 344.76 493.534 345.893C493.223 344.513 493.276 343.076 493.688 341.723C493.921 341.059 494.392 340.505 495.011 340.169C495.63 339.834 496.351 339.741 497.035 339.908C498.296 340.397 498.939 342.07 500.291 342.225C502.08 342.431 502.788 339.779 502.041 338.132C501.295 336.485 499.802 335.12 499.686 333.306C499.596 332.096 500.059 330.59 499.094 329.856C498.751 329.629 498.358 329.488 497.948 329.445C489.866 327.965 481.779 326.48 473.688 324.992C472.247 324.721 470.175 324.927 470.11 326.382C470.072 327.205 470.805 328.016 470.484 328.762C470.136 329.56 469.003 329.496 468.18 329.779C467.561 330.06 467.05 330.535 466.725 331.131C466.4 331.728 466.278 332.415 466.378 333.087C466.598 334.425 467.117 335.697 467.897 336.806C466.314 336.15 463.933 336.034 462.35 335.365C462.119 333.532 461.652 331.736 460.96 330.024C460.92 329.751 460.821 329.491 460.67 329.26C460.519 329.03 460.319 328.836 460.085 328.691C459.85 328.546 459.587 328.455 459.314 328.422C459.04 328.39 458.763 328.419 458.501 328.505C456.416 328.827 454.331 329.136 452.247 329.457C451.723 329.482 451.222 329.677 450.818 330.011C450.007 330.873 450.805 332.25 450.779 333.434C450.704 334.096 450.424 334.719 449.979 335.214C449.534 335.71 448.946 336.055 448.295 336.201C446.986 336.467 445.634 336.45 444.331 336.15C441.41 335.699 438.501 335.249 435.58 334.799C438.159 333.977 440.452 332.442 442.195 330.371C443.353 329.007 443.971 326.459 442.298 325.815C441.804 325.68 441.288 325.64 440.779 325.699C436.815 325.725 433.688 322.418 429.981 321.015C428.816 320.58 427.583 320.353 426.339 320.345L422.195 325.429Z" fill="#88CDFF"/>
<path d="M759.881 451.994C759.427 452.603 758.831 453.092 758.145 453.417C757.458 453.743 756.702 453.895 755.943 453.86C751.915 453.513 750.216 447.708 746.226 447.052C745.873 446.961 745.5 446.998 745.171 447.155C744.579 447.477 744.476 448.275 744.437 448.944C744.27 452.264 744.128 455.713 745.428 458.777C747.32 463.255 752.224 467.013 751.194 471.763C745.66 469.201 742.777 462.985 741.477 457.026C740.164 451.067 739.958 444.812 737.616 439.175C735.827 441.453 732.095 439.574 730.473 437.18C728.929 434.915 727.976 432.29 726.483 429.986C724.99 427.695 722.7 425.636 719.971 425.507C717.101 425.379 714.604 427.348 712.416 429.214C710.513 430.62 708.915 432.397 707.719 434.439C706.187 437.528 706.586 441.157 706.509 444.594C706.432 448.3 705.647 452.226 703.111 454.954C700.576 457.67 695.904 458.622 693.111 456.164C691.761 454.756 690.798 453.022 690.318 451.132C687.282 442.283 684.755 433.268 682.751 424.13C682.287 426.215 680.447 428.905 678.697 427.682C678.305 427.349 677.989 426.937 677.77 426.472C674.501 420.951 668.465 417.631 662.351 415.636C656.251 413.654 649.829 412.727 643.793 410.539C640.408 409.31 637.174 407.699 634.153 405.739C633.386 406.869 632.938 408.185 632.856 409.549C632.775 410.913 633.063 412.273 633.69 413.486C634.368 414.674 635.42 415.604 636.681 416.132C637.943 416.661 639.343 416.758 640.665 416.408C642.004 415.97 643.136 415.044 644.462 414.58C645.788 414.13 647.577 414.349 648.156 415.636C648.722 416.858 647.873 418.339 648.297 419.626C648.928 421.569 651.875 421.723 652.905 423.499C653.207 424.203 653.277 424.985 653.103 425.73C652.93 426.476 652.522 427.146 651.94 427.644C650.755 428.609 649.448 429.414 648.053 430.037C643.728 432.444 640.652 436.55 636.869 439.742C633.085 442.946 627.744 445.276 623.239 443.229C624.307 437.785 617.834 433.796 616.637 428.377C616.238 426.588 616.444 424.696 615.89 422.959C615.079 420.436 612.84 418.712 611.012 416.807C608.792 414.469 607.062 411.71 605.924 408.693C604.785 405.676 604.262 402.462 604.384 399.239C604.487 397 604.899 394.722 604.384 392.534C603.882 390.359 602.068 388.248 599.828 388.338C594.719 388.57 588.271 388.956 585.594 384.593C584.629 383.036 584.217 380.758 585.607 379.561C586.15 379.217 586.756 378.983 587.39 378.875C588.025 378.767 588.674 378.786 589.301 378.93C593.149 379.303 596.984 379.69 600.832 380.063C603.522 380.32 606.431 380.539 608.747 379.136C611.064 377.733 612.068 373.988 609.918 372.328C608.361 371.118 605.556 371.182 605.092 369.265C604.719 367.656 606.495 365.841 605.53 364.49C604.848 363.538 603.303 363.795 602.364 364.516C601.544 365.367 600.653 366.146 599.7 366.845C597.859 367.798 595.671 366.884 593.689 366.266C591.707 365.648 589.056 365.597 588.104 367.437C587.022 369.484 589.043 372.186 587.988 374.245C586.572 376.961 581.81 375.417 579.828 377.759C577.563 380.436 581.373 384.451 580.613 387.875C579.636 388.36 578.549 388.583 577.459 388.522C576.37 388.461 575.314 388.118 574.397 387.527C573.496 386.915 572.779 386.069 572.321 385.081C571.863 384.093 571.682 382.999 571.797 381.916C571.977 380.372 572.788 378.789 572.248 377.334C571.665 376.211 570.703 375.331 569.532 374.85C565.8 372.778 562.067 370.715 558.335 368.66C557.293 370.59 558.605 372.971 560.253 374.426C561.887 375.867 563.946 376.961 565.027 378.866C565.712 380.186 565.867 381.718 565.46 383.148C565.053 384.578 564.116 385.799 562.84 386.562C562.678 386.673 562.494 386.748 562.301 386.781C562.108 386.815 561.909 386.806 561.72 386.755C561.541 386.65 561.386 386.511 561.262 386.345C561.138 386.18 561.049 385.991 560.999 385.79C559.03 380.732 556.057 375.751 551.321 373.113C546.572 370.462 539.763 371.015 536.649 375.455C535.915 376.51 535.413 377.72 534.77 378.84C531.359 384.773 524.023 387.579 517.176 387.399C516.507 387.442 515.839 387.285 515.259 386.948C514.152 386.189 514.203 384.567 514.371 383.229C514.615 381.337 514.847 379.458 515.091 377.566C515.097 376.411 515.544 375.301 516.34 374.464C517.614 373.46 519.441 374.091 521.063 374.065C522.287 374.011 523.464 373.58 524.434 372.831C525.404 372.082 526.119 371.053 526.481 369.882C526.808 368.701 526.805 367.454 526.474 366.274C526.143 365.095 525.496 364.028 524.602 363.19C523.869 362.495 522.878 361.62 523.264 360.68C523.421 360.421 523.632 360.2 523.883 360.031C524.134 359.862 524.419 359.75 524.718 359.702C527.614 358.866 530.69 358.647 533.534 357.643C536.391 356.652 539.158 354.618 539.841 351.671C540.047 350.77 540.137 349.676 540.947 349.226C541.357 349.062 541.793 348.974 542.234 348.968C543.782 348.747 545.19 347.954 546.184 346.747C547.177 345.54 547.682 344.004 547.601 342.443C548.966 341.491 550.883 342.199 552.209 343.215C553.522 344.232 554.693 345.571 556.302 346.008C559.3 346.832 562.196 344.168 565.311 344.155C566.623 344.155 567.975 344.618 569.197 344.168C570.446 343.717 571.192 342.482 572.145 341.568C573.11 340.641 574.783 340.088 575.671 341.079C575.414 339.213 575.169 337.36 574.912 335.506C576.428 335.888 578.008 335.941 579.547 335.661C581.085 335.382 582.546 334.776 583.831 333.885C580.588 332.791 577.357 331.697 574.114 330.603C573.773 330.519 573.459 330.351 573.2 330.114C572.492 329.354 573.2 328.17 573.766 327.308C575.143 325.236 575.375 321.825 573.11 320.796C571.566 320.088 569.802 320.937 568.322 321.761C565.954 323.074 563.586 324.399 561.218 325.712C560.999 327.063 562.647 327.836 563.663 328.737C564.283 329.286 564.721 330.01 564.921 330.814C565.121 331.618 565.073 332.463 564.784 333.239C564.494 334.015 563.976 334.685 563.298 335.161C562.62 335.637 561.814 335.896 560.986 335.905C561.453 336.514 561.777 337.22 561.935 337.97C562.093 338.721 562.081 339.497 561.9 340.242C560.317 340.358 558.721 340.474 557.125 340.59C556.86 340.643 556.587 340.643 556.322 340.59C556.057 340.537 555.805 340.432 555.581 340.281C555.066 339.831 555.143 339.033 555.015 338.363C554.802 337.563 554.356 336.845 553.732 336.302C553.108 335.758 552.335 335.414 551.514 335.313C549.874 335.129 548.214 335.282 546.636 335.764C545.95 336.005 545.199 335.987 544.525 335.712C544.143 335.459 543.854 335.089 543.702 334.657C543.422 333.774 543.374 332.834 543.563 331.928C543.753 331.022 544.173 330.18 544.783 329.483C546.019 328.111 547.38 326.857 548.85 325.738C552.18 322.822 554.628 319.033 555.915 314.798C558.541 313.691 561.257 312.198 563.895 311.092C566.016 310.109 568.239 309.362 570.523 308.865C572.673 308.537 574.851 308.433 577.022 308.556C579.983 308.608 582.956 308.659 585.916 308.724C588.558 308.612 591.198 308.992 593.702 309.843C596.135 310.847 598.284 313.022 598.451 315.648C598.502 315.947 598.475 316.254 598.374 316.54C598.273 316.826 598.1 317.082 597.872 317.282C597.53 317.471 597.142 317.56 596.752 317.54C594.294 317.617 593.252 318.235 590.794 318.325C592.351 319.985 594.101 321.735 596.366 322.031C600.356 322.546 603.226 318.415 605.067 314.824C605.132 315.738 605.553 316.59 606.238 317.198C606.923 317.807 607.819 318.123 608.735 318.08C609.72 317.911 610.662 317.543 611.502 316.999C619.418 312.673 628.285 310.382 637.306 310.332C637.218 309.649 637.386 308.958 637.778 308.392C638.171 307.826 638.759 307.426 639.43 307.269C641.27 306.909 642.918 308.492 643.806 310.139C644.681 311.787 645.234 313.691 646.65 314.927C648.053 316.162 650.768 316.098 651.322 314.322C651.862 312.61 650.073 311.143 648.593 310.126C647.1 309.122 645.543 307.256 646.547 305.763C654.115 304.077 661.747 302.404 669.507 302.07C670.826 302.11 672.14 301.882 673.368 301.4C673.977 301.143 674.483 300.692 674.809 300.117C675.135 299.542 675.262 298.876 675.17 298.221C673.477 298.617 671.704 298.5 670.077 297.886C668.45 297.272 667.042 296.188 666.032 294.772C673.999 294.116 682.339 293.537 689.996 295.326L696.702 301.014C695.428 302.34 693.729 303.588 694.656 304.914C694.961 305.218 695.332 305.45 695.74 305.59C696.148 305.73 696.582 305.776 697.011 305.725C698.632 305.751 700.254 305.789 701.863 305.789C735.152 337.631 755.642 380.552 759.47 426.46C756.767 426.357 754.283 429.78 754.63 432.766C755.042 436.228 757.539 439.008 759.328 441.994C759.624 442.479 759.891 442.982 760.126 443.5L759.881 451.994Z" fill="#88CDFF"/>
<path d="M0 704.761H982.521" stroke="#3F3D56" stroke-width="2" stroke-miterlimit="10"/>
<path d="M405.348 88.5433C414.364 88.5433 421.674 81.2338 421.674 72.2171C421.674 63.2004 414.364 55.891 405.348 55.891C396.331 55.891 389.021 63.2004 389.021 72.2171C389.021 81.2338 396.331 88.5433 405.348 88.5433Z" stroke="#3F3D56" stroke-width="2" stroke-miterlimit="10"/>
<path d="M887.756 399.454C896.773 399.454 904.083 392.144 904.083 383.127C904.083 374.111 896.773 366.801 887.756 366.801C878.74 366.801 871.43 374.111 871.43 383.127C871.43 392.144 878.74 399.454 887.756 399.454Z" stroke="#3F3D56" stroke-width="2" stroke-miterlimit="10"/>
<path d="M776.301 236.807C785.318 236.807 792.627 229.497 792.627 220.48C792.627 211.464 785.318 204.154 776.301 204.154C767.284 204.154 759.975 211.464 759.975 220.48C759.975 229.497 767.284 236.807 776.301 236.807Z" stroke="#3F3D56" stroke-width="2" stroke-miterlimit="10"/>
<path d="M669.185 376.722C679.304 376.722 687.506 368.519 687.506 358.4C687.506 348.282 679.304 340.079 669.185 340.079C659.066 340.079 650.863 348.282 650.863 358.4C650.863 368.519 659.066 376.722 669.185 376.722Z" fill="#3F3D56"/>
<path d="M728.038 323.662C741.376 323.662 752.189 312.849 752.189 299.511C752.189 286.173 741.376 275.36 728.038 275.36C714.699 275.36 703.886 286.173 703.886 299.511C703.886 312.849 714.699 323.662 728.038 323.662Z" fill="white"/>
<path d="M752.462 274.474C745.98 268.15 737.251 264.661 728.196 264.773C719.141 264.885 710.502 268.59 704.178 275.072C691.01 288.57 672.21 356.739 672.21 356.739C672.21 356.739 739.892 336.257 753.06 322.758C759.384 316.276 762.874 307.547 762.761 298.492C762.649 289.437 758.945 280.797 752.462 274.474V274.474ZM716.988 310.837C714.748 308.652 713.207 305.851 712.558 302.79C711.909 299.728 712.183 296.543 713.345 293.637C714.507 290.731 716.504 288.235 719.085 286.464C721.665 284.694 724.713 283.728 727.842 283.689C730.971 283.65 734.042 284.54 736.665 286.247C739.289 287.953 741.347 290.399 742.58 293.275C743.814 296.151 744.166 299.329 743.594 302.405C743.021 305.482 741.55 308.32 739.364 310.56C736.434 313.564 732.43 315.281 728.234 315.333C724.037 315.385 719.992 313.768 716.988 310.837V310.837Z" fill="#57B894"/>
</g>
<defs>
<clipPath id="clip0">
<rect width="982.521" height="705.868" fill="white"/>
</clipPath>
</defs>
</svg>
